<?xml version="1.0" standalone="no"?>
<!DOCTYPE svg PUBLIC "-//W3C//DTD SVG 1.1//EN" "http://www.w3.org/Graphics/SVG/1.1/DTD/svg11.dtd" >
<svg xmlns="http://www.w3.org/2000/svg">
<metadata></metadata>
<defs>
<font id="metaplusblack" horiz-adv-x="1165" >
<font-face units-per-em="2048" ascent="1638" descent="-410" />
<missing-glyph horiz-adv-x="460" />
<glyph unicode="&#xfb01;" horiz-adv-x="1257" d="M49 823v234h90q-4 29 -5 62.5t-1 64.5q0 115 39 182.5t95.5 103t121 46t113.5 10.5q57 0 106 -6.5t97 -22.5l-37 -244q-41 18 -90 19q-33 0 -57.5 -20.5t-24.5 -55.5v-139h643v-1057h-357v823h-286v-823h-357v823h-90zM756 1325q0 41 16 78t45 64.5t67 43t81 15.5 q86 0 143 -58.5t57 -142.5q0 -41 -16 -78t-44 -64.5t-66 -43t-81 -15.5q-41 0 -77.5 15.5t-64.5 43t-44 64.5t-16 78z" />
<glyph unicode="&#xfb02;" horiz-adv-x="1394" d="M49 823v234h90q-4 29 -5 62.5t-1 64.5q0 115 39 182.5t95.5 103t121 46t113.5 10.5q74 0 131 -10.5t123 -38.5l-88 -226q-23 10 -43.5 15.5t-46.5 5.5q-33 0 -57.5 -20.5t-24.5 -55.5v-139h223l-47 -234h-176v-823h-357v823h-90zM778 1448l363 86q8 -53 9 -119.5 t1 -173.5v-801q0 -70 2 -115.5t11.5 -72.5t25.5 -37t47 -10q18 0 37 6l57 -205q-39 -14 -99.5 -23.5t-133.5 -9.5q-113 0 -175.5 28t-91 77t-34.5 115.5t-6 146.5v721v107.5t-1.5 107.5t-3.5 96t-8 76z" />
<glyph horiz-adv-x="0" />
<glyph unicode="&#xd;" horiz-adv-x="460" />
<glyph unicode=" "  horiz-adv-x="460" />
<glyph unicode="&#x09;" horiz-adv-x="460" />
<glyph unicode="&#xa0;" horiz-adv-x="460" />
<glyph unicode="!" horiz-adv-x="647" d="M117 1409l413 59l-69 -1048h-266zM129 164q0 84 58.5 142.5t142.5 58.5q39 0 74.5 -15.5t63.5 -43t43 -64.5t15 -80q0 -41 -16 -77t-44 -62.5t-64.5 -42t-79.5 -15.5q-41 0 -76 15.5t-60.5 42t-41 63.5t-15.5 78z" />
<glyph unicode="&#x22;" horiz-adv-x="1067" d="M74 815v635h334v-635h-334zM668 815v635h331v-635h-331z" />
<glyph unicode="#" d="M61 395v217h181l30 228h-153v217h180l51 370h240l-49 -370h164l51 370h239l-49 -370h152v-217h-180l-31 -228h153v-217h-180l-55 -395h-240l56 395h-166l-56 -395h-239l55 395h-154zM481 612h166l29 228h-166z" />
<glyph unicode="$" horiz-adv-x="1224" d="M4 104l129 287q78 -45 184.5 -80t217.5 -35q109 0 154.5 36t45.5 96q0 47 -34.5 71.5t-108.5 44.5l-168 43q-78 20 -141.5 53t-109.5 82.5t-71.5 118t-25.5 160.5t31.5 170t90 138.5t138.5 99t178 55.5v170h217v-166q119 -10 224.5 -45t183.5 -90l-176 -260 q-72 47 -160 73.5t-162 26.5q-72 0 -108.5 -29.5t-36.5 -72.5q0 -35 29.5 -68t109.5 -53l145 -37q57 -14 123 -38t122 -67t93 -113.5t37 -176.5q0 -117 -37 -207t-105.5 -155.5t-164.5 -104.5t-215 -51v-152h-217v154q-123 10 -223.5 42.5t-188.5 79.5z" />
<glyph unicode="%" horiz-adv-x="1726" d="M45 1094q0 78 27.5 144.5t77 114.5t116 74.5t146.5 26.5q78 0 143.5 -21.5t113.5 -64.5t74.5 -107.5t26.5 -152.5q0 -80 -25.5 -147.5t-72.5 -116.5t-115 -76t-154 -27q-162 0 -260 87t-98 266zM248 0l868 1427h332l-868 -1427h-332zM328 1094q0 -98 15 -135t65 -37 q47 0 63 38.5t16 143.5q0 96 -16 135t-63 39q-51 0 -65.5 -40t-14.5 -144zM936 326q0 78 27.5 144.5t77 114.5t116 74.5t146.5 26.5q78 0 143 -21.5t113.5 -64.5t75 -107.5t26.5 -152.5q0 -80 -25.5 -147.5t-72.5 -116.5t-115 -76t-154 -27q-162 0 -260 87t-98 266z M1219 326q0 -98 15 -135t64 -37q47 0 63.5 38.5t16.5 143.5q0 96 -16.5 135t-63.5 39q-51 0 -65 -40t-14 -144z" />
<glyph unicode="&#x26;" horiz-adv-x="1503" d="M70 365q0 111 59 204t186 150q-78 49 -117.5 127t-39.5 174q0 80 32.5 145.5t92 113.5t143.5 73.5t186 25.5t184.5 -25.5t139.5 -70.5t88 -105.5t31 -127.5q0 -55 -13.5 -101.5t-44 -87.5t-82 -79t-129.5 -76l205 -205q23 35 47.5 91t40.5 105l283 -82q-25 -86 -71 -174 t-93 -149l289 -291h-471l-72 74q-78 -49 -187.5 -75t-213.5 -26q-102 0 -189.5 25t-150 74t-98 122.5t-35.5 170.5zM449 401q0 -68 43 -119t129 -51q74 0 133 33l-256 260q-23 -23 -36 -53.5t-13 -69.5zM526 1040q0 -37 11.5 -57t27.5 -43l43 -51q29 18 56.5 59t27.5 92 q0 43 -21.5 70t-56.5 27q-49 0 -68.5 -31t-19.5 -66z" />
<glyph unicode="'" horiz-adv-x="630" d="M150 815v635h331v-635h-331z" />
<glyph unicode="(" horiz-adv-x="757" d="M72 616q0 160 21.5 307.5t82 275.5t169 233.5t280.5 181.5l94 -217q-47 -35 -98.5 -80t-94.5 -125t-70.5 -205t-27.5 -321q0 -215 19.5 -354.5t57.5 -230.5t92 -143.5t124 -91.5l-90 -211q-137 41 -231.5 112t-156 158t-96 183t-52 191.5t-20.5 182.5t-3 154z" />
<glyph unicode=")" horiz-adv-x="735" d="M16 -145q104 80 164 160.5t89.5 176t35.5 213t6 273.5q0 143 -13 257t-47 203t-89.5 153.5t-141.5 111.5l91 213q63 -27 128.5 -57.5t127 -75.5t116 -109.5t94 -160t63.5 -226.5t24 -307q0 -195 -24 -354.5t-85 -287.5t-170 -227.5t-279 -175.5z" />
<glyph unicode="*" horiz-adv-x="1040" d="M47 1036l82 246l254 -96v268h266v-268l254 82l76 -246l-254 -78l162 -227l-217 -156l-164 223l-160 -209l-209 158l170 211z" />
<glyph unicode="+" horiz-adv-x="1478" d="M74 537v323h477v479h334v-479h477v-323h-477v-488h-334v488h-477z" />
<glyph unicode="," horiz-adv-x="546" d="M39 -180q70 16 107.5 46t37.5 60q0 18 -5 28.5t-14 19t-22.5 17.5t-27.5 23q-35 37 -46.5 72t-11.5 82q0 84 57.5 139t143.5 55q111 0 173.5 -73.5t62.5 -204.5q0 -78 -24 -141.5t-62 -114.5q-31 -39 -91.5 -81t-134.5 -58z" />
<glyph unicode="-" horiz-adv-x="741" d="M92 424v293h559v-293h-559z" />
<glyph unicode="." horiz-adv-x="548" d="M66 174q0 43 16 80t45 65.5t66.5 45t80.5 16.5t81 -16.5t68 -45t46 -65.5t16 -80t-16 -82t-46 -67.5t-68 -45t-81 -16.5t-80.5 16.5t-66.5 45t-45 67.5t-16 82z" />
<glyph unicode="/" horiz-adv-x="1026" d="M113 -324l561 1899h252l-561 -1899h-252z" />
<glyph unicode="0" horiz-adv-x="1140" d="M70 528q0 123 37.5 225.5t105.5 177.5t161 115.5t204 40.5q113 0 206 -39.5t159.5 -111.5t102 -172t35.5 -223t-37.5 -227.5t-105.5 -179.5t-162 -118t-205 -43q-115 0 -207 41t-157.5 115t-101 175.5t-35.5 223.5zM461 520q0 -104 12 -163.5t29.5 -89t37 -37t31.5 -7.5 q39 0 62.5 26.5t36 72t15.5 103.5t3 124q0 104 -12 162.5t-28.5 87t-36 35t-31.5 6.5q-41 0 -64.5 -26t-36 -70t-15.5 -102t-3 -122z" />
<glyph unicode="1" horiz-adv-x="845" d="M8 770l426 320h225v-824h146v-266h-723v266h244v426q-51 -29 -105.5 -59.5t-120.5 -50.5z" />
<glyph unicode="2" horiz-adv-x="1091" d="M27 885q125 104 250.5 157.5t291.5 53.5q113 0 198 -27t142.5 -75t86 -112.5t28.5 -138.5q0 -96 -28.5 -162.5t-84 -118.5t-139.5 -94t-194 -87q33 6 88 9t102 3l289 4l-78 -297h-903v299q49 23 109.5 52.5t122 61t119.5 66.5t104.5 72t74 72.5t27.5 70.5q0 55 -38 83 t-89 28q-63 0 -119.5 -32t-128.5 -97z" />
<glyph unicode="3" horiz-adv-x="1058" d="M8 -96q68 -12 127 -13q98 0 180 12.5t142.5 42t93.5 77t33 116.5q0 18 -5.5 40t-22.5 40.5t-47 31.5t-79 17q-47 4 -94 0t-103 -10v301q33 -4 69 -7t71 -3q119 2 162 35.5t43 115.5q0 47 -35 75t-92 28q-88 0 -155 -29t-120 -82l-158 254q29 20 74 47t104.5 49.5t133 38 t162.5 15.5q106 0 194 -27t151.5 -75t98.5 -116.5t35 -152.5q0 -225 -187 -313q53 -14 94.5 -45t69 -72t40.5 -91t13 -104q0 -109 -54 -196.5t-152.5 -150t-234.5 -97.5t-298 -35q-41 0 -96 3t-96 7z" />
<glyph unicode="4" horiz-adv-x="1169" d="M47 0v227l361 856h354l-248 -608q-16 -39 -39.5 -89t-52.5 -79q4 2 17.5 2h29.5h154q20 0 26 -2q-2 6 -2 25q0 47 3 107.5t18 158.5l18 129l320 47v-270q0 -78 -4.5 -130t-6.5 -67h123v-307h-74q-31 0 -43 4q2 -6 3.5 -29.5t1.5 -52.5v-289l-359 -24v350v22.5t4 26.5 q-8 -4 -27.5 -6t-35.5 -2h-541z" />
<glyph unicode="5" horiz-adv-x="980" d="M12 -88q41 -10 101.5 -16.5t117.5 -6.5q147 0 234.5 67t87.5 183q0 78 -54.5 122t-162.5 44q-82 0 -141.5 -9t-131.5 -30l62 811h762l-53 -309h-377l-23 -195q20 4 41 5.5t57 1.5q86 0 159 -31t127 -86t84 -129t30 -160q0 -117 -48 -217t-136.5 -175t-215 -118 t-282.5 -43q-51 0 -87 4t-71 10z" />
<glyph unicode="6" d="M43 522q0 158 51 308.5t158.5 278.5t272.5 228.5t393 159.5l73 -260q-102 -35 -183 -71t-142.5 -81t-104.5 -101t-67 -130q23 16 65.5 28.5t122.5 12.5q102 0 183 -33t137.5 -92t86 -142.5t29.5 -183.5q0 -102 -39 -190t-108.5 -152.5t-164.5 -101.5t-208 -37 q-262 0 -408.5 145.5t-146.5 413.5zM442 432q0 -25 5.5 -58.5t20.5 -64t46 -53.5t84 -23q72 0 116 55.5t44 151.5q0 70 -34 119t-106 49q-35 0 -72.5 -8t-96.5 -33q-4 -31 -5.5 -65.5t-1.5 -69.5z" />
<glyph unicode="7" horiz-adv-x="880" d="M-16 766l41 311h864l-31 -291q-10 -18 -45 -74.5t-82 -140.5t-99 -190.5t-96 -225t-73 -243.5t-31 -246l-387 -92q18 221 69.5 407.5t114 337t128 264t110.5 189.5q-18 -6 -53 -6h-430z" />
<glyph unicode="8" horiz-adv-x="1259" d="M55 373q0 115 52.5 202t158.5 123q-72 31 -124 103.5t-52 195.5q0 90 40 165t111.5 128t168 83t211.5 30t211 -24.5t165.5 -73t108.5 -119t39 -162.5q0 -117 -72 -192.5t-184 -96.5q135 -35 223 -116t88 -226q0 -203 -160.5 -311.5t-443.5 -108.5q-160 0 -264.5 37 t-166 94.5t-86 129t-24.5 139.5zM455 1026q0 -29 8 -49.5t27.5 -35.5t50 -28.5t73.5 -29.5q57 27 91 63.5t34 83.5q0 53 -33.5 84t-105.5 31q-66 0 -105.5 -31t-39.5 -88zM457 395q0 -80 48 -121t134 -41q70 0 115 31t45 90q0 55 -28 89t-99 61l-142 51q-45 -29 -59 -78 t-14 -82z" />
<glyph unicode="9" horiz-adv-x="1169" d="M74 612q0 106 39 197.5t109.5 157t171 102.5t222.5 37q252 0 377 -148.5t125 -400.5q0 -197 -49 -345.5t-144.5 -262t-236.5 -201.5t-328 -164l-184 217q113 37 200 87.5t147.5 102.5t95 100t47.5 79q-66 -33 -144 -33q-92 0 -174 29t-143.5 87t-96 147t-34.5 212z M451 623q0 -86 49 -142.5t127 -56.5q55 0 90 25q10 37 11 74.5t1 78.5q0 221 -133 221q-72 0 -108.5 -52t-36.5 -148z" />
<glyph unicode=":" horiz-adv-x="624" d="M106 174q0 43 16.5 80t45.5 65.5t66.5 45t80.5 16.5t81 -16.5t68 -45t46 -65.5t16 -80t-16 -82t-46 -67.5t-68 -45t-81 -16.5t-80.5 16.5t-66.5 45t-45.5 67.5t-16.5 82zM106 754q0 43 16.5 79.5t45.5 65.5t66.5 45.5t80.5 16.5t81 -16.5t68 -45.5t46 -65.5t16 -79.5 t-16 -82t-46 -68t-68 -45t-81 -16t-80.5 16t-66.5 45t-45.5 68t-16.5 82z" />
<glyph unicode=";" horiz-adv-x="651" d="M84 -180q70 16 107.5 46t37.5 60q0 18 -5 28.5t-14 19t-22.5 17.5t-27.5 23q-35 37 -46.5 72t-11.5 82q0 84 57.5 139t143.5 55q111 0 173.5 -73.5t62.5 -204.5q0 -78 -23.5 -141.5t-62.5 -114.5q-31 -39 -91.5 -81t-134.5 -58zM106 754q0 43 16.5 79.5t45.5 65.5 t66.5 45.5t80.5 16.5t81 -16.5t68 -45.5t46 -65.5t16 -79.5t-16 -82t-46 -68t-68 -45t-81 -16t-80.5 16t-66.5 45t-45.5 68t-16.5 82z" />
<glyph unicode="&#x3c;" horiz-adv-x="2703" d="M96 580q0 47 17.5 88t47 71.5t69.5 48t87 17.5q90 0 151.5 -64.5t61.5 -160.5q0 -47 -17 -87t-48 -70t-72 -47.5t-88 -17.5q-41 0 -79 17.5t-66.5 47.5t-46 69.5t-17.5 87.5zM346 156q0 47 17.5 88t47 71.5t69.5 48t87 17.5q45 0 84 -17.5t69 -48t47 -71.5t17 -88 t-18 -87t-49 -70t-72 -47.5t-86 -17.5q-43 0 -82 17.5t-67.5 47.5t-46 70t-17.5 87zM346 1004q0 47 17.5 88t46 71.5t67.5 48t82 17.5q45 0 86 -17.5t72 -48t49 -71.5t18 -88t-17 -87t-47 -70t-69 -47.5t-84 -17.5q-47 0 -87 17.5t-69.5 47.5t-47 69.5t-17.5 87.5zM600 -268 q0 47 16.5 88t46 71.5t68.5 48t86 17.5q45 0 84 -17.5t68.5 -48t47 -71.5t17.5 -88t-18.5 -87t-49 -70t-71.5 -47t-86 -17q-43 0 -81 17t-66.5 47t-45 70t-16.5 87zM600 1427q0 47 16.5 88t45 72t66.5 48.5t81 17.5q45 0 86 -17.5t71.5 -48.5t49 -72t18.5 -88t-17.5 -87 t-47 -69.5t-68.5 -47t-84 -17.5q-47 0 -86 17.5t-68.5 47t-46 69.5t-16.5 87zM614 580q0 47 17.5 88t47.5 71.5t69.5 48t87.5 17.5q45 0 83.5 -17.5t68.5 -48t47.5 -71.5t17.5 -88t-18.5 -87t-49.5 -70t-72 -47.5t-86 -17.5q-43 0 -81.5 17.5t-67.5 47.5t-46.5 69.5 t-17.5 87.5zM1133 580q0 96 62 160.5t159 64.5q90 0 151.5 -64.5t61.5 -160.5q0 -47 -17.5 -87t-48.5 -70t-71.5 -47.5t-88.5 -17.5q-43 0 -80.5 17.5t-66.5 47.5t-45 69.5t-16 87.5zM1647 580q0 47 17 88t47 71.5t70 48t87 17.5q45 0 84 -17.5t68.5 -48t47 -71.5t17.5 -88 t-18.5 -87t-49 -70t-71.5 -47.5t-86 -17.5q-43 0 -82 17.5t-68 47.5t-46 69.5t-17 87.5zM2165 580q0 47 16.5 88t46 71.5t68.5 48t86 17.5q45 0 85 -17.5t69.5 -48t46 -71.5t16.5 -88t-18.5 -87t-49 -70t-71.5 -47.5t-86 -17.5q-43 0 -81 17.5t-66.5 47.5t-45 69.5 t-16.5 87.5z" />
<glyph unicode="=" horiz-adv-x="1363" d="M102 227v332h1160v-332h-1160zM102 682v332h1160v-332h-1160z" />
<glyph unicode="&#x3e;" horiz-adv-x="2703" d="M96 580q0 47 16.5 88t46 71.5t68.5 48t86 17.5q45 0 85 -17.5t70 -48t46 -71.5t16 -88t-16 -87t-45 -70t-66.5 -47.5t-80.5 -17.5q-47 0 -88 17.5t-72 47.5t-48.5 70t-17.5 87zM610 580q0 47 17.5 88t47.5 71.5t68.5 48t83.5 17.5t86 -17.5t71 -48t47.5 -71.5t17.5 -88 t-17.5 -87t-46.5 -70t-67.5 -47.5t-81.5 -17.5q-47 0 -88 17.5t-72 47.5t-48.5 70t-17.5 87zM1128 580q0 96 61.5 160.5t151.5 64.5q96 0 159 -64.5t63 -160.5q0 -47 -16.5 -87t-45 -70t-66.5 -47.5t-81 -17.5q-47 0 -88 17.5t-72 47.5t-48.5 70t-17.5 87zM1642 580 q0 47 17.5 88t47.5 71.5t69 48t84 17.5t86 -17.5t70.5 -48t47 -71.5t17.5 -88t-17.5 -87t-46 -70t-67.5 -47.5t-82 -17.5q-47 0 -88 17.5t-72 47.5t-48.5 70t-17.5 87zM1661 -268q0 47 17.5 88t47 71.5t68.5 48t84 17.5t85 -17.5t69.5 -48t46 -71.5t16.5 -88t-16.5 -87 t-45 -70t-66.5 -47t-81 -17q-47 0 -88 17t-71.5 47t-48 70t-17.5 87zM1661 1427q0 47 17.5 88t48 72t71.5 48.5t88 17.5q43 0 81 -17.5t66.5 -48.5t45 -71.5t16.5 -88.5q0 -47 -16.5 -87t-46 -69.5t-69.5 -47t-85 -17.5t-84 17.5t-68.5 47t-47 69.5t-17.5 87zM1911 156 q0 47 17.5 88t47 71.5t68.5 48t84 17.5t86 -17.5t70.5 -48t47 -71.5t17.5 -88t-17.5 -87t-46 -70t-67.5 -47.5t-82 -17.5q-47 0 -88 17.5t-71.5 47.5t-48 70t-17.5 87zM1911 1004q0 47 17.5 88t48 71.5t71.5 48t88 17.5q43 0 82 -17.5t67.5 -48t46 -71.5t17.5 -88t-17.5 -87 t-47 -70t-70.5 -47.5t-86 -17.5t-84 17.5t-68.5 47.5t-47 70t-17.5 87zM2165 580q0 96 61.5 160.5t151.5 64.5q45 0 86 -17.5t70.5 -48t47 -71.5t17.5 -88t-17.5 -87t-46 -70t-66.5 -47.5t-79 -17.5q-47 0 -88 17.5t-71.5 47.5t-48 70t-17.5 87z" />
<glyph unicode="?" horiz-adv-x="1073" d="M92 1292q78 72 175.5 119t238.5 47q88 0 168 -22.5t139 -66.5t95 -109.5t36 -153.5q0 -117 -50 -196t-136 -130q-61 -37 -98 -74.5t-55.5 -80.5t-22.5 -93.5t-2 -111.5h-299q-16 92 -10.5 162.5t29.5 128t65 103.5t98 87q66 47 93.5 78t27.5 78q0 57 -38 81.5t-102 24.5 q-37 0 -68.5 -10t-56 -23.5t-42 -29t-27.5 -27.5zM248 164q0 84 58.5 142.5t142.5 58.5q39 0 74.5 -15.5t63 -43t43 -64.5t15.5 -80q0 -41 -16.5 -77t-44 -62.5t-64.5 -42t-80 -15.5q-41 0 -75.5 15.5t-60 42t-41 63.5t-15.5 78z" />
<glyph unicode="@" horiz-adv-x="1638" d="M49 713q0 162 56.5 300t160 240.5t250 161t326.5 58.5q174 0 314 -46.5t238.5 -135.5t151.5 -218t53 -293q0 -135 -29.5 -221t-82.5 -135t-128 -67.5t-165 -18.5q-68 0 -111 12t-68.5 28.5t-35.5 33t-10 26.5h-4q-35 -33 -99.5 -65.5t-167.5 -32.5q-70 0 -127 22.5 t-97 68.5t-59.5 114.5t-15.5 161.5q4 74 30 142.5t73 120.5t112.5 83.5t149.5 31.5q145 0 211 -81l2 67h244l-17 -387q-6 -123 45 -123q20 0 39 5t32 26.5t20.5 65.5t7.5 120q0 229 -122 352t-395 123q-123 0 -220 -37.5t-164.5 -106.5t-103.5 -167t-36 -221 q0 -256 140.5 -397.5t406.5 -141.5q115 0 208 20.5t159 59.5l147 -164q-100 -70 -224 -102.5t-302 -32.5q-182 0 -329.5 48t-250 142.5t-158 234.5t-55.5 325zM672 733q-10 -70 12.5 -121t101.5 -51q126 0 146 121q31 186 -103 186q-45 0 -73.5 -12t-46 -30.5t-25.5 -43 t-12 -49.5z" />
<glyph unicode="A" horiz-adv-x="1220" d="M-29 0l459 1427h381l432 -1427h-397l-74 274h-338l-78 -274h-385zM514 557h184l-61 260q-10 47 -17.5 103.5t-9.5 97.5q-4 -41 -12 -98.5t-27 -128.5z" />
<glyph unicode="B" horiz-adv-x="1271" d="M162 0v1427h633q78 0 146.5 -17t118.5 -59t79.5 -108.5t29.5 -165.5q0 -49 -11 -97t-35.5 -90t-64.5 -76t-100 -52q51 -14 99.5 -42t84.5 -69t57.5 -94.5t21.5 -116.5q0 -98 -29 -179t-88.5 -139.5t-149.5 -90t-213 -31.5h-579zM528 305h140q70 0 100.5 41t30.5 107 q0 27 -5.5 51t-20.5 42.5t-40.5 30t-68.5 11.5h-136v-283zM528 879h146q66 0 92.5 39.5t26.5 95.5q0 55 -29 83.5t-94 28.5h-142v-247z" />
<glyph unicode="C" horiz-adv-x="1120" d="M57 686q0 135 22.5 239.5t76.5 202.5q92 168 240.5 246t336.5 78q55 0 109.5 -7t102.5 -21.5t88 -33t65 -42.5l-156 -271q-98 76 -213 76q-47 0 -89 -13.5t-71 -41.5q-27 -27 -44 -55.5t-28.5 -65.5t-15.5 -83t-4 -110q0 -176 12.5 -271t57.5 -146q35 -41 80 -66t102 -25 q70 0 128 20.5t118 74.5l158 -250q-68 -63 -177.5 -104.5t-267.5 -41.5q-133 0 -251 44t-216 153q-86 94 -125 227t-39 287z" />
<glyph unicode="D" horiz-adv-x="1296" d="M162 0v1427h504q74 0 164 -14t176 -74q123 -86 178 -233.5t55 -366.5q0 -166 -32.5 -309t-129.5 -258q-68 -82 -160 -127t-237 -45h-518zM528 305h123q39 0 73 14.5t58.5 60.5t39 135.5t14.5 236.5q0 125 -15.5 198.5t-41 112.5t-61.5 51t-77 12h-113v-821z" />
<glyph unicode="E" horiz-adv-x="1095" d="M162 0v1427h829l-26 -301h-437v-239h357v-291h-357v-291h490v-305h-856z" />
<glyph unicode="F" horiz-adv-x="978" d="M162 0v1427h786l-26 -301h-396v-239h322v-291h-320v-596h-366z" />
<glyph unicode="G" horiz-adv-x="1327" d="M57 686q0 115 22.5 219.5t68 193.5t112 159.5t156.5 117.5q80 41 154.5 57.5t170.5 16.5q141 0 267.5 -45t230.5 -135l-203 -228q-57 55 -133 83t-158 28q-145 0 -207.5 -106.5t-62.5 -346.5q0 -424 254 -424q35 0 70 4.5t63 16.5v225h-174l-41 291h582v-696 q-123 -76 -249 -109t-265 -33q-180 0 -305 58.5t-217 185.5q-72 102 -104 211t-32 256z" />
<glyph unicode="H" horiz-adv-x="1349" d="M162 0v1427h366v-524h293v524h367v-1427h-367v600h-293v-600h-366z" />
<glyph unicode="I" horiz-adv-x="698" d="M162 0v1427h375v-1427h-375z" />
<glyph unicode="J" horiz-adv-x="694" d="M-27 -209q66 45 104 87t56.5 92t23.5 118t5 164v1175h375v-1331q0 -92 -34 -170t-89.5 -139t-126 -105t-146.5 -71z" />
<glyph unicode="K" horiz-adv-x="1345" d="M162 0v1427h366v-1427h-366zM532 768l316 659h455l-375 -653l446 -774h-483z" />
<glyph unicode="L" horiz-adv-x="1003" d="M162 0v1427h370v-1124h486l-70 -303h-786z" />
<glyph unicode="M" horiz-adv-x="1794" d="M125 0l139 1427h449l139 -565q16 -59 26.5 -121.5t20.5 -148.5h2q4 41 10.5 75.5t12.5 68.5t14 69t18 78l146 544h434l131 -1427h-356l-35 575q-4 68 -7 131.5t-3 155.5h-2q-12 -92 -22.5 -151.5t-27.5 -116.5l-174 -594h-311l-151 578q-16 59 -27.5 124.5t-20.5 161.5 h-2q0 -96 -1 -161.5t-5 -133.5l-28 -569h-369z" />
<glyph unicode="N" horiz-adv-x="1390" d="M162 0v1427h352l260 -489q31 -57 61.5 -129t57.5 -143q-4 31 -6 71.5t-4 83.5t-2 86v78v442h348v-1427h-377l-252 496q-29 55 -58.5 126.5t-52.5 141.5q6 -41 13.5 -135t7.5 -228v-401h-348z" />
<glyph unicode="O" horiz-adv-x="1396" d="M57 678q0 190 49.5 334.5t137.5 243t207.5 147.5t261.5 49q182 0 303 -62.5t192.5 -162t101 -221t29.5 -238.5q0 -154 -27.5 -297t-100 -252.5t-197 -176.5t-314.5 -67q-156 0 -275.5 49.5t-201.5 141.5t-124 222t-42 290zM467 719q0 -137 16.5 -225t47 -139.5t75 -71 t101.5 -19.5t100 20.5t69.5 72t40 140.5t13.5 226q0 133 -13.5 219t-41 135t-70.5 68.5t-103 19.5q-125 0 -180 -120.5t-55 -325.5z" />
<glyph unicode="P" horiz-adv-x="1212" d="M162 0v1427h465q135 0 242.5 -23.5t181 -76.5t112.5 -137t39 -207q0 -80 -21.5 -164t-83 -152.5t-171 -113.5t-283.5 -45h-115v-508h-366zM528 799h107q43 0 74.5 7t52 27.5t31 56.5t10.5 95q0 88 -41 114.5t-107 26.5h-127v-327z" />
<glyph unicode="Q" horiz-adv-x="1396" d="M57 705q0 180 49.5 319t137.5 234.5t207.5 144.5t261.5 49q154 0 270.5 -48t196.5 -137t119.5 -216t39.5 -283q0 -154 -21.5 -266.5t-58 -194.5t-85 -135t-99.5 -88q37 -6 69 -25.5t67.5 -40t79.5 -37t104 -16.5h61l-90 -235q-20 -4 -43 -4h-51q-92 0 -155.5 29.5 t-120 69.5t-118 83t-147.5 67q-176 0 -303 50.5t-210 144.5t-122 229.5t-39 305.5zM467 719q0 -137 16.5 -225t47 -139.5t75 -71t101.5 -19.5t100 20.5t69.5 72t40 140.5t13.5 226q0 133 -13.5 219t-41 135t-70.5 68.5t-103 19.5q-125 0 -180 -120.5t-55 -325.5z" />
<glyph unicode="R" horiz-adv-x="1294" d="M162 0v1427h491q158 0 264.5 -30.5t171 -83.5t92 -129t27.5 -164q0 -92 -22.5 -162t-62.5 -119t-94 -78.5t-118 -39.5q37 -10 77 -54.5t67 -99.5q18 -37 46.5 -99.5t60.5 -131t60.5 -133t47.5 -103.5h-424l-150 399q-20 55 -37.5 88t-37 50.5t-41 22.5t-52.5 5v-565h-366 zM528 836h105q94 0 131 42t37 113q0 78 -42 106.5t-128 28.5h-103v-290z" />
<glyph unicode="S" horiz-adv-x="1253" d="M31 104l129 287q78 -45 184.5 -80t216.5 -35q109 0 155 36t46 96q0 47 -35 71.5t-109 44.5l-167 43q-78 20 -141.5 53t-109.5 82.5t-72 118t-26 160.5q0 106 41 193.5t115 148.5t175.5 95t221.5 34q150 0 282 -37t228 -102l-176 -260q-72 47 -160 73.5t-161 26.5 q-72 0 -109 -29.5t-37 -72.5q0 -35 30 -68t110 -53l145 -37q57 -14 122.5 -38t122 -67t93.5 -113.5t37 -176.5q0 -129 -45 -226.5t-128 -163t-198 -99.5t-254 -34q-162 0 -290 36t-236 93z" />
<glyph unicode="T" horiz-adv-x="1093" d="M23 1124v303h1077l-43 -303h-332v-1124h-371v1124h-331z" />
<glyph unicode="U" horiz-adv-x="1390" d="M158 457v970h368v-931q0 -98 37 -159t133 -61q98 0 133 54.5t35 158.5v938h367v-987q0 -92 -6 -142t-29 -93q-23 -45 -63.5 -86t-103 -73t-145.5 -51.5t-190 -19.5q-336 0 -467 179q-20 29 -33.5 53t-21.5 56t-11 77t-3 117z" />
<glyph unicode="V" horiz-adv-x="1236" d="M-45 1427h403l181 -567q10 -33 19 -61.5t16.5 -58t15.5 -65.5t16 -83h2q16 86 37 154.5t39 123.5l203 557h387l-504 -1427h-330z" />
<glyph unicode="W" horiz-adv-x="1796" d="M0 1427h387l80 -385q25 -121 41 -209t24.5 -149t12.5 -98t4 -58h2q6 86 24.5 215t47.5 289l73 395h408l92 -477q16 -82 33.5 -185t23.5 -235h2q2 47 11.5 119t20.5 148.5t24.5 149.5t23.5 126l72 354h391l-371 -1427h-391l-73 414q-12 63 -23.5 128.5t-21 126 t-16.5 109.5t-9 84h-2q-2 -27 -8 -74t-15.5 -107t-21.5 -129t-25 -138l-76 -414h-399z" />
<glyph unicode="X" horiz-adv-x="1239" d="M-10 0l444 741l-399 686h452l152 -346l149 346h441l-385 -663l424 -764h-445l-182 401l-186 -401h-465z" />
<glyph unicode="Y" horiz-adv-x="1171" d="M-51 1427h438l125 -303q12 -29 20.5 -51t16.5 -43.5t16 -46.5t19 -57q20 51 38.5 99t36.5 93l125 309h437l-457 -823v-604h-375v596z" />
<glyph unicode="Z" horiz-adv-x="1116" d="M70 0v250l473 766q23 37 46 73.5t40 51.5q-20 -8 -63.5 -11.5t-82.5 -3.5h-370l26 301h926v-256l-492 -802q-14 -23 -34.5 -44.5t-30.5 -31.5q25 6 70 9t86 3h409l-29 -305h-974z" />
<glyph unicode="[" horiz-adv-x="616" d="M20 -319v1818h492v-225h-180v-1368h180v-225h-492z" />
<glyph unicode="\" horiz-adv-x="884" d="M-33 1479l297 102l610 -1610l-294 -102z" />
<glyph unicode="]" horiz-adv-x="657" d="M100 -94h181v1368h-181v225h494v-1818h-494v225z" />
<glyph unicode="^" horiz-adv-x="1363" d="M168 797l309 653h418l309 -653h-385l-133 333l-137 -333h-381z" />
<glyph unicode="_" horiz-adv-x="1024" d="M0 -154h1024v-102h-1024v102z" />
<glyph unicode="`" horiz-adv-x="692" d="M39 1307l135 231l449 -248l-105 -180z" />
<glyph unicode="a" horiz-adv-x="1073" d="M61 317q0 76 32 138.5t92.5 108.5t147.5 72t197 26h31t29 -3v66q0 47 -13.5 72.5t-72.5 25.5q-90 0 -162 -29.5t-139 -80.5l-129 221q98 59 221 104t254 45q152 0 252 -49t129 -143q10 -35 13 -70t3 -94l-4 -365q0 -66 13.5 -119t68.5 -87l-205 -199q-39 12 -79 46 t-52 58q-39 -33 -104.5 -60.5t-159.5 -27.5q-98 0 -167 28t-113 74t-63.5 108.5t-19.5 133.5zM408 322q0 -47 25.5 -75t72.5 -28q23 0 48.5 11.5t35.5 23.5v184h-19q-42 0 -72 -7q-36 -9 -56.5 -26.5t-27.5 -39t-7 -43.5z" />
<glyph unicode="b" horiz-adv-x="1122" d="M98 1444l361 61q8 -39 15 -94t7 -108v-162q0 -31 -2 -68t-6 -49q23 20 70 39.5t116 19.5q92 0 169 -32.5t131.5 -98t85 -165t30.5 -232.5q0 -160 -50 -289t-155 -211q-59 -47 -114.5 -64.5t-120.5 -17.5q-72 0 -124 27t-85 66q-2 -16 -7 -35t-13 -31h-306q16 35 20.5 84 t4.5 119v948q0 94 -5 158.5t-22 134.5zM481 303q14 -12 34 -23.5t54 -11.5q68 0 96.5 61t28.5 208q0 78 -7 128t-22.5 79.5t-38 41t-53.5 11.5q-41 0 -61 -18.5t-31 -33.5v-442z" />
<glyph unicode="c" horiz-adv-x="901" d="M47 518q0 268 133 416.5t373 148.5q98 0 173 -29.5t153 -95.5l-164 -215q-31 33 -72 55.5t-78 22.5q-31 0 -55.5 -10t-40.5 -41t-24.5 -86t-8.5 -143q0 -162 23.5 -232.5t101.5 -70.5q59 0 108.5 26.5t86.5 67.5l149 -209q-86 -86 -183 -118t-196 -32q-221 0 -350 138.5 t-129 406.5z" />
<glyph unicode="d" horiz-adv-x="1112" d="M47 508q0 117 26.5 221.5t83 183t142.5 124.5t203 46q39 0 79 -11t62 -25q-2 12 -4 31.5t-4 43t-3 48t-1 44.5v285l356 -47v-1032q0 -100 2 -167t6 -113t11.5 -77.5t19.5 -62.5h-309q-8 18 -11.5 33.5t-5.5 29.5q-37 -43 -93 -66.5t-136 -23.5q-205 0 -314.5 140.5 t-109.5 394.5zM434 502q0 -57 4 -104.5t16.5 -82t36 -54t62.5 -19.5q29 0 48.5 10t29.5 24v492q-8 16 -29.5 28.5t-46.5 12.5q-35 0 -58.5 -14.5t-37 -49t-19.5 -94t-6 -149.5z" />
<glyph unicode="e" horiz-adv-x="1048" d="M47 522q0 131 33 234.5t95.5 176.5t151.5 111.5t201 38.5q254 1 367 -153q111 -151 111 -417v-9v-88h-590q0 -25 6 -57.5t23.5 -63.5t51 -51.5t89.5 -20.5q141 0 278 107l137 -205q-106 -82 -208.5 -117t-221.5 -35q-256 0 -390 145.5t-134 403.5zM416 647h237q1 12 1 23 q0 72 -22 116q-26 50 -91 50q-57 0 -91 -41t-34 -148z" />
<glyph unicode="f" horiz-adv-x="716" d="M49 823v234h90q-4 29 -5 62.5t-1 64.5q0 115 39 182.5t95.5 103t121 46t113.5 10.5q82 0 142.5 -11.5t119.5 -44.5l-84 -223q-18 10 -46 17.5t-56 7.5q-33 0 -57.5 -20.5t-24.5 -55.5v-139h223l-47 -234h-176v-823h-357v823h-90z" />
<glyph unicode="g" horiz-adv-x="1153" d="M66 -137q0 35 4 71.5t10 65.5h319q-2 -16 -2 -32.5v-30.5q0 -90 178 -91q94 0 141.5 34t47.5 81q0 29 -9.5 46.5t-31 27.5t-58 13t-94.5 3h-186q-129 0 -202.5 52.5t-73.5 152.5q0 55 32.5 111.5t98.5 85.5q-152 78 -152 268q0 84 34 150.5t97.5 113.5t152.5 72.5 t199 25.5q68 0 112 -7t78 -15t63.5 -15.5t64.5 -7.5q57 0 102 20.5t80 49.5l96 -248q-29 -16 -76 -30q-25 -7 -47 -7q-19 0 -36 6q12 -10 31.5 -45.5t19.5 -83.5q0 -76 -35 -136t-95.5 -102t-139 -64.5t-164.5 -22.5h-115q-10 -10 -16.5 -18.5t-6.5 -18.5q0 -16 27 -24.5 t68 -8.5h153q188 0 287.5 -82t99.5 -223q0 -90 -33.5 -166t-104.5 -131t-179.5 -87t-255.5 -32q-131 0 -222 23.5t-149.5 62.5t-85 89.5t-26.5 103.5zM446 721q0 -117 121 -117q59 0 93 28t34 89t-32.5 91t-92.5 30q-59 0 -91 -30t-32 -91z" />
<glyph unicode="h" d="M98 1444l361 61q12 -55 17 -118.5t5 -129.5v-167q0 -33 -1 -51.5t-1 -34.5q41 37 100.5 58t145.5 21q61 0 118.5 -12t101.5 -46t70.5 -94.5t26.5 -156.5v-774h-356v694q0 66 -11 88.5t-69 22.5q-35 0 -68.5 -21.5t-56.5 -44.5v-739h-356v1182q0 57 -5 133t-22 129z" />
<glyph unicode="i" horiz-adv-x="606" d="M98 1335q0 41 16.5 78t45 64.5t66.5 43t81 15.5q86 0 143.5 -58.5t57.5 -142.5q0 -41 -16.5 -77.5t-44 -64.5t-65.5 -43t-81 -15q-41 0 -78 15t-64.5 43t-44 64.5t-16.5 77.5zM125 0v1040l356 33v-1073h-356z" />
<glyph unicode="j" horiz-adv-x="608" d="M10 -297q31 25 53.5 53.5t37 64.5t20.5 82t6 107v1030l356 33v-1038q0 -113 -15 -192t-53 -137t-102.5 -102t-160.5 -85zM90 1335q0 41 16.5 78t45 64.5t66.5 43t81 15.5q86 0 143.5 -58.5t57.5 -142.5q0 -41 -16.5 -77.5t-44 -64.5t-65.5 -43t-81 -15q-41 0 -78 15 t-64.5 43t-44 64.5t-16.5 77.5z" />
<glyph unicode="k" horiz-adv-x="1140" d="M104 1444l355 61q6 -31 10 -64.5t7 -76.5t4 -99.5t1 -131.5v-1133h-356v1130q0 104 -4 184.5t-17 129.5zM483 598l187 459h417l-288 -430l356 -627h-399z" />
<glyph unicode="l" horiz-adv-x="663" d="M111 1446l352 59q8 -47 12 -114.5t4 -149.5v-784q0 -70 2 -116t11.5 -72.5t26 -37t46.5 -10.5q18 0 37 6l57 -221q-35 -14 -95 -23.5t-134 -9.5q-113 0 -175 28t-91 77t-35 115.5t-6 146.5v721v106.5t-1 107.5t-3 96t-8 75z" />
<glyph unicode="m" horiz-adv-x="1646" d="M92 1026l328 55q8 -29 13 -51t7 -51q55 49 122 76.5t134 27.5q86 0 141.5 -31.5t96.5 -82.5q63 57 137 85.5t166 28.5q55 0 106.5 -12t91.5 -46t64.5 -95.5t24.5 -159.5v-770h-342v653q0 53 -3 83t-11.5 45.5t-24 18.5t-37.5 3q-16 0 -51 -12.5t-64 -28.5v-762h-334v655 q0 51 -2 82t-9 47.5t-21.5 20.5t-38.5 4q-25 0 -58.5 -12.5t-56.5 -28.5v-768h-346v672q0 96 -6 182t-27 172z" />
<glyph unicode="n" d="M92 1026l328 55q6 -18 12 -45.5t8 -52.5q53 39 127 69.5t178 30.5q92 0 150.5 -24.5t91.5 -65.5t44 -93t11 -107v-793h-356v676q0 43 -6 66.5t-18.5 33.5t-29 12.5t-34.5 2.5q-20 0 -50 -14.5t-67 -47.5v-729h-356v672q0 96 -6 182t-27 172z" />
<glyph unicode="o" horiz-adv-x="1087" d="M47 524q0 123 36 226.5t102.5 177t160.5 114.5t211 41q98 0 185 -29.5t154 -93t105.5 -164t38.5 -241.5q0 -158 -43 -267.5t-113.5 -180t-161.5 -102.5t-185 -32q-229 0 -359.5 143.5t-130.5 407.5zM432 518q0 -154 18.5 -224.5t94.5 -70.5q63 0 86.5 77t23.5 265 q0 80 -6 132.5t-19.5 83t-34.5 43t-52 12.5q-29 0 -49.5 -12.5t-34 -48.5t-20.5 -97.5t-7 -159.5z" />
<glyph unicode="p" horiz-adv-x="1126" d="M92 1026l328 55q16 -47 22 -94q8 16 30 33.5t51.5 31t65.5 22.5t75 9q139 0 221 -51t125 -126t56 -163t13 -161q0 -309 -117.5 -459t-330.5 -150q-47 0 -88 9.5t-78 25.5q8 -23 12 -59.5t4 -102.5v-217l-356 -96v1139q0 96 -6 182t-27 172zM481 283q4 -12 22.5 -20.5 t45.5 -8.5q31 0 58.5 7t48 37t31.5 89t11 164q0 125 -18 191.5t-88 66.5q-43 0 -69.5 -15.5t-41.5 -37.5v-473z" />
<glyph unicode="q" horiz-adv-x="1118" d="M47 526q0 135 38 238.5t99.5 174.5t140 107.5t160.5 36.5q72 0 123 -28.5t76 -73.5q6 43 18 76h310q-10 -43 -14.5 -117t-4.5 -209v-1118l-356 -94v393q0 29 2 55.5t6 48.5q-23 -16 -69 -29.5t-115 -13.5q-211 0 -312.5 144.5t-101.5 408.5zM428 537q0 -141 21.5 -210 t99.5 -69q37 0 59.5 19.5t28.5 31.5v439q-10 18 -27.5 29t-50.5 11q-27 0 -50.5 -6t-41.5 -30.5t-28.5 -75.5t-10.5 -139z" />
<glyph unicode="r" horiz-adv-x="774" d="M92 1026l328 55q8 -29 15 -60.5t7 -64.5q16 20 36 44t46.5 43.5t59 31.5t75.5 12q39 0 68 -7t66 -23l-82 -287q-29 16 -51.5 22.5t-53.5 6.5q-47 0 -76.5 -21.5t-48.5 -54.5v-723h-356v643q0 102 -5 199.5t-28 183.5z" />
<glyph unicode="s" horiz-adv-x="1007" d="M23 106l124 259q27 -16 69 -39t91 -44.5t98.5 -37t88.5 -15.5q47 0 78.5 26t31.5 54q0 43 -30.5 61.5t-108.5 35.5l-137 28q-129 27 -188.5 101.5t-59.5 187.5q0 82 30.5 148.5t87 113.5t137.5 72.5t179 25.5q78 0 138.5 -10t109.5 -26.5t90 -36t80 -35.5l-111 -221 q-78 41 -142.5 59t-117.5 18q-41 0 -66.5 -16t-25.5 -43q0 -29 22.5 -49.5t88.5 -34.5l131 -29q141 -31 201.5 -107.5t60.5 -201.5q0 -86 -36 -155.5t-100.5 -118.5t-154.5 -76t-201 -27q-115 0 -226.5 35t-231.5 98z" />
<glyph unicode="t" horiz-adv-x="770" d="M51 823v234h86q0 78 2 143.5t11 118.5l354 53q-10 -86 -10 -164v-151h194l-47 -234h-147v-426q0 -55 4 -90t16 -55.5t33.5 -27.5t56.5 -7q53 0 90 21l43 -205q-68 -33 -135 -47.5t-133 -14.5q-74 0 -135.5 11.5t-105.5 40t-67.5 78t-23.5 126.5v596h-86z" />
<glyph unicode="u" d="M123 414v614l356 57v-766q0 -49 23.5 -64t70.5 -15q27 0 58 14t53 39v735l356 57v-761q0 -82 15.5 -140.5t38.5 -99.5l-310 -111q-18 23 -28.5 51.5t-16.5 45.5q-47 -41 -112.5 -69t-151.5 -28q-147 0 -225 46.5t-107 138.5q-12 41 -16 96t-4 160z" />
<glyph unicode="v" horiz-adv-x="966" d="M-43 1036l360 35l95 -315q14 -47 35.5 -133t39.5 -172h5q10 78 28.5 163.5t40.5 163.5l80 279h365l-383 -1057h-275z" />
<glyph unicode="w" horiz-adv-x="1478" d="M0 1032l348 39l53 -328q12 -78 27.5 -170t26.5 -184h2q6 80 24.5 176.5t40.5 200.5l66 291h317l84 -379q14 -63 26.5 -134t20.5 -149h2q8 88 18.5 177.5t26.5 185.5l50 299h360l-305 -1057h-318l-86 395q-16 74 -26 147.5t-15 125.5q-6 -57 -16 -125t-33 -158l-90 -385 h-313z" />
<glyph unicode="x" horiz-adv-x="1058" d="M-57 0l364 551l-303 469l385 74l80 -140q20 -35 36.5 -77.5t26.5 -83.5h3q2 23 15 75t38 99l47 90h418l-318 -496l359 -561h-453l-76 164q-12 25 -28.5 63.5t-18.5 55.5h-4q-12 -72 -72 -172l-63 -111h-436z" />
<glyph unicode="y" horiz-adv-x="1083" d="M-29 1047l365 26l158 -553q16 -53 28.5 -108.5t20.5 -108.5h2q10 82 28.5 169t42.5 159l142 426h360l-401 -1059q-45 -117 -88 -204t-102.5 -145.5t-142.5 -91t-208 -42.5l-125 229q80 18 134.5 37.5t93 47.5t68.5 69t61 102h-99q-10 55 -31.5 133t-44.5 139z" />
<glyph unicode="z" horiz-adv-x="970" d="M66 0v240l411 563h-397v254h823v-254l-403 -543h422l-33 -260h-823z" />
<glyph unicode="{" horiz-adv-x="878" d="M158 455v274q82 0 109.5 25.5t27.5 97.5v322q0 184 78 254.5t219 70.5h162v-309h-47q-35 0 -54.5 -12.5t-29 -28.5t-12.5 -34.5t-3 -33.5v-309q0 -70 -18.5 -106.5t-43 -53t-49 -18.5t-38.5 -2v-4q14 0 38.5 -3t49 -19.5t43 -52.5t18.5 -99v-316q0 -14 4 -32.5t14.5 -36 t30 -28.5t50.5 -11h47v-309h-162q-66 0 -120 17t-94 55t-61.5 100.5t-21.5 154.5v320q0 84 -31 105.5t-106 21.5z" />
<glyph unicode="|" horiz-adv-x="454" d="M57 -37v1585h340v-1585h-340z" />
<glyph unicode="}" horiz-adv-x="884" d="M160 -10h47q31 0 50 11t29.5 28.5t14.5 36t4 32.5v316q0 63 18.5 99t43 52.5t49 19.5t39.5 3v4q-14 0 -39 2t-49.5 18.5t-43 53t-18.5 106.5v309q0 14 -3 33t-12 35t-29.5 28.5t-53.5 12.5h-47v309h162q141 0 218.5 -70.5t77.5 -254.5v-322q0 -72 28 -97.5t110 -25.5 v-274q-39 0 -64.5 -4.5t-42 -17.5t-24 -37.5t-7.5 -67.5v-320q0 -92 -21.5 -154.5t-61 -100.5t-94 -55t-119.5 -17h-162v309z" />
<glyph unicode="~" horiz-adv-x="1363" d="M205 752q37 35 98.5 66.5t159.5 31.5q70 0 122 -18.5t100 -40t98.5 -40t111.5 -18.5q57 0 109.5 24.5t89.5 69.5l69 -319q-86 -115 -262 -115q-80 0 -136 18.5t-103.5 41t-91.5 41t-99 18.5q-57 0 -100 -18.5t-88 -57.5z" />
<glyph unicode="&#xa1;" horiz-adv-x="647" d="M117 -37l69 1049h267l77 -989zM121 1270q0 41 16.5 76.5t44 62.5t64.5 42t80 15q39 0 74.5 -15t61 -42t41 -63.5t15.5 -77.5q0 -84 -58.5 -142.5t-142.5 -58.5q-41 0 -75.5 15.5t-62 43t-43 64.5t-15.5 80z" />
<glyph unicode="&#xa2;" horiz-adv-x="937" d="M53 518q0 221 92.5 362.5t264.5 184.5v248h254v-240q59 -12 112 -39.5t109 -75.5l-164 -215q-31 33 -72 55.5t-78 22.5q-31 0 -55 -10t-40.5 -41t-25 -86t-8.5 -143q0 -162 23.5 -232.5t101.5 -70.5q59 0 108.5 26.5t86.5 67.5l149 -209q-57 -57 -119.5 -89t-127.5 -46 v-256h-254v254q-166 35 -261.5 168t-95.5 364z" />
<glyph unicode="&#xa3;" horiz-adv-x="1214" d="M96 0v270h142v344h-142v258h142v134q0 76 27.5 157.5t92 149t171 110.5t264.5 43q117 0 212 -22.5t183 -85.5l-195 -256q-39 29 -85 42t-87 13q-51 0 -87 -13.5t-57.5 -36t-30.5 -50t-9 -58.5v-127h293v-258h-293v-344h496v-270h-1037z" />
<glyph unicode="&#xa4;" horiz-adv-x="985" d="M31 883l313 164q43 -66 61.5 -92.5t30.5 -47.5q18 4 45 3t45 -5q6 14 23.5 46t64.5 98l304 -168l-99 -138q47 -68 47 -188q0 -100 -51 -184l107 -142l-314 -163q-45 63 -63.5 90.5t-30.5 50.5q-47 -6 -90 0q-10 -25 -37 -69t-49 -72l-305 163l98 138q-25 41 -35 88 t-10 96q0 109 49 188zM389 559q0 -78 20.5 -112.5t63.5 -34.5q47 0 64.5 35.5t17.5 113.5q0 74 -16.5 107.5t-65.5 33.5q-47 0 -65.5 -34.5t-18.5 -108.5z" />
<glyph unicode="&#xa5;" horiz-adv-x="1183" d="M-51 1427h438l125 -303q12 -29 20.5 -51t16.5 -43.5t16 -46.5t19 -57q20 51 38.5 99t36.5 93l125 309h437l-310 -557h164v-272h-311v-117h311v-272h-311v-209h-375v209h-313v272h313l-2 117h-311v272h168z" />
<glyph unicode="&#xa7;" horiz-adv-x="1337" d="M70 -37l342 162q12 -47 33.5 -77t49 -46t56.5 -23.5t57 -7.5q18 0 40 2t40.5 8.5t30.5 18.5t12 35q0 25 -18.5 42t-47 31.5t-65.5 28t-76 29.5l-164 67q-127 53 -186 145.5t-59 188.5t39 168t110 125q-47 41 -73.5 99.5t-26.5 123.5q0 94 43 164t112.5 116t155.5 68.5 t170 22.5q70 0 144.5 -12t143 -42t127 -81t99.5 -131l-334 -184q-31 78 -74.5 107.5t-93.5 29.5q-33 0 -62.5 -14.5t-29.5 -49.5q0 -31 28 -51t69 -37l204 -84q63 -27 125 -59.5t109 -75.5t75.5 -98t28.5 -127q0 -78 -41 -147.5t-106 -114.5q43 -47 65.5 -105.5t22.5 -120.5 q0 -104 -51.5 -180t-131 -125t-176 -71.5t-186.5 -22.5q-82 0 -158.5 14.5t-144.5 49t-126 93t-101 148.5zM479 623q0 -29 13.5 -48.5t34 -33t45 -23.5t46.5 -20l189 -82q33 24 33 73q0 23 -10.5 39.5t-27 28.5t-35.5 21.5t-38 17.5l-215 96q-35 -25 -35 -69z" />
<glyph unicode="&#xa8;" horiz-adv-x="1019" d="M119 1331q0 37 14 68t38 54.5t55.5 36.5t66.5 13q37 0 70.5 -13t59.5 -36.5t40 -54.5t14 -68q0 -72 -52 -120t-124 -48q-37 0 -69.5 13.5t-58.5 36t-40 53t-14 65.5zM575 1331q0 72 50.5 122t122.5 50q39 0 72.5 -13t58 -36.5t39 -54.5t14.5 -68q0 -35 -14.5 -65.5 t-38 -53t-55 -36t-68.5 -13.5q-76 0 -128.5 48t-52.5 120z" />
<glyph unicode="&#xa9;" horiz-adv-x="1638" d="M57 725q0 154 59.5 292t163 242.5t243 166t296.5 61.5q160 0 298 -61.5t241.5 -166t163 -242.5t59.5 -292t-59.5 -292t-163 -242.5t-241.5 -166t-298 -61.5q-158 0 -297 61.5t-242.5 166t-163 242.5t-59.5 292zM315 725q0 -106 40 -201.5t108.5 -168t161 -115.5 t194.5 -43q104 0 195.5 43t160 115.5t108.5 168t40 201.5t-40 201.5t-108.5 168t-159.5 115.5t-196 43q-102 0 -194.5 -43t-161 -115.5t-108.5 -168t-40 -201.5zM449 707q0 92 27.5 167.5t77.5 129t122 82t158 28.5q66 0 129 -20.5t114 -63.5l-119 -174q-35 29 -62.5 40 t-57.5 11q-63 0 -83 -35.5t-20 -119.5q0 -113 17.5 -162t91.5 -49q70 0 125 61l129 -162q-66 -57 -129.5 -84.5t-149.5 -27.5q-74 0 -140.5 22.5t-117.5 68.5t-81.5 117.5t-30.5 170.5z" />
<glyph unicode="&#xaa;" horiz-adv-x="905" d="M23 471v217h819v-217h-819zM55 1004q0 51 16.5 99t58.5 85t111.5 59.5t176.5 22.5h39v30q0 49 -12.5 62.5t-57.5 13.5q-41 0 -93 -19.5t-122 -66.5l-106 185q18 10 53 29.5t82 38t103 32.5t118 14q49 0 101 -9t94 -33.5t68 -66.5t26 -108l-2 -309q0 -35 3 -59.5t12 -45 t24.5 -38t42.5 -37.5l-148 -148q-35 16 -61.5 37t-42.5 45q-35 -35 -81 -55.5t-116 -20.5q-137 0 -212 71t-75 192zM334 1018q0 -76 63 -76q39 0 56 29l2 127q-76 0 -98.5 -22.5t-22.5 -57.5z" />
<glyph unicode="&#xab;" horiz-adv-x="1155" d="M0 522l348 508l236 -160l-236 -348l236 -348l-236 -158zM573 522l349 508l235 -160l-235 -348l235 -348l-235 -158z" />
<glyph unicode="&#xac;" horiz-adv-x="1196" d="M78 379v276h977v-563h-326v287h-651z" />
<glyph unicode="&#xad;" horiz-adv-x="741" d="M92 424v293h559v-293h-559z" />
<glyph unicode="&#xae;" horiz-adv-x="1638" d="M57 725q0 154 59.5 292t163 242.5t243 166t296.5 61.5q160 0 298 -61.5t241.5 -166t163 -242.5t59.5 -292t-59.5 -292t-163 -242.5t-241.5 -166t-298 -61.5q-158 0 -297 61.5t-242.5 166t-163 242.5t-59.5 292zM315 725q0 -106 40 -201.5t108.5 -168t161 -115.5 t194.5 -43q104 0 195.5 43t160 115.5t108.5 168t40 201.5t-40 201.5t-108.5 168t-159.5 115.5t-196 43q-102 0 -194.5 -43t-161 -115.5t-108.5 -168t-40 -201.5zM522 373v739h365q45 0 88 -13.5t75.5 -41t52 -67.5t19.5 -93q0 -100 -45 -150.5t-102 -64.5q41 -8 67.5 -33.5 t53.5 -103.5l57 -172h-266q-8 27 -16.5 59.5t-16.5 65t-17.5 61.5t-19.5 47q-18 33 -45 33h-8v-266h-242zM764 821h45q45 0 45 51q0 23 -11.5 37.5t-33.5 14.5h-45v-103z" />
<glyph unicode="&#xaf;" horiz-adv-x="798" d="M53 1339v195h701v-195h-701z" />
<glyph unicode="&#xb0;" horiz-adv-x="815" d="M45 1114q0 78 27.5 141.5t77 107.5t116 67.5t146.5 23.5q78 0 143.5 -18.5t113.5 -57.5t74.5 -100t26.5 -150q0 -162 -97.5 -254t-269.5 -92q-162 0 -260 78t-98 254zM328 1114q0 -90 18.5 -120.5t61.5 -30.5q45 0 62 32.5t17 128.5q0 88 -16 121t-63 33q-49 0 -64.5 -34 t-15.5 -130z" />
<glyph unicode="&#xb1;" horiz-adv-x="1001" d="M27 565v289h307v287h323v-287h308v-289h-308v-297h-323v297h-307zM31 -49v274h930v-274h-930z" />
<glyph unicode="&#xb4;" horiz-adv-x="692" d="M55 1290l447 248l139 -231l-473 -197z" />
<glyph unicode="&#xb6;" horiz-adv-x="1284" d="M100 1065q0 104 36 175t100.5 112t153.5 58t196 17h585v-1685h-239v1501h-141v-1501h-240v956q-236 0 -343.5 96.5t-107.5 270.5z" />
<glyph unicode="&#xb7;" horiz-adv-x="673" d="M102 555q0 43 17.5 83t46.5 69.5t68.5 47t84.5 17.5t83 -17.5t67 -48t45 -70.5t16 -85q0 -43 -17 -81t-46 -67.5t-70 -46t-86 -16.5q-43 0 -82 16.5t-66.5 46t-44 68.5t-16.5 84z" />
<glyph unicode="&#xb8;" horiz-adv-x="878" d="M268 -369l66 127q45 -23 98 -22q68 0 68 49t-68 49q-18 0 -32.5 -1t-24.5 -3l-21 35l56 176l161 -21l-32 -71q74 -6 115.5 -48.5t41.5 -101.5q0 -37 -13 -74.5t-42 -67.5t-76 -48.5t-116 -18.5q-47 0 -97.5 12.5t-83.5 28.5z" />
<glyph unicode="&#xba;" horiz-adv-x="870" d="M23 471v217h819v-217h-819zM37 1163q0 94 28.5 173t81 135.5t124 87t159.5 30.5q63 0 134 -19.5t130.5 -66.5t97 -129t37.5 -207q0 -80 -22.5 -155.5t-69.5 -136t-123.5 -97.5t-183.5 -37q-88 0 -160.5 30t-124 85t-80 133t-28.5 174zM352 1167q0 -104 19.5 -152 t70.5 -48q35 0 54.5 48t19.5 154q0 61 -5 98.5t-16.5 59t-26.5 28.5t-34 7q-43 0 -62.5 -45t-19.5 -150z" />
<glyph unicode="&#xbb;" horiz-adv-x="1155" d="M0 174l236 348l-236 348l236 160l348 -508l-348 -506zM573 174l236 348l-236 348l236 160l348 -508l-348 -506z" />
<glyph unicode="&#xbf;" horiz-adv-x="1073" d="M104 326q0 117 50.5 195.5t136.5 129.5q61 37 98 75t55.5 81t22.5 93t2 112h299q14 -92 9 -163t-28.5 -128t-64.5 -103.5t-98 -87.5q-66 -47 -93.5 -77.5t-27.5 -77.5q0 -57 38 -82t101 -25q37 0 69 10.5t56.5 23.5t41.5 28.5t28 27.5l157 -219q-78 -72 -175 -119 t-238 -47q-88 0 -168 22.5t-139.5 66.5t-95.5 110t-36 154zM403 1270q0 41 16.5 76.5t44.5 62.5t64.5 42t79.5 15q39 0 75 -15t61.5 -42t41 -63.5t15.5 -77.5q0 -84 -58.5 -142.5t-142.5 -58.5q-41 0 -76 15.5t-62.5 43t-43 64.5t-15.5 80z" />
<glyph unicode="&#xc0;" horiz-adv-x="1220" d="M-29 0l459 1427h381l432 -1427h-397l-74 274h-338l-78 -274h-385zM215 1651l135 231l449 -248l-105 -180zM514 557h184l-61 260q-10 47 -17.5 103.5t-9.5 97.5q-4 -41 -12 -98.5t-27 -128.5z" />
<glyph unicode="&#xc1;" horiz-adv-x="1220" d="M-29 0l459 1427h381l432 -1427h-397l-74 274h-338l-78 -274h-385zM340 1634l447 248l139 -231l-473 -197zM514 557h184l-61 260q-10 47 -17.5 103.5t-9.5 97.5q-4 -41 -12 -98.5t-27 -128.5z" />
<glyph unicode="&#xc2;" horiz-adv-x="1220" d="M-29 0l459 1427h381l432 -1427h-397l-74 274h-338l-78 -274h-385zM228 1637l391 243l387 -243l-115 -191l-285 144l-276 -144zM514 557h184l-61 260q-10 47 -17.5 103.5t-9.5 97.5q-4 -41 -12 -98.5t-27 -128.5z" />
<glyph unicode="&#xc3;" horiz-adv-x="1220" d="M-29 0l459 1427h381l432 -1427h-397l-74 274h-338l-78 -274h-385zM256 1733q47 59 104.5 90t134.5 31q49 0 82 -11.5t63 -24.5t60.5 -24.5t73.5 -11.5q45 0 87 18.5t62 40.5l93 -215q-45 -55 -104.5 -83.5t-147.5 -28.5q-47 0 -79 12t-60.5 25.5t-59.5 26t-76 12.5 q-41 0 -77.5 -16.5t-65.5 -45.5zM514 557h184l-61 260q-10 47 -17.5 103.5t-9.5 97.5q-4 -41 -12 -98.5t-27 -128.5z" />
<glyph unicode="&#xc4;" horiz-adv-x="1220" d="M-29 0l459 1427h381l432 -1427h-397l-74 274h-338l-78 -274h-385zM219 1659q0 37 14 68t38 54.5t55.5 36.5t66.5 13q37 0 70.5 -13t59.5 -36.5t40 -54.5t14 -68q0 -72 -52 -120t-124 -48q-37 0 -69.5 13.5t-58.5 36t-40 53t-14 65.5zM514 557h184l-61 260 q-10 47 -17.5 103.5t-9.5 97.5q-4 -41 -12 -98.5t-27 -128.5zM675 1659q0 72 50.5 122t122.5 50q39 0 72.5 -13t58 -36.5t39 -54.5t14.5 -68q0 -35 -14.5 -65.5t-38 -53t-55 -36t-68.5 -13.5q-76 0 -128.5 48t-52.5 120z" />
<glyph unicode="&#xc5;" horiz-adv-x="1220" d="M-29 0l459 1427h381l432 -1427h-397l-74 274h-338l-78 -274h-385zM373 1692q0 45 19.5 84t53 68.5t76.5 47t93 17.5q49 0 91 -17.5t74.5 -47t51 -68.5t18.5 -84t-19.5 -84t-52 -69t-75.5 -47t-88 -17q-51 0 -95.5 17t-77 47t-51 69t-18.5 84zM514 557h184l-61 260 q-10 47 -17.5 103.5t-9.5 97.5q-4 -41 -12 -98.5t-27 -128.5zM527 1692q0 -37 24.5 -61.5t58.5 -24.5q39 0 63 24.5t24 61.5t-25 61.5t-55 24.5q-41 0 -65.5 -25t-24.5 -61z" />
<glyph unicode="&#xc6;" horiz-adv-x="1730" d="M-129 0l834 1427h886l-47 -301h-426v-239h357v-291h-357v-291h500v-305h-866v274h-330l-139 -274h-412zM569 557h183v291v45t2 41h-4q-23 -68 -73 -171.5t-108 -205.5z" />
<glyph unicode="&#xc7;" horiz-adv-x="1120" d="M57 686q0 135 22.5 239.5t76.5 202.5q92 168 240.5 246t336.5 78q55 0 109.5 -7t102.5 -21.5t88 -33t65 -42.5l-156 -271q-98 76 -213 76q-47 0 -89 -13.5t-71 -41.5q-27 -27 -44 -55.5t-28.5 -65.5t-15.5 -83t-4 -110q0 -176 12.5 -271t57.5 -146q35 -41 80 -66t102 -25 q70 0 128 20.5t118 74.5l158 -250q-68 -63 -177.5 -104.5t-267.5 -41.5q-133 0 -251 44t-216 153q-86 94 -125 227t-39 287zM475 -369l66 127q45 -23 98 -22q68 0 68 49t-68 49q-18 0 -32.5 -1t-24.5 -3l-21 35l56 176l161 -21l-32 -71q74 -6 115.5 -48.5t41.5 -101.5 q0 -37 -13 -74.5t-42 -67.5t-76 -48.5t-116 -18.5q-47 0 -97.5 12.5t-83.5 28.5z" />
<glyph unicode="&#xc8;" horiz-adv-x="1095" d="M162 0v1427h829l-26 -301h-437v-239h357v-291h-357v-291h490v-305h-856zM217 1651l135 231l449 -248l-105 -180z" />
<glyph unicode="&#xc9;" horiz-adv-x="1095" d="M162 0v1427h829l-26 -301h-437v-239h357v-291h-357v-291h490v-305h-856zM327 1634l447 248l139 -231l-473 -197z" />
<glyph unicode="&#xca;" horiz-adv-x="1095" d="M162 0v1427h829l-26 -301h-437v-239h357v-291h-357v-291h490v-305h-856zM166 1637l391 243l387 -243l-115 -191l-285 144l-276 -144z" />
<glyph unicode="&#xcb;" horiz-adv-x="1095" d="M162 0v1427h829l-26 -301h-437v-239h357v-291h-357v-291h490v-305h-856zM174 1667q0 37 14 68t38 54.5t55.5 36.5t66.5 13q37 0 70.5 -13t59.5 -36.5t40 -54.5t14 -68q0 -72 -52 -120t-124 -48q-37 0 -69.5 13.5t-58.5 36t-40 53t-14 65.5zM630 1667q0 72 50.5 122 t122.5 50q39 0 72.5 -13t58 -36.5t39 -54.5t14.5 -68q0 -35 -14.5 -65.5t-38 -53t-55 -36t-68.5 -13.5q-76 0 -128.5 48t-52.5 120z" />
<glyph unicode="&#xcc;" horiz-adv-x="698" d="M39 1651l135 231l449 -248l-105 -180zM162 0v1427h375v-1427h-375z" />
<glyph unicode="&#xcd;" horiz-adv-x="698" d="M104 1634l447 248l139 -231l-473 -197zM162 0v1427h375v-1427h-375z" />
<glyph unicode="&#xce;" horiz-adv-x="698" d="M-34 1637l391 243l387 -243l-115 -191l-285 144l-276 -144zM162 0v1427h375v-1427h-375z" />
<glyph unicode="&#xcf;" horiz-adv-x="698" d="M-41 1665q0 37 14 68t38 54.5t55.5 36.5t66.5 13q37 0 70.5 -13t59.5 -36.5t40 -54.5t14 -68q0 -72 -52 -120t-124 -48q-37 0 -69.5 13.5t-58.5 36t-40 53t-14 65.5zM162 0v1427h375v-1427h-375zM415 1665q0 72 50.5 122t122.5 50q39 0 72.5 -13t58 -36.5t39 -54.5 t14.5 -68q0 -35 -14.5 -65.5t-38 -53t-55 -36t-68.5 -13.5q-76 0 -128.5 48t-52.5 120z" />
<glyph unicode="&#xd1;" horiz-adv-x="1390" d="M162 0v1427h352l260 -489q31 -57 61.5 -129t57.5 -143q-4 31 -6 71.5t-4 83.5t-2 86v78v442h348v-1427h-377l-252 496q-29 55 -58.5 126.5t-52.5 141.5q6 -41 13.5 -135t7.5 -228v-401h-348zM314 1710q47 59 104.5 90t134.5 31q49 0 82 -11.5t63 -24.5t60.5 -24.5 t73.5 -11.5q45 0 87 18.5t62 40.5l93 -215q-45 -55 -104.5 -83.5t-147.5 -28.5q-47 0 -79 12t-60.5 25.5t-59.5 26t-76 12.5q-41 0 -77.5 -16.5t-65.5 -45.5z" />
<glyph unicode="&#xd2;" horiz-adv-x="1396" d="M57 678q0 190 49.5 334.5t137.5 243t207.5 147.5t261.5 49q182 0 303 -62.5t192.5 -162t101 -221t29.5 -238.5q0 -154 -27.5 -297t-100 -252.5t-197 -176.5t-314.5 -67q-156 0 -275.5 49.5t-201.5 141.5t-124 222t-42 290zM375 1651l135 231l449 -248l-105 -180zM467 719 q0 -137 16.5 -225t47 -139.5t75 -71t101.5 -19.5t100 20.5t69.5 72t40 140.5t13.5 226q0 133 -13.5 219t-41 135t-70.5 68.5t-103 19.5q-125 0 -180 -120.5t-55 -325.5z" />
<glyph unicode="&#xd3;" horiz-adv-x="1396" d="M57 678q0 190 49.5 334.5t137.5 243t207.5 147.5t261.5 49q182 0 303 -62.5t192.5 -162t101 -221t29.5 -238.5q0 -154 -27.5 -297t-100 -252.5t-197 -176.5t-314.5 -67q-156 0 -275.5 49.5t-201.5 141.5t-124 222t-42 290zM448 1634l447 248l139 -231l-473 -197zM467 719 q0 -137 16.5 -225t47 -139.5t75 -71t101.5 -19.5t100 20.5t69.5 72t40 140.5t13.5 226q0 133 -13.5 219t-41 135t-70.5 68.5t-103 19.5q-125 0 -180 -120.5t-55 -325.5z" />
<glyph unicode="&#xd4;" horiz-adv-x="1396" d="M57 678q0 190 49.5 334.5t137.5 243t207.5 147.5t261.5 49q182 0 303 -62.5t192.5 -162t101 -221t29.5 -238.5q0 -154 -27.5 -297t-100 -252.5t-197 -176.5t-314.5 -67q-156 0 -275.5 49.5t-201.5 141.5t-124 222t-42 290zM344 1637l391 243l387 -243l-115 -191l-285 144 l-276 -144zM467 719q0 -137 16.5 -225t47 -139.5t75 -71t101.5 -19.5t100 20.5t69.5 72t40 140.5t13.5 226q0 133 -13.5 219t-41 135t-70.5 68.5t-103 19.5q-125 0 -180 -120.5t-55 -325.5z" />
<glyph unicode="&#xd5;" horiz-adv-x="1396" d="M57 678q0 190 49.5 334.5t137.5 243t207.5 147.5t261.5 49q182 0 303 -62.5t192.5 -162t101 -221t29.5 -238.5q0 -154 -27.5 -297t-100 -252.5t-197 -176.5t-314.5 -67q-156 0 -275.5 49.5t-201.5 141.5t-124 222t-42 290zM324 1733q47 59 104.5 90t134.5 31 q49 0 82 -11.5t63 -24.5t60.5 -24.5t73.5 -11.5q45 0 87 18.5t62 40.5l93 -215q-45 -55 -104.5 -83.5t-147.5 -28.5q-47 0 -79 12t-60.5 25.5t-59.5 26t-76 12.5q-41 0 -77.5 -16.5t-65.5 -45.5zM467 719q0 -137 16.5 -225t47 -139.5t75 -71t101.5 -19.5t100 20.5t69.5 72 t40 140.5t13.5 226q0 133 -13.5 219t-41 135t-70.5 68.5t-103 19.5q-125 0 -180 -120.5t-55 -325.5z" />
<glyph unicode="&#xd6;" horiz-adv-x="1396" d="M57 678q0 190 49.5 334.5t137.5 243t207.5 147.5t261.5 49q182 0 303 -62.5t192.5 -162t101 -221t29.5 -238.5q0 -154 -27.5 -297t-100 -252.5t-197 -176.5t-314.5 -67q-156 0 -275.5 49.5t-201.5 141.5t-124 222t-42 290zM309 1667q0 37 14 68t38 54.5t55.5 36.5 t66.5 13q37 0 70.5 -13t59.5 -36.5t40 -54.5t14 -68q0 -72 -52 -120t-124 -48q-37 0 -69.5 13.5t-58.5 36t-40 53t-14 65.5zM467 719q0 -137 16.5 -225t47 -139.5t75 -71t101.5 -19.5t100 20.5t69.5 72t40 140.5t13.5 226q0 133 -13.5 219t-41 135t-70.5 68.5t-103 19.5 q-125 0 -180 -120.5t-55 -325.5zM765 1667q0 72 50.5 122t122.5 50q39 0 72.5 -13t58 -36.5t39 -54.5t14.5 -68q0 -35 -14.5 -65.5t-38 -53t-55 -36t-68.5 -13.5q-76 0 -128.5 48t-52.5 120z" />
<glyph unicode="&#xd8;" horiz-adv-x="1368" d="M51 678q0 190 49.5 334.5t137.5 243t207.5 147.5t261.5 49q170 0 292 -59l123 198l174 -102l-131 -215q92 -104 130 -238.5t38 -267.5q0 -154 -27.5 -297t-100 -252.5t-196.5 -176.5t-315 -67q-164 0 -288 56l-144 -234l-174 113l145 237q-90 92 -136 225.5t-46 305.5z M461 719q0 -53 3 -100.5t7 -86.5l363 590q-27 25 -61 34t-77 9q-125 0 -180 -120.5t-55 -325.5zM571 301q51 -37 129 -37q57 0 100.5 20.5t70 72t40 140.5t13.5 226q0 41 -1 78t-3 69z" />
<glyph unicode="&#xd9;" horiz-adv-x="1390" d="M158 457v970h368v-931q0 -98 37 -159t133 -61q98 0 133 54.5t35 158.5v938h367v-987q0 -92 -6 -142t-29 -93q-23 -45 -63.5 -86t-103 -73t-145.5 -51.5t-190 -19.5q-336 0 -467 179q-20 29 -33.5 53t-21.5 56t-11 77t-3 117zM293 1651l135 231l449 -248l-105 -180z" />
<glyph unicode="&#xda;" horiz-adv-x="1390" d="M158 457v970h368v-931q0 -98 37 -159t133 -61q98 0 133 54.5t35 158.5v938h367v-987q0 -92 -6 -142t-29 -93q-23 -45 -63.5 -86t-103 -73t-145.5 -51.5t-190 -19.5q-336 0 -467 179q-20 29 -33.5 53t-21.5 56t-11 77t-3 117zM456 1634l447 248l139 -231l-473 -197z" />
<glyph unicode="&#xdb;" horiz-adv-x="1390" d="M158 457v970h368v-931q0 -98 37 -159t133 -61q98 0 133 54.5t35 158.5v938h367v-987q0 -92 -6 -142t-29 -93q-23 -45 -63.5 -86t-103 -73t-145.5 -51.5t-190 -19.5q-336 0 -467 179q-20 29 -33.5 53t-21.5 56t-11 77t-3 117zM314 1643l391 243l387 -243l-115 -191 l-285 144l-276 -144z" />
<glyph unicode="&#xdc;" horiz-adv-x="1390" d="M158 457v970h368v-931q0 -98 37 -159t133 -61q98 0 133 54.5t35 158.5v938h367v-987q0 -92 -6 -142t-29 -93q-23 -45 -63.5 -86t-103 -73t-145.5 -51.5t-190 -19.5q-336 0 -467 179q-20 29 -33.5 53t-21.5 56t-11 77t-3 117zM273 1659q0 37 14 68t38 54.5t55.5 36.5 t66.5 13q37 0 70.5 -13t59.5 -36.5t40 -54.5t14 -68q0 -72 -52 -120t-124 -48q-37 0 -69.5 13.5t-58.5 36t-40 53t-14 65.5zM729 1659q0 72 50.5 122t122.5 50q39 0 72.5 -13t58 -36.5t39 -54.5t14.5 -68q0 -35 -14.5 -65.5t-38 -53t-55 -36t-68.5 -13.5q-76 0 -128.5 48 t-52.5 120z" />
<glyph unicode="&#xdf;" horiz-adv-x="1310" d="M18 776v281h168v49q0 80 35 147.5t97.5 116.5t150.5 77t193 28q113 0 203.5 -26t154 -74t98.5 -114.5t35 -146.5q0 -78 -40 -153.5t-132 -126.5q-35 -18 -47 -22.5t-12 -12.5t9 -11.5t38 -15.5q43 -18 95 -45t97 -66.5t76 -100t31 -146.5q0 -98 -38 -179t-105.5 -138.5 t-161 -89.5t-203.5 -32q-59 0 -98 7.5t-68 17.5l43 264q18 -10 47 -14t45 -4q76 0 116 41t40 116q0 49 -22.5 79t-55.5 51.5t-72 40t-71.5 44t-55 64.5t-22.5 102q0 76 27.5 113t61.5 60.5t61.5 47t27.5 74.5q0 63 -29.5 90t-75.5 27q-66 0 -89 -40t-23 -140v-776 q0 -57 -8.5 -120t-24.5 -120h-360q16 72 24 145.5t8 139.5v491h-168z" />
<glyph unicode="&#xe0;" horiz-adv-x="1073" d="M61 317q0 76 32 138.5t92.5 108.5t147.5 72t197 26h31t29 -3v66q0 47 -13.5 72.5t-72.5 25.5q-90 0 -162 -29.5t-139 -80.5l-129 221q98 59 221 104t254 45q152 0 252 -49t129 -143q10 -35 13 -70t3 -94l-4 -365q0 -66 13.5 -119t68.5 -87l-205 -199q-39 12 -79 46 t-52 58q-39 -33 -104.5 -60.5t-159.5 -27.5q-98 0 -167 28t-113 74t-63.5 108.5t-19.5 133.5zM191 1307l135 231l449 -248l-105 -180zM408 322q0 -47 25.5 -75t72.5 -28q23 0 48.5 11.5t35.5 23.5v184q-55 2 -91 -7t-56.5 -26.5t-27.5 -39t-7 -43.5z" />
<glyph unicode="&#xe1;" horiz-adv-x="1073" d="M61 317q0 76 32 138.5t92.5 108.5t147.5 72t197 26h31t29 -3v66q0 47 -13.5 72.5t-72.5 25.5q-90 0 -162 -29.5t-139 -80.5l-129 221q98 59 221 104t254 45q152 0 252 -49t129 -143q10 -35 13 -70t3 -94l-4 -365q0 -66 13.5 -119t68.5 -87l-205 -199q-39 12 -79 46 t-52 58q-39 -33 -104.5 -60.5t-159.5 -27.5q-98 0 -167 28t-113 74t-63.5 108.5t-19.5 133.5zM291 1290l447 248l139 -231l-473 -197zM408 322q0 -47 25.5 -75t72.5 -28q23 0 48.5 11.5t35.5 23.5v184q-55 2 -91 -7t-56.5 -26.5t-27.5 -39t-7 -43.5z" />
<glyph unicode="&#xe2;" horiz-adv-x="1073" d="M61 317q0 76 32 138.5t92.5 108.5t147.5 72t197 26h31t29 -3v66q0 47 -13.5 72.5t-72.5 25.5q-90 0 -162 -29.5t-139 -80.5l-129 221q98 59 221 104t254 45q152 0 252 -49t129 -143q10 -35 13 -70t3 -94l-4 -365q0 -66 13.5 -119t68.5 -87l-205 -199q-39 12 -79 46 t-52 58q-39 -33 -104.5 -60.5t-159.5 -27.5q-98 0 -167 28t-113 74t-63.5 108.5t-19.5 133.5zM164 1284l391 243l387 -243l-115 -191l-285 144l-276 -144zM408 322q0 -47 25.5 -75t72.5 -28q23 0 48.5 11.5t35.5 23.5v184q-55 2 -91 -7t-56.5 -26.5t-27.5 -39t-7 -43.5z" />
<glyph unicode="&#xe3;" horiz-adv-x="1073" d="M61 317q0 76 32 138.5t92.5 108.5t147.5 72t197 26h31t29 -3v66q0 47 -13.5 72.5t-72.5 25.5q-90 0 -162 -29.5t-139 -80.5l-129 221q98 59 221 104t254 45q152 0 252 -49t129 -143q10 -35 13 -70t3 -94l-4 -365q0 -66 13.5 -119t68.5 -87l-205 -199q-39 12 -79 46 t-52 58q-39 -33 -104.5 -60.5t-159.5 -27.5q-98 0 -167 28t-113 74t-63.5 108.5t-19.5 133.5zM158 1399q47 59 104.5 90t134.5 31q49 0 82 -11.5t63 -24.5t60.5 -24.5t73.5 -11.5q45 0 87 18.5t62 40.5l93 -215q-45 -55 -104.5 -83.5t-147.5 -28.5q-47 0 -79 12t-60.5 25.5 t-59.5 26t-76 12.5q-41 0 -77.5 -16.5t-65.5 -45.5zM408 322q0 -47 25.5 -75t72.5 -28q23 0 48.5 11.5t35.5 23.5v184q-55 2 -91 -7t-56.5 -26.5t-27.5 -39t-7 -43.5z" />
<glyph unicode="&#xe4;" horiz-adv-x="1073" d="M61 317q0 76 32 138.5t92.5 108.5t147.5 72t197 26h31t29 -3v66q0 47 -13.5 72.5t-72.5 25.5q-90 0 -162 -29.5t-139 -80.5l-129 221q98 59 221 104t254 45q152 0 252 -49t129 -143q10 -35 13 -70t3 -94l-4 -365q0 -66 13.5 -119t68.5 -87l-205 -199q-39 12 -79 46 t-52 58q-39 -33 -104.5 -60.5t-159.5 -27.5q-98 0 -167 28t-113 74t-63.5 108.5t-19.5 133.5zM152 1331q0 37 14 68t38 54.5t55.5 36.5t66.5 13q37 0 70.5 -13t59.5 -36.5t40 -54.5t14 -68q0 -72 -52 -120t-124 -48q-37 0 -69.5 13.5t-58.5 36t-40 53t-14 65.5zM408 322 q0 -47 25.5 -75t72.5 -28q23 0 48.5 11.5t35.5 23.5v184q-55 2 -91 -7t-56.5 -26.5t-27.5 -39t-7 -43.5zM608 1331q0 72 50.5 122t122.5 50q39 0 72.5 -13t58 -36.5t39 -54.5t14.5 -68q0 -35 -14.5 -65.5t-38 -53t-55 -36t-68.5 -13.5q-76 0 -128.5 48t-52.5 120z" />
<glyph unicode="&#xe5;" horiz-adv-x="1073" d="M61 317q0 76 32 138.5t92.5 108.5t147.5 72t197 26h31t29 -3v66q0 47 -13.5 72.5t-72.5 25.5q-90 0 -162 -29.5t-139 -80.5l-129 221q98 59 221 104t254 45q152 0 252 -49t129 -143q10 -35 13 -70t3 -94l-4 -365q0 -66 13.5 -119t68.5 -87l-205 -199q-39 12 -79 46 t-52 58q-39 -33 -104.5 -60.5t-159.5 -27.5q-98 0 -167 28t-113 74t-63.5 108.5t-19.5 133.5zM303 1330q0 45 19.5 84t53 68.5t76.5 47t93 17.5q49 0 91 -17.5t74.5 -47t51 -68.5t18.5 -84t-19.5 -84t-52 -69t-75.5 -47t-88 -17q-51 0 -95.5 17t-77 47t-51 69t-18.5 84z M408 322q0 -47 25.5 -75t72.5 -28q23 0 48.5 11.5t35.5 23.5v184q-55 2 -91 -7t-56.5 -26.5t-27.5 -39t-7 -43.5zM457 1330q0 -37 24.5 -61.5t58.5 -24.5q39 0 63 24.5t24 61.5t-25 61.5t-55 24.5q-41 0 -65.5 -25t-24.5 -61z" />
<glyph unicode="&#xe6;" horiz-adv-x="1566" d="M61 317q0 76 32 138.5t93.5 108.5t149.5 72t203 26h23.5t27.5 -3v66q0 47 -13.5 72.5t-72.5 25.5q-90 0 -162 -29.5t-139 -80.5l-129 221q98 59 221 104t254 45q96 0 157.5 -16t108.5 -51q37 29 98.5 48t139.5 19q254 0 366.5 -153.5t110.5 -425.5v-88h-590 q0 -25 6 -57.5t23.5 -63.5t51.5 -51.5t89 -20.5q141 0 279 107l137 -205q-106 -82 -209 -117t-221 -35q-117 0 -210 30t-159 91q-31 -43 -105.5 -82t-197.5 -39q-98 0 -167 28t-113 74t-63.5 108.5t-19.5 133.5zM408 322q0 -47 25.5 -75t72.5 -28q23 0 48.5 11.5t35.5 23.5 v184q-55 2 -91 -7t-56.5 -26.5t-27.5 -39t-7 -43.5zM940 647h238q4 88 -22 138.5t-91 50.5q-57 0 -91 -41t-34 -148z" />
<glyph unicode="&#xe7;" horiz-adv-x="901" d="M47 518q0 268 133 416.5t373 148.5q98 0 173 -29.5t153 -95.5l-164 -215q-31 33 -72 55.5t-78 22.5q-31 0 -55.5 -10t-40.5 -41t-24.5 -86t-8.5 -143q0 -162 23.5 -232.5t101.5 -70.5q59 0 108.5 26.5t86.5 67.5l149 -209q-86 -86 -183 -118t-196 -32q-221 0 -350 138.5 t-129 406.5zM268 -396l66 127q45 -23 98 -22q68 0 68 49t-68 49q-18 0 -32.5 -1t-24.5 -3l-21 35l56 176l161 -21l-32 -71q74 -6 115.5 -48.5t41.5 -101.5q0 -37 -13 -74.5t-42 -67.5t-76 -48.5t-116 -18.5q-47 0 -97.5 12.5t-83.5 28.5z" />
<glyph unicode="&#xe8;" horiz-adv-x="1048" d="M47 522q0 131 33 234.5t95.5 176.5t151.5 111.5t201 38.5q254 0 367 -153.5t111 -425.5v-88h-590q0 -25 6 -57.5t23.5 -63.5t51 -51.5t89.5 -20.5q141 0 278 107l137 -205q-106 -82 -208.5 -117t-221.5 -35q-256 0 -390 145.5t-134 403.5zM201 1307l135 231l449 -248 l-105 -180zM416 647h237q4 88 -21.5 138.5t-90.5 50.5q-57 0 -91 -41t-34 -148z" />
<glyph unicode="&#xe9;" horiz-adv-x="1048" d="M47 522q0 131 33 234.5t95.5 176.5t151.5 111.5t201 38.5q254 0 367 -153.5t111 -425.5v-88h-590q0 -25 6 -57.5t23.5 -63.5t51 -51.5t89.5 -20.5q141 0 278 107l137 -205q-106 -82 -208.5 -117t-221.5 -35q-256 0 -390 145.5t-134 403.5zM286 1290l447 248l139 -231 l-473 -197zM416 647h237q4 88 -21.5 138.5t-90.5 50.5q-57 0 -91 -41t-34 -148z" />
<glyph unicode="&#xea;" horiz-adv-x="1048" d="M47 522q0 131 33 234.5t95.5 176.5t151.5 111.5t201 38.5q254 0 367 -153.5t111 -425.5v-88h-590q0 -25 6 -57.5t23.5 -63.5t51 -51.5t89.5 -20.5q141 0 278 107l137 -205q-106 -82 -208.5 -117t-221.5 -35q-256 0 -390 145.5t-134 403.5zM166 1284l391 243l387 -243 l-115 -191l-285 144l-276 -144zM416 647h237q4 88 -21.5 138.5t-90.5 50.5q-57 0 -91 -41t-34 -148z" />
<glyph unicode="&#xeb;" horiz-adv-x="1048" d="M47 522q0 131 33 234.5t95.5 176.5t151.5 111.5t201 38.5q254 0 367 -153.5t111 -425.5v-88h-590q0 -25 6 -57.5t23.5 -63.5t51 -51.5t89.5 -20.5q141 0 278 107l137 -205q-106 -82 -208.5 -117t-221.5 -35q-256 0 -390 145.5t-134 403.5zM152 1331q0 37 14 68t38 54.5 t55.5 36.5t66.5 13q37 0 70.5 -13t59.5 -36.5t40 -54.5t14 -68q0 -72 -52 -120t-124 -48q-37 0 -69.5 13.5t-58.5 36t-40 53t-14 65.5zM416 647h237q4 88 -21.5 138.5t-90.5 50.5q-57 0 -91 -41t-34 -148zM608 1331q0 72 50.5 122t122.5 50q39 0 72.5 -13t58 -36.5t39 -54.5 t14.5 -68q0 -35 -14.5 -65.5t-38 -53t-55 -36t-68.5 -13.5q-76 0 -128.5 48t-52.5 120z" />
<glyph unicode="&#xec;" horiz-adv-x="606" d="M41 1307l135 231l449 -248l-105 -180zM121 0v1040l356 54v-1094h-356z" />
<glyph unicode="&#xed;" horiz-adv-x="606" d="M96 1290l447 248l139 -231l-473 -197zM121 0v1040l356 54v-1094h-356z" />
<glyph unicode="&#xee;" horiz-adv-x="606" d="M-53 1309l391 243l387 -243l-115 -191l-285 144l-276 -144zM121 0v1040l356 54v-1094h-356z" />
<glyph unicode="&#xef;" horiz-adv-x="606" d="M-82 1331q0 37 14 68t38 54.5t55.5 36.5t66.5 13q37 0 70.5 -13t59.5 -36.5t40 -54.5t14 -68q0 -72 -52 -120t-124 -48q-37 0 -69.5 13.5t-58.5 36t-40 53t-14 65.5zM121 0v1040l356 54v-1094h-356zM374 1331q0 72 50.5 122t122.5 50q39 0 72.5 -13t58 -36.5t39 -54.5 t14.5 -68q0 -35 -14.5 -65.5t-38 -53t-55 -36t-68.5 -13.5q-76 0 -128.5 48t-52.5 120z" />
<glyph unicode="&#xf1;" d="M92 1026l328 55q6 -18 12 -45.5t8 -52.5q53 39 127 69.5t178 30.5q92 0 150.5 -24.5t91.5 -65.5t44 -93t11 -107v-793h-356v676q0 43 -6 66.5t-18.5 33.5t-29 12.5t-34.5 2.5q-20 0 -50 -14.5t-67 -47.5v-729h-356v672q0 96 -6 182t-27 172zM185 1397q47 59 104.5 90 t134.5 31q49 0 82 -11.5t63 -24.5t60.5 -24.5t73.5 -11.5q45 0 87 18.5t62 40.5l93 -215q-45 -55 -104.5 -83.5t-147.5 -28.5q-47 0 -79 12t-60.5 25.5t-59.5 26t-76 12.5q-41 0 -77.5 -16.5t-65.5 -45.5z" />
<glyph unicode="&#xf2;" horiz-adv-x="1087" d="M47 524q0 123 36 226.5t102.5 177t160.5 114.5t211 41q98 0 185 -29.5t154 -93t105.5 -164t38.5 -241.5q0 -158 -43 -267.5t-113.5 -180t-161.5 -102.5t-185 -32q-229 0 -359.5 143.5t-130.5 407.5zM158 1307l135 231l449 -248l-105 -180zM432 518q0 -154 18.5 -224.5 t94.5 -70.5q63 0 86.5 77t23.5 265q0 80 -6 132.5t-19.5 83t-34.5 43t-52 12.5q-29 0 -49.5 -12.5t-34 -48.5t-20.5 -97.5t-7 -159.5z" />
<glyph unicode="&#xf3;" horiz-adv-x="1087" d="M47 524q0 123 36 226.5t102.5 177t160.5 114.5t211 41q98 0 185 -29.5t154 -93t105.5 -164t38.5 -241.5q0 -158 -43 -267.5t-113.5 -180t-161.5 -102.5t-185 -32q-229 0 -359.5 143.5t-130.5 407.5zM321 1290l447 248l139 -231l-473 -197zM432 518q0 -154 18.5 -224.5 t94.5 -70.5q63 0 86.5 77t23.5 265q0 80 -6 132.5t-19.5 83t-34.5 43t-52 12.5q-29 0 -49.5 -12.5t-34 -48.5t-20.5 -97.5t-7 -159.5z" />
<glyph unicode="&#xf4;" horiz-adv-x="1087" d="M47 524q0 123 36 226.5t102.5 177t160.5 114.5t211 41q98 0 185 -29.5t154 -93t105.5 -164t38.5 -241.5q0 -158 -43 -267.5t-113.5 -180t-161.5 -102.5t-185 -32q-229 0 -359.5 143.5t-130.5 407.5zM158 1284l391 243l387 -243l-115 -191l-285 144l-276 -144zM432 518 q0 -154 18.5 -224.5t94.5 -70.5q63 0 86.5 77t23.5 265q0 80 -6 132.5t-19.5 83t-34.5 43t-52 12.5q-29 0 -49.5 -12.5t-34 -48.5t-20.5 -97.5t-7 -159.5z" />
<glyph unicode="&#xf5;" horiz-adv-x="1087" d="M47 524q0 123 36 226.5t102.5 177t160.5 114.5t211 41q98 0 185 -29.5t154 -93t105.5 -164t38.5 -241.5q0 -158 -43 -267.5t-113.5 -180t-161.5 -102.5t-185 -32q-229 0 -359.5 143.5t-130.5 407.5zM170 1391q47 59 104.5 90t134.5 31q49 0 82 -11.5t63 -24.5t60.5 -24.5 t73.5 -11.5q45 0 87 18.5t62 40.5l93 -215q-45 -55 -104.5 -83.5t-147.5 -28.5q-47 0 -79 12t-60.5 25.5t-59.5 26t-76 12.5q-41 0 -77.5 -16.5t-65.5 -45.5zM432 518q0 -154 18.5 -224.5t94.5 -70.5q63 0 86.5 77t23.5 265q0 80 -6 132.5t-19.5 83t-34.5 43t-52 12.5 q-29 0 -49.5 -12.5t-34 -48.5t-20.5 -97.5t-7 -159.5z" />
<glyph unicode="&#xf6;" horiz-adv-x="1087" d="M47 524q0 123 36 226.5t102.5 177t160.5 114.5t211 41q98 0 185 -29.5t154 -93t105.5 -164t38.5 -241.5q0 -158 -43 -267.5t-113.5 -180t-161.5 -102.5t-185 -32q-229 0 -359.5 143.5t-130.5 407.5zM135 1333q0 37 14 68t38 54.5t55.5 36.5t66.5 13q37 0 70.5 -13 t59.5 -36.5t40 -54.5t14 -68q0 -72 -52 -120t-124 -48q-37 0 -69.5 13.5t-58.5 36t-40 53t-14 65.5zM432 518q0 -154 18.5 -224.5t94.5 -70.5q63 0 86.5 77t23.5 265q0 80 -6 132.5t-19.5 83t-34.5 43t-52 12.5q-29 0 -49.5 -12.5t-34 -48.5t-20.5 -97.5t-7 -159.5z M591 1333q0 72 50.5 122t122.5 50q39 0 72.5 -13t58 -36.5t39 -54.5t14.5 -68q0 -35 -14.5 -65.5t-38 -53t-55 -36t-68.5 -13.5q-76 0 -128.5 48t-52.5 120z" />
<glyph unicode="&#xf7;" horiz-adv-x="1900" d="M49 823v234h90q-4 29 -5 62.5t-1 64.5q0 115 39 182.5t95.5 103t121 46t113.5 10.5q74 0 132 -10.5t124 -40.5l-86 -224q-23 10 -44.5 15.5t-49.5 5.5q-33 0 -57.5 -20.5t-24.5 -55.5v-139h286q-4 29 -5 62.5t-1 64.5q0 115 39 182.5t95.5 103t121 46t113.5 10.5 q57 0 106 -6.5t97 -22.5l-37 -244q-41 18 -90 19q-33 0 -57.5 -20.5t-24.5 -55.5v-139h643v-1057h-357v823h-286v-823h-357v823h-286v-823h-357v823h-90zM1399 1325q0 41 16.5 78t45 64.5t66.5 43t81 15.5q86 0 143 -58.5t57 -142.5q0 -41 -16 -78t-44 -64.5t-65.5 -43 t-80.5 -15.5q-41 0 -78 15.5t-64.5 43t-44 64.5t-16.5 78z" />
<glyph unicode="&#xf8;" horiz-adv-x="1064" d="M45 524q0 123 36 226.5t102.5 177t160.5 114.5t211 41q115 0 211 -39l92 150l141 -84l-96 -158q63 -63 99 -160.5t36 -236.5q0 -158 -43 -267.5t-113.5 -180t-161.5 -102.5t-185 -32q-115 0 -207 37l-92 -147l-140 90l92 151q-70 70 -106.5 175.5t-36.5 244.5zM432 518 q0 -154 18.5 -224.5t94.5 -70.5q63 0 86.5 77t23.5 265q0 80 -6 132.5t-19.5 83t-34.5 43t-52 12.5q-29 0 -49.5 -12.5t-34 -48.5t-20.5 -97.5t-7 -159.5z" />
<glyph unicode="&#xf9;" d="M123 414v614l356 57v-766q0 -49 23.5 -64t70.5 -15q27 0 58 14t53 39v735l356 57v-761q0 -82 15.5 -140.5t38.5 -99.5l-310 -111q-18 23 -28.5 51.5t-16.5 45.5q-47 -41 -112.5 -69t-151.5 -28q-147 0 -225 46.5t-107 138.5q-12 41 -16 96t-4 160zM236 1307l135 231 l449 -248l-105 -180z" />
<glyph unicode="&#xfa;" d="M123 414v614l356 57v-766q0 -49 23.5 -64t70.5 -15q27 0 58 14t53 39v735l356 57v-761q0 -82 15.5 -140.5t38.5 -99.5l-310 -111q-18 23 -28.5 51.5t-16.5 45.5q-47 -41 -112.5 -69t-151.5 -28q-147 0 -225 46.5t-107 138.5q-12 41 -16 96t-4 160zM354 1290l447 248 l139 -231l-473 -197z" />
<glyph unicode="&#xfb;" d="M123 414v614l356 57v-766q0 -49 23.5 -64t70.5 -15q27 0 58 14t53 39v735l356 57v-761q0 -82 15.5 -140.5t38.5 -99.5l-310 -111q-18 23 -28.5 51.5t-16.5 45.5q-47 -41 -112.5 -69t-151.5 -28q-147 0 -225 46.5t-107 138.5q-12 41 -16 96t-4 160zM170 1305l391 243 l387 -243l-115 -191l-285 144l-276 -144z" />
<glyph unicode="&#xfc;" d="M123 414v614l356 57v-766q0 -49 23.5 -64t70.5 -15q27 0 58 14t53 39v735l356 57v-761q0 -82 15.5 -140.5t38.5 -99.5l-310 -111q-18 23 -28.5 51.5t-16.5 45.5q-47 -41 -112.5 -69t-151.5 -28q-147 0 -225 46.5t-107 138.5q-12 41 -16 96t-4 160zM135 1331q0 37 14 68 t38 54.5t55.5 36.5t66.5 13q37 0 70.5 -13t59.5 -36.5t40 -54.5t14 -68q0 -72 -52 -120t-124 -48q-37 0 -69.5 13.5t-58.5 36t-40 53t-14 65.5zM591 1331q0 72 50.5 122t122.5 50q39 0 72.5 -13t58 -36.5t39 -54.5t14.5 -68q0 -35 -14.5 -65.5t-38 -53t-55 -36t-68.5 -13.5 q-76 0 -128.5 48t-52.5 120z" />
<glyph unicode="&#xff;" horiz-adv-x="1083" d="M-29 1047l365 26l158 -553q16 -53 28.5 -108.5t20.5 -108.5h2q10 82 28.5 169t42.5 159l142 426h360l-401 -1059q-45 -117 -88 -204t-102.5 -145.5t-142.5 -91t-208 -42.5l-125 229q80 18 134.5 37.5t93 47.5t68.5 69t61 102h-99q-10 55 -31.5 133t-44.5 139zM113 1331 q0 37 14 68t38 54.5t55.5 36.5t66.5 13q37 0 70.5 -13t59.5 -36.5t40 -54.5t14 -68q0 -72 -52 -120t-124 -48q-37 0 -69.5 13.5t-58.5 36t-40 53t-14 65.5zM569 1331q0 72 50.5 122t122.5 50q39 0 72.5 -13t58 -36.5t39 -54.5t14.5 -68q0 -35 -14.5 -65.5t-38 -53t-55 -36 t-68.5 -13.5q-76 0 -128.5 48t-52.5 120z" />
<glyph unicode="&#x152;" horiz-adv-x="1753" d="M43 678q0 190 49 331.5t137 233.5t208 138t261 46h916l-27 -301h-436v-239h356v-291h-356v-291h489v-305h-954q-311 0 -477 178t-166 500zM453 719q0 -137 16 -221t47 -130t75 -62.5t101 -16.5q51 0 92 12v825q-43 12 -96 13q-125 0 -180 -107.5t-55 -312.5z" />
<glyph unicode="&#x153;" horiz-adv-x="1634" d="M47 524q0 123 36 226.5t102.5 177t160.5 114.5t211 41q80 0 153 -20.5t134 -61.5q47 35 117.5 58.5t158.5 23.5q254 0 366.5 -153.5t110.5 -425.5v-88h-589q0 -25 6 -57.5t23.5 -63.5t51 -51.5t89.5 -20.5q141 0 278 107l137 -205q-106 -82 -208.5 -117t-221.5 -35 q-203 0 -327 97q-72 -51 -147 -74t-152 -23q-229 0 -359.5 143.5t-130.5 407.5zM432 518q0 -154 18.5 -224.5t94.5 -70.5q63 0 86.5 77t23.5 265q0 80 -6 132.5t-19.5 83t-34.5 43t-52 12.5q-29 0 -49.5 -12.5t-34 -48.5t-20.5 -97.5t-7 -159.5zM1008 647h237 q4 88 -21.5 138.5t-90.5 50.5q-57 0 -91 -41t-34 -148z" />
<glyph unicode="&#x178;" horiz-adv-x="1171" d="M-51 1427h438l125 -303q12 -29 20.5 -51t16.5 -43.5t16 -46.5t19 -57q20 51 38.5 99t36.5 93l125 309h437l-457 -823v-604h-375v596zM160 1667q0 37 14 68t38 54.5t55.5 36.5t66.5 13q37 0 70.5 -13t59.5 -36.5t40 -54.5t14 -68q0 -72 -52 -120t-124 -48 q-37 0 -69.5 13.5t-58.5 36t-40 53t-14 65.5zM616 1667q0 72 50.5 122t122.5 50q39 0 72.5 -13t58 -36.5t39 -54.5t14.5 -68q0 -35 -14.5 -65.5t-38 -53t-55 -36t-68.5 -13.5q-76 0 -128.5 48t-52.5 120z" />
<glyph unicode="&#x2c6;" horiz-adv-x="823" d="M25 1309l391 243l387 -243l-115 -191l-285 144l-276 -144z" />
<glyph unicode="&#x2dc;" horiz-adv-x="823" d="M35 1405q47 59 104.5 90t134.5 31q49 0 82 -11.5t63 -24.5t60.5 -24.5t73.5 -11.5q45 0 87 18.5t62 40.5l93 -215q-45 -55 -104.5 -83.5t-147.5 -28.5q-47 0 -79 12t-60.5 25.5t-59.5 26t-76 12.5q-41 0 -77.5 -16.5t-65.5 -45.5z" />
<glyph unicode="&#x2000;" horiz-adv-x="954" />
<glyph unicode="&#x2001;" horiz-adv-x="1909" />
<glyph unicode="&#x2002;" horiz-adv-x="954" />
<glyph unicode="&#x2003;" horiz-adv-x="1909" />
<glyph unicode="&#x2004;" horiz-adv-x="636" />
<glyph unicode="&#x2005;" horiz-adv-x="477" />
<glyph unicode="&#x2006;" horiz-adv-x="318" />
<glyph unicode="&#x2007;" horiz-adv-x="318" />
<glyph unicode="&#x2008;" horiz-adv-x="238" />
<glyph unicode="&#x2009;" horiz-adv-x="381" />
<glyph unicode="&#x200a;" horiz-adv-x="106" />
<glyph unicode="&#x2010;" horiz-adv-x="741" d="M92 424v293h559v-293h-559z" />
<glyph unicode="&#x2011;" horiz-adv-x="741" d="M92 424v293h559v-293h-559z" />
<glyph unicode="&#x2012;" horiz-adv-x="741" d="M92 424v293h559v-293h-559z" />
<glyph unicode="&#x2013;" horiz-adv-x="985" d="M-6 420v272h999v-272h-999z" />
<glyph unicode="&#x2014;" horiz-adv-x="1974" d="M254 420v272h1462v-272h-1462z" />
<glyph unicode="&#x2018;" horiz-adv-x="573" d="M61 1094q0 78 24 141t62 115q31 39 91.5 81t134.5 58l143 -131q-70 -16 -107.5 -46t-37.5 -61q0 -18 5 -28.5t14 -18.5t22.5 -17t27.5 -24q35 -37 46.5 -71.5t11.5 -81.5q0 -84 -57.5 -139.5t-143.5 -55.5q-111 0 -173.5 74t-62.5 205z" />
<glyph unicode="&#x2019;" horiz-adv-x="557" d="M61 944q70 16 108 46t38 61q0 18 -5 28.5t-14.5 18.5t-22.5 17t-28 24q-35 37 -46 71.5t-11 81.5q0 84 57.5 139.5t143.5 55.5q111 0 173 -74t62 -205q0 -78 -23.5 -141t-62.5 -115q-31 -39 -91 -81t-134 -58z" />
<glyph unicode="&#x201a;" horiz-adv-x="546" d="M55 -180q70 16 108 46t38 60q0 18 -5.5 28.5t-14.5 19t-22.5 17.5t-27.5 23q-35 37 -46 72t-11 82q0 84 57 139t143 55q111 0 173.5 -73.5t62.5 -204.5q0 -78 -23.5 -141.5t-62.5 -114.5q-31 -39 -91.5 -81t-133.5 -58z" />
<glyph unicode="&#x201c;" horiz-adv-x="1046" d="M61 1094q0 78 24 141t62 115q31 39 91.5 81t134.5 58l143 -131q-70 -16 -107.5 -46t-37.5 -61q0 -18 5 -28.5t14 -18.5t22.5 -17t27.5 -24q35 -37 46.5 -71.5t11.5 -81.5q0 -84 -57.5 -139.5t-143.5 -55.5q-111 0 -173.5 74t-62.5 205zM565 1094q0 78 23.5 141t62.5 115 q31 39 91.5 81t134.5 58l143 -131q-70 -16 -108 -46t-38 -61q0 -18 5.5 -28.5t14.5 -18.5t22.5 -17t27.5 -24q35 -37 46 -71.5t11 -81.5q0 -84 -57 -139.5t-143 -55.5q-111 0 -173.5 74t-62.5 205z" />
<glyph unicode="&#x201d;" horiz-adv-x="1046" d="M61 944q70 16 108 46t38 61q0 18 -5 28.5t-14.5 18.5t-22.5 17t-28 24q-35 37 -46 71.5t-11 81.5q0 84 57.5 139.5t143.5 55.5q111 0 173 -74t62 -205q0 -78 -23.5 -141t-62.5 -115q-31 -39 -91 -81t-134 -58zM565 944q70 16 108 46t38 61q0 18 -5.5 28.5t-14.5 18.5 t-22.5 17t-27.5 24q-35 37 -46 71.5t-11 81.5q0 84 57 139.5t143 55.5q111 0 173.5 -74t62.5 -205q0 -78 -23.5 -141t-62.5 -115q-31 -39 -91.5 -81t-133.5 -58z" />
<glyph unicode="&#x201e;" horiz-adv-x="1067" d="M51 -180q70 16 108 46t38 60q0 18 -5.5 28.5t-14.5 19t-22.5 17.5t-27.5 23q-35 37 -46 72t-11 82q0 84 57 139t143 55q111 0 173.5 -73.5t62.5 -204.5q0 -78 -23.5 -141.5t-62.5 -114.5q-31 -39 -91.5 -81t-133.5 -58zM555 -180q70 16 107.5 46t37.5 60q0 18 -5 28.5 t-14 19t-22.5 17.5t-27.5 23q-35 37 -46.5 72t-11.5 82q0 84 57.5 139t143.5 55q111 0 173.5 -73.5t62.5 -204.5q0 -78 -23.5 -141.5t-62.5 -114.5q-31 -39 -91.5 -81t-134.5 -58z" />
<glyph unicode="&#x2022;" horiz-adv-x="1024" d="M150 725q0 76 28.5 141.5t77.5 114.5t114.5 77.5t141.5 28.5t141.5 -28.5t114.5 -77.5t77.5 -114.5t28.5 -141.5t-28.5 -141.5t-77.5 -114.5t-114.5 -78t-141.5 -29t-141.5 29t-114.5 78t-77.5 114.5t-28.5 141.5z" />
<glyph unicode="&#x2026;" horiz-adv-x="1615" d="M59 174q0 43 16.5 80t45.5 65.5t65.5 45t79.5 16.5t82 -16.5t68.5 -45t46 -65.5t16.5 -80t-16.5 -82t-46 -67.5t-67.5 -45t-81 -16.5t-82 16.5t-66.5 45t-44 67.5t-16.5 82zM600 174q0 43 16.5 80t45 65.5t65.5 45t80 16.5t81 -16.5t67.5 -45t46 -65.5t16.5 -80 t-16.5 -82t-46 -67.5t-67.5 -45t-81 -16.5t-81 16.5t-65.5 45t-44 67.5t-16.5 82zM1139 174q0 43 16 80t45 65.5t67 45t81 16.5t80.5 -16.5t67.5 -45t46.5 -65.5t16.5 -80t-16.5 -82t-46.5 -67.5t-67.5 -45t-80.5 -16.5t-82 16.5t-67 45t-44 67.5t-16 82z" />
<glyph unicode="&#x202f;" horiz-adv-x="381" />
<glyph unicode="&#x2039;" horiz-adv-x="698" d="M41 526l365 490l258 -162l-248 -328l248 -325l-258 -166z" />
<glyph unicode="&#x203a;" horiz-adv-x="698" d="M41 201l248 325l-248 328l258 162l365 -490l-365 -491z" />
<glyph unicode="&#x205f;" horiz-adv-x="477" />
<glyph unicode="&#x2122;" horiz-adv-x="2129" d="M86 1188v239h737v-239h-225v-604h-287v604h-225zM858 584l35 843h387l160 -481l151 481h359l47 -843h-303v440h-4l-148 -440h-242l-147 440h-4v-440h-291z" />
<glyph unicode="&#x25fc;" horiz-adv-x="1095" d="M0 0v1096h1096v-1096h-1096z" />
</font>
</defs>
</svg>
