<?xml version="1.0" standalone="no"?>
<!DOCTYPE svg PUBLIC "-//W3C//DTD SVG 1.1//EN" "http://www.w3.org/Graphics/SVG/1.1/DTD/svg11.dtd" >
<svg xmlns="http://www.w3.org/2000/svg">
<metadata></metadata>
<defs>
<font id="metaplusbold" horiz-adv-x="1187" >
<font-face units-per-em="2048" ascent="1638" descent="-410" />
<missing-glyph horiz-adv-x="460" />
<glyph unicode="&#xfb01;" horiz-adv-x="1183" d="M68 856v193h100q0 35 -5 71.5t-5 71.5q0 156 88 241t250 85q68 0 130 -14.5t97 -35.5l-88 -170q-20 10 -48 14.5t-44 4.5q-53 0 -84 -31t-31 -88v-149h627v-1049h-275v856h-350v-856h-268v856h-94zM750 1337q0 72 50 121t122 49q70 0 117.5 -49t47.5 -121t-49 -121 t-120 -49q-70 0 -119 49.5t-49 120.5z" />
<glyph unicode="&#xfb02;" horiz-adv-x="1224" d="M66 856v193h94q0 35 -5 71.5t-5 71.5q0 156 88 241t249 85q68 0 130.5 -14.5t97.5 -35.5l-88 -170q-20 10 -48 14.5t-44 4.5q-53 0 -84 -31t-31 -88v-149h252l-70 -193h-174v-856h-268v856h-94zM758 1452l280 64q8 -43 11.5 -102.5t3.5 -170.5v-817q0 -68 1 -109t2 -65.5 t5 -36.5t10 -22q16 -29 55 -29q20 0 31 4l47 -164q-74 -29 -164 -29q-88 0 -153.5 39t-89.5 105q-8 20 -12.5 38.5t-7.5 43t-4 61.5t-1 92v783q0 104 -3 173.5t-11 141.5z" />
<glyph horiz-adv-x="0" />
<glyph unicode="&#xd;" horiz-adv-x="460" />
<glyph unicode=" "  horiz-adv-x="460" />
<glyph unicode="&#x09;" horiz-adv-x="460" />
<glyph unicode="&#xa0;" horiz-adv-x="460" />
<glyph unicode="!" horiz-adv-x="606" d="M127 143q0 72 49 121t121 49q70 0 119 -49t49 -121t-50 -121t-122 -49q-70 0 -118 49.5t-48 120.5zM129 1407l328 47l-58 -1001h-209z" />
<glyph unicode="&#x22;" horiz-adv-x="1064" d="M168 872v578h258v-578h-258zM643 872v578h258v-578h-258z" />
<glyph unicode="#" horiz-adv-x="1155" d="M61 412v184h197l35 258h-172v184h196l58 412h198l-57 -412h203l57 412h199l-57 -412h172v-184h-197l-35 -258h172v-184h-196l-58 -412h-198l57 412h-203l-57 -412h-199l57 412h-172zM457 596h202l35 258h-202z" />
<glyph unicode="$" horiz-adv-x="1171" d="M23 98l106 224q100 -53 191.5 -84t199.5 -31q250 0 250 194q0 137 -186 185l-158 43q-106 29 -174 71.5t-107 108.5q-59 96 -59 217q0 88 30.5 163t87 132t135.5 93t175 48v148h176v-150q109 -10 206 -46t175 -91l-135 -205q-98 59 -175 84t-157 25q-88 0 -143 -46 t-55 -118q0 -55 33.5 -87t123.5 -56l172 -48q176 -47 268.5 -155.5t92.5 -267.5q0 -98 -35 -180.5t-100.5 -144t-157.5 -100t-205 -51.5v-166h-176v166q-104 10 -206.5 42t-192.5 83z" />
<glyph unicode="%" horiz-adv-x="1716" d="M55 1087q0 80 24.5 145.5t70 113t109.5 73t142 25.5q166 0 263 -103q47 -47 68.5 -106t21.5 -143q0 -88 -22.5 -150.5t-74.5 -112.5q-47 -45 -106 -69.5t-150 -24.5q-160 0 -253 95.5t-93 256.5zM279 1094q0 -53 5 -92t17 -62q14 -23 41 -37t61 -14q66 0 94.5 48 t28.5 159q0 125 -41 164q-33 32 -86 32q-76 0 -102 -61q-10 -27 -14 -58.5t-4 -78.5zM385 0l745 1423h195l-745 -1423h-195zM954 332q0 80 25 145.5t70 112.5t109 72.5t142 25.5q166 0 263 -102q47 -47 68.5 -106.5t21.5 -143.5q0 -88 -22.5 -150.5t-74.5 -111.5 q-47 -45 -106 -69.5t-150 -24.5q-160 0 -253 95t-93 257zM1178 338q0 -53 5 -92t17 -62q14 -23 41 -37t62 -14q66 0 94 48t28 159q0 125 -41 164q-33 33 -86 33q-76 0 -102 -62q-10 -27 -14 -58.5t-4 -78.5z" />
<glyph unicode="&#x26;" horiz-adv-x="1464" d="M100 358q0 236 256 355q-55 43 -85.5 75.5t-47.5 69.5q-14 29 -23.5 75t-9.5 87q0 76 30 139.5t84 108.5t130 70.5t166 25.5q92 0 168 -23.5t131 -66.5t86 -102.5t31 -131.5q0 -57 -18.5 -108t-51.5 -88q-31 -35 -69.5 -62.5t-110.5 -64.5l-18 -10l237 -226q6 25 9 42.5 t5 38t3.5 48t1.5 72.5v14h229v-12q0 -231 -66 -381l306 -303h-381l-86 86q-23 -20 -58 -40.5t-65 -33.5q-104 -41 -269 -41q-248 0 -381 100.5t-133 286.5zM393 375q0 -98 59.5 -150.5t170.5 -52.5q147 0 215 70l-334 321q-111 -68 -111 -188zM471 1040q0 -23 4 -41 t16.5 -38.5t33 -44t53.5 -56.5l16 -16q135 70 135 192q0 59 -36 98.5t-91 39.5q-59 0 -95 -37t-36 -97z" />
<glyph unicode="'" horiz-adv-x="606" d="M174 872v578h258v-578h-258z" />
<glyph unicode="(" horiz-adv-x="716" d="M123 659q0 104 11 208t30 182q23 92 71 181t113 161q127 135 297 208l72 -161q-43 -31 -63.5 -47.5t-47.5 -42.5q-53 -53 -92 -115t-61 -133q-20 -57 -30.5 -117.5t-16.5 -151.5q-2 -45 -3.5 -87t-1.5 -80q0 -70 4.5 -153t12.5 -163q12 -111 33.5 -187.5t62.5 -148.5 q18 -35 38.5 -62.5t45.5 -50t54.5 -44t68.5 -41.5l-72 -160q-150 51 -262.5 160.5t-175.5 263.5q-35 84 -53.5 183t-28.5 239q-6 88 -6 159z" />
<glyph unicode=")" horiz-adv-x="704" d="M-12 -182q20 14 35.5 25.5t27.5 21.5t22.5 20.5t24.5 22.5q109 109 156 248q18 55 28.5 116.5t16.5 151.5q6 92 6 172q0 68 -3 150.5t-13 160.5q-12 111 -32.5 187.5t-61.5 148.5q-20 35 -40 62.5t-44.5 50t-54 43t-68.5 43.5l71 160q150 -53 263.5 -161t175.5 -265 q33 -84 51 -183.5t29 -238.5q4 -43 4 -81v-73q0 -106 -9.5 -211.5t-29.5 -183.5q-23 -92 -72 -180t-115 -160q-125 -137 -299 -209z" />
<glyph unicode="*" horiz-adv-x="987" d="M53 1069l66 195l268 -97v283h209v-283l268 88l62 -194l-269 -86l170 -234l-170 -125l-172 236l-166 -225l-165 125l172 223z" />
<glyph unicode="+" horiz-adv-x="1294" d="M74 492v258h432v432h258v-432h432v-258h-432v-433h-258v433h-432z" />
<glyph unicode="," horiz-adv-x="546" d="M68 -182q68 16 107.5 48t39.5 68q0 20 -11 34t-42 32q-80 47 -80 143q0 74 52 125t126 51q90 0 147.5 -68.5t57.5 -176.5q0 -68 -20.5 -127.5t-59.5 -108.5t-92 -84t-117 -51z" />
<glyph unicode="-" horiz-adv-x="692" d="M102 442v238h492v-238h-492z" />
<glyph unicode="." horiz-adv-x="546" d="M94 150q0 74 52 126t126 52q76 0 129.5 -52.5t53.5 -125.5q0 -37 -14.5 -71t-39 -58.5t-57.5 -39t-70 -14.5q-76 0 -128 53.5t-52 129.5z" />
<glyph unicode="/" horiz-adv-x="983" d="M131 -315l549 1880h180l-549 -1880h-180z" />
<glyph unicode="0" horiz-adv-x="1122" d="M80 520q0 123 36 224.5t100.5 174t153 111.5t197.5 39q113 0 202 -39t152.5 -109.5t97.5 -172t34 -224.5t-36 -224t-100.5 -174t-153.5 -112t-198 -39q-113 0 -203 39t-152.5 110t-96 172t-33.5 224zM381 526q0 -109 14.5 -177t39 -106t58 -52.5t72.5 -14.5 q104 0 145.5 93t41.5 249q0 109 -14.5 177.5t-39 106.5t-58.5 52t-73 14q-104 0 -145 -93t-41 -249z" />
<glyph unicode="1" horiz-adv-x="851" d="M27 782l395 287h184v-846h164v-223h-649v223h221v531q-57 -35 -117.5 -66t-128.5 -53z" />
<glyph unicode="2" horiz-adv-x="1107" d="M68 879q111 98 233.5 150t282.5 52q184 0 291.5 -92t107.5 -244q0 -113 -54.5 -191.5t-137.5 -139.5q-29 -20 -64 -43t-74 -44.5t-75.5 -42t-67.5 -38.5q-8 -4 -22.5 -11.5t-30.5 -15.5q35 4 91 7t107 3h367l-59 -229h-854v250q27 14 46 22.5t40.5 18.5t50 24.5 t73.5 40.5q106 59 175 107.5t109 90.5t55.5 78t15.5 70q0 68 -46 103t-118 35q-66 0 -129.5 -30t-149.5 -101z" />
<glyph unicode="3" horiz-adv-x="1042" d="M-20 899q41 33 91 61.5t99 49.5q72 29 145.5 45t147.5 16q96 0 177 -26.5t140.5 -74.5t92 -113.5t32.5 -141.5q0 -84 -34.5 -153.5t-100.5 -110.5q-20 -12 -33.5 -19.5t-42.5 -17.5q117 -39 180.5 -121t63.5 -191q0 -106 -53.5 -194t-148.5 -151.5t-227 -98.5t-292 -35 q-47 0 -80 1t-90 9l-65 191q47 -10 76.5 -12t78.5 -2q106 0 194.5 23.5t152 64.5t98 99t34.5 128q0 51 -23.5 94t-66.5 62q-59 25 -190 24h-51t-54 -2v229q37 -4 72 -6t70 -2q227 0 227 162q0 66 -42 110t-132 44q-104 0 -180 -38t-123 -77z" />
<glyph unicode="4" horiz-adv-x="1122" d="M47 0v186l395 875h283l-295 -664q-6 -10 -17.5 -33.5t-24.5 -49t-26.5 -49t-23.5 -34.5q16 4 21.5 4.5t21.5 0.5h231q10 0 17.5 -1.5t15.5 -1.5h17q-2 6 -3 15v22q0 43 3.5 93.5t11.5 125.5l22 240l215 49v-362v-63.5t-2 -57.5q-2 -16 -2 -27.5v-19.5t-2 -15h23 q10 0 21.5 1.5t21.5 1.5h86v-236h-92h-27.5t-19.5 2q-8 0 -17 2q2 -8 4 -18t4 -24.5t2 -31.5v-288l-260 -33v346v15.5t2 17.5q0 8 2 18q-10 -2 -18 -4q-10 -2 -20.5 -2h-26.5h-543z" />
<glyph unicode="5" horiz-adv-x="1011" d="M63 -160q59 -16 103.5 -22t89.5 -6q82 0 149.5 21.5t116.5 61t77 95t28 121.5q0 98 -61.5 157.5t-162.5 59.5q-63 0 -131.5 -13.5t-167.5 -44.5l66 779h698l-41 -234h-401l-29 -285q33 6 50.5 8.5t46.5 2.5q94 0 174 -30t136 -82t88 -125t32 -161q0 -115 -48.5 -210 t-133.5 -163.5t-203.5 -107.5t-259.5 -39q-49 0 -78 2t-78 13z" />
<glyph unicode="6" horiz-adv-x="1148" d="M66 549q0 76 13 152.5t40 142.5q35 88 93 174t136 158q45 43 109.5 88t135.5 85t144.5 72.5t136.5 51.5l60 -197q-78 -25 -158 -61.5t-150.5 -92t-129 -134.5t-95.5 -185q82 68 220 67q92 0 172.5 -32.5t139 -91t92.5 -137.5t34 -171q0 -98 -37 -184t-101.5 -148.5 t-152.5 -98.5t-188 -36q-113 0 -207 43t-163 120t-106.5 182.5t-37.5 232.5zM365 459q0 -131 53 -204t149 -73q92 0 147.5 67.5t55.5 184.5q0 98 -50 156.5t-136 58.5q-49 0 -100.5 -16t-112.5 -51q-4 -18 -5 -53t-1 -70z" />
<glyph unicode="7" horiz-adv-x="940" d="M12 801l62 248h854l-45 -240q-31 -47 -85.5 -133t-117 -200t-123.5 -248t-104 -277q-4 -12 -8.5 -30.5t-11.5 -49.5t-16 -80t-24 -125l-301 -76q20 86 37.5 151.5t35 121t35 108t40.5 111.5q41 111 83 207t97 205q31 59 55.5 104t47 81t43 66.5t44.5 63.5 q-16 -4 -37.5 -6t-44.5 -2h-516z" />
<glyph unicode="8" horiz-adv-x="1228" d="M70 352q0 117 66.5 212t174.5 134q-35 10 -73.5 42t-67.5 71q-29 41 -45 92t-16 105q0 84 35.5 153.5t100 119.5t154.5 77.5t201 27.5q104 0 190.5 -26.5t148.5 -73.5t97 -112.5t35 -143.5q0 -104 -71.5 -187t-192.5 -116q59 -16 119.5 -53t107.5 -78q90 -84 90 -221 q0 -70 -24.5 -133.5t-68.5 -114.5t-105.5 -88t-134.5 -55q-49 -12 -104.5 -18.5t-111.5 -6.5q-104 0 -180 17.5t-143 58.5q-182 111 -182 317zM375 373q0 -98 62.5 -154.5t168.5 -56.5q92 0 150.5 49t58.5 127q0 96 -78 147q-81 54 -231 105q-131 -76 -131 -217zM391 1032 q0 -49 29 -85t96 -70q25 -12 40 -19.5t44 -19.5q27 12 55.5 30.5t53 42t41 55t16.5 72.5q0 72 -47 110t-139 38q-86 0 -137.5 -42t-51.5 -112z" />
<glyph unicode="9" horiz-adv-x="1155" d="M63 604q0 104 37 191.5t103.5 152t157 100t198.5 35.5q115 0 206 -38.5t153.5 -110.5t96.5 -175.5t34 -234.5q0 -207 -82 -379t-254 -313q-94 -78 -209 -145.5t-225 -106.5l-150 168q82 20 169 67.5t162 109t131 129t79 132.5q-47 -23 -84 -31t-82 -8q-94 0 -174 35 t-139.5 96.5t-93.5 144.5t-34 181zM360 612q0 -111 56.5 -177t150.5 -66q51 0 87 17t77 58q20 70 21 154q0 129 -53.5 201.5t-145.5 72.5q-88 0 -140.5 -70.5t-52.5 -189.5z" />
<glyph unicode=":" horiz-adv-x="622" d="M133 139q0 37 14.5 71t38 58.5t56 39t69.5 14.5q74 -2 125 -54.5t51 -128.5q0 -72 -52 -122t-126 -50q-72 0 -124 50.5t-52 121.5zM137 752q0 37 13.5 69.5t37 57t55 39t68.5 14.5q74 0 126 -52.5t52 -125.5q0 -74 -52 -125t-126 -51q-72 0 -123 51t-51 123z" />
<glyph unicode=";" horiz-adv-x="638" d="M115 -182q66 16 105.5 48t39.5 68q0 18 -9 32t-38 30q-47 29 -66.5 62.5t-19.5 80.5q0 78 51 129t129 51q90 0 147.5 -69.5t57.5 -177.5q0 -66 -21.5 -125.5t-60.5 -108.5t-92 -85t-117 -50zM133 754q0 37 13.5 69.5t37 57t54 39t67.5 14.5q74 0 127 -52.5t53 -125.5 q0 -37 -13 -69t-36.5 -55.5t-55.5 -37.5t-69 -14t-69.5 13t-56 36.5t-38 55.5t-14.5 69z" />
<glyph unicode="&#x3c;" horiz-adv-x="2576" d="M90 608q0 35 13.5 67t37 55.5t54 36.5t67.5 13q72 0 122 -50t50 -122q0 -37 -13 -68.5t-37 -55t-55.5 -37t-66.5 -13.5q-72 0 -122 51.5t-50 122.5zM362 229q0 35 13.5 67t37 55.5t54.5 36.5t68 13q72 0 122 -50t50 -122q0 -37 -13.5 -68.5t-37 -55t-55.5 -37t-66 -13.5 q-72 0 -122.5 51.5t-50.5 122.5zM362 987q0 35 13.5 66.5t37 55.5t54.5 37t68 13q72 0 122 -50t50 -122q0 -37 -13.5 -68.5t-37 -55t-55.5 -37t-66 -13.5q-72 0 -122.5 51t-50.5 123zM598 608q0 72 50 122t122 50q37 0 68.5 -13t55.5 -36.5t37 -55.5t13 -67q0 -72 -51 -123 t-123 -51q-35 0 -66.5 13.5t-55 37t-37 55t-13.5 68.5zM635 -150q0 72 50 122.5t122 50.5t122 -50.5t50 -122.5q0 -37 -13.5 -68.5t-37 -55t-55 -37t-66.5 -13.5t-66.5 13.5t-55 37t-37 55.5t-13.5 68zM635 1366q0 72 50 122t122 50t122 -50t50 -122q0 -37 -13.5 -68.5 t-37 -55t-55 -37t-66.5 -13.5t-66.5 13.5t-55 37t-37 55t-13.5 68.5zM1108 608q0 72 50 122t122 50t122 -50t50 -122q0 -37 -13.5 -68.5t-37 -55t-55 -37t-66.5 -13.5t-66.5 13.5t-55 37t-37 55t-13.5 68.5zM1616 608q0 35 13 67t37 55.5t55.5 36.5t68.5 13q72 0 122 -50 t50 -122q0 -37 -13.5 -68.5t-37 -55t-55 -37t-66.5 -13.5q-72 0 -123 51.5t-51 122.5zM2126 608q0 72 50 122t122 50q37 0 67.5 -13t54 -36.5t37 -55.5t13.5 -67q0 -72 -50 -123t-122 -51q-35 0 -66.5 13.5t-55.5 37t-37 55t-13 68.5z" />
<glyph unicode="=" horiz-adv-x="1363" d="M121 295v258h1122v-258h-1122zM121 688v258h1122v-258h-1122z" />
<glyph unicode="&#x3e;" horiz-adv-x="2576" d="M90 608q0 35 13.5 67t37 55.5t54 36.5t67.5 13q72 0 122 -50t50 -122q0 -37 -13 -68.5t-37 -55t-55.5 -37t-66.5 -13.5q-72 0 -122 51t-50 123zM598 608q0 72 50 122t122 50q37 0 68.5 -13t55.5 -36.5t37 -55.5t13 -67q0 -72 -51 -123t-123 -51q-35 0 -66.5 13.5t-55 37 t-37 55t-13.5 68.5zM1108 608q0 72 50 122t122 50t122 -50t50 -122q0 -37 -13.5 -68.5t-37 -55t-55 -37t-66.5 -13.5t-66.5 13.5t-55 37t-37 55t-13.5 68.5zM1581 -150q0 72 50 122.5t122 50.5t122 -50.5t50 -122.5q0 -37 -13.5 -68.5t-37 -55t-55 -37t-66.5 -13.5 t-66.5 13.5t-55 37t-37 55t-13.5 68.5zM1581 1366q0 72 50 122t122 50t122 -50t50 -122q0 -37 -13.5 -68.5t-37 -55t-55 -37t-66.5 -13.5t-66.5 13.5t-55 37t-37 55t-13.5 68.5zM1616 608q0 35 13 67t37 55.5t55.5 36.5t68.5 13q72 0 122 -50t50 -122q0 -37 -13.5 -68.5 t-37 -55t-55 -37t-66.5 -13.5q-72 0 -123 51t-51 123zM1853 229q0 72 50.5 122t121.5 50q37 0 68 -13t54.5 -36.5t37 -55.5t13.5 -67q0 -72 -50.5 -123t-122.5 -51q-35 0 -66.5 13.5t-55 37t-37 55t-13.5 68.5zM1853 987q0 72 50.5 122t121.5 50q37 0 68 -13t54.5 -37 t37 -55.5t13.5 -66.5q0 -72 -50.5 -123t-122.5 -51q-35 0 -66.5 13.5t-55 37t-37 55t-13.5 68.5zM2126 608q0 72 50 122t122 50q37 0 67.5 -13t54 -36.5t37 -55.5t13.5 -67q0 -72 -50 -123t-122 -51q-35 0 -66.5 13.5t-55.5 37t-37 55t-13 68.5z" />
<glyph unicode="?" horiz-adv-x="995" d="M80 1288q18 20 53 47t85 51.5t114.5 41t144.5 16.5q78 0 148.5 -23.5t124 -67.5t85 -107.5t31.5 -143.5q0 -72 -19.5 -122t-47 -87t-61 -60.5t-60.5 -41.5q-94 -59 -125 -130t-33 -137q0 -18 1 -36.5t3 -34.5h-235l-10 53q-23 125 21 218t159 175q20 14 44.5 30.5t44 36 t33 44t13.5 55.5q0 76 -50 108.5t-118 32.5q-43 0 -78 -10t-62.5 -25.5t-47 -32t-33.5 -26.5zM266 143q0 72 49.5 121t120.5 49q70 0 119 -49t49 -121t-50 -121t-122 -49q-70 0 -118 49.5t-48 120.5z" />
<glyph unicode="@" horiz-adv-x="1638" d="M66 723q0 164 61 303t167.5 241.5t249 161t304.5 58.5q135 0 265 -44t232.5 -130t165 -212t62.5 -288q0 -109 -25.5 -188.5t-65.5 -135t-90.5 -90t-100.5 -53t-96 -26t-77 -7.5q-86 0 -123 35t-39 76h-4q-41 -41 -102.5 -76t-159.5 -35q-66 0 -120 26t-93 71t-60.5 108.5 t-21.5 138.5q0 90 29 173t81 147.5t128 102.5t172 38q82 0 136 -26.5t85 -90.5h4l17 93h192l-76 -404q-6 -29 -12 -67.5t-6 -67.5q0 -23 11 -40t44 -17t64.5 17t56.5 55t40 95.5t15 137.5q0 123 -40 216t-110.5 156.5t-169 95.5t-214.5 32q-127 0 -231.5 -43t-179.5 -121 t-116 -184.5t-41 -231.5q0 -135 45.5 -241.5t126 -180.5t191.5 -114t240 -40q117 0 214 33t173 92h225q-111 -152 -275.5 -230.5t-353.5 -78.5q-164 0 -308 56.5t-253 156.5t-171 240.5t-62 306.5zM616 680q0 -33 6.5 -65.5t21.5 -58.5t43 -42t71 -16q63 0 105 22.5t66.5 58 t34 79.5t9.5 87q0 82 -37 135.5t-115 53.5q-94 0 -149.5 -74t-55.5 -180z" />
<glyph unicode="A" d="M-20 0l466 1427h310l448 -1427h-307l-100 338h-418l-100 -338h-299zM449 575h278q-12 43 -27 93q-12 41 -26.5 91t-24.5 103q-6 25 -15 67t-20 83q-10 49 -22 102q-12 -49 -25 -98q-10 -41 -21 -88t-22 -88q-20 -78 -36.5 -135.5t-38.5 -129.5z" />
<glyph unicode="B" horiz-adv-x="1253" d="M172 0v1423h481q66 0 116 -5t92 -17t76 -31.5t67 -48.5q116 -101 116 -251t-96 -241q-31 -29 -56.5 -43t-74.5 -30q133 -39 208 -128t75 -231q0 -74 -24 -142.5t-70 -122.5t-115.5 -89t-163.5 -39q-35 -2 -79 -3t-103 -1h-449zM455 854h170q51 0 77.5 4t45.5 14 q29 16 51 59.5t22 86.5q0 45 -21.5 86t-60.5 57q-18 8 -44.5 13.5t-73.5 5.5h-166v-326zM459 233h186q45 0 78 7.5t55 25.5q33 25 53.5 70t20.5 96q0 61 -28.5 110.5t-75.5 63.5q-27 8 -48.5 10t-62.5 2h-178v-385z" />
<glyph unicode="C" horiz-adv-x="1122" d="M76 682q0 262 96 442q84 156 227.5 243t317.5 87q106 0 203.5 -30.5t156.5 -82.5l-129 -194q-109 80 -227 80q-72 0 -137.5 -33t-104.5 -90q-80 -119 -80 -367q0 -147 13.5 -234t46.5 -147q87 -159 272 -159h2q63 0 121.5 20.5t122.5 71.5l131 -180q-86 -70 -179 -102 t-216 -32q-293 0 -465 197q-172 193 -172 510z" />
<glyph unicode="D" horiz-adv-x="1302" d="M172 0v1423h287q61 0 133 -2t115 -6q92 -8 168.5 -42t142.5 -99q98 -98 146 -236.5t48 -330.5q0 -147 -35.5 -271.5t-107.5 -222.5q-66 -88 -156 -142.5t-190 -62.5q-41 -4 -91 -6t-114 -2h-346zM463 233h153q141 0 208 110t67 337q0 125 -14.5 226.5t-57.5 172.5 q-35 59 -87 89t-138 30h-131v-965z" />
<glyph unicode="E" horiz-adv-x="1097" d="M172 0v1423h811l-37 -233h-487v-330h407v-233h-403v-381h538v-246h-829z" />
<glyph unicode="F" horiz-adv-x="978" d="M172 0v1423h772l-33 -231h-452v-326h362v-233h-362v-633h-287z" />
<glyph unicode="G" horiz-adv-x="1318" d="M78 698q0 449 297 648q78 53 160.5 76.5t185.5 23.5q129 0 243.5 -41t209.5 -123l-152 -178q-134 110 -294 110h-3q-129 0 -205 -71q-72 -70 -96.5 -184.5t-24.5 -274.5q0 -299 107 -405q84 -80 223 -80q94 0 162 34v324h-217l-37 234h551v-680q-111 -66 -228.5 -96.5 t-244.5 -30.5q-160 0 -280 53t-206 164q-78 100 -114.5 219t-36.5 278z" />
<glyph unicode="H" horiz-adv-x="1329" d="M172 0v1423h285v-553h409v553h291v-1423h-291v635h-409v-635h-285z" />
<glyph unicode="I" horiz-adv-x="643" d="M172 0v1423h299v-1423h-299z" />
<glyph unicode="J" horiz-adv-x="626" d="M-29 -188q55 35 101.5 82t64.5 90q8 18 14.5 40.5t9.5 52t4 70.5t1 99v1177h291v-1147q0 -70 -1 -113.5t-4 -73.5t-6.5 -50.5t-9.5 -40.5q-16 -66 -51 -119t-81 -95t-98 -71.5t-102 -48.5z" />
<glyph unicode="K" horiz-adv-x="1259" d="M172 0v1423h293v-649l405 649h353l-455 -659l506 -764h-377l-432 743v-743h-293z" />
<glyph unicode="L" horiz-adv-x="989" d="M172 0v1423h293v-1185h510l-51 -238h-752z" />
<glyph unicode="M" horiz-adv-x="1730" d="M129 0l133 1423h367l186 -712q10 -39 17.5 -69t12.5 -55.5t10 -50t9 -51.5q18 106 51 232l193 706h365l126 -1423h-280l-53 760q-4 68 -7.5 124t-3.5 113q-12 -61 -23 -107t-30 -112l-225 -778h-244l-203 748q-14 53 -30.5 121.5t-26.5 129.5q0 -63 -3 -126.5t-7 -129.5 l-49 -743h-285z" />
<glyph unicode="N" horiz-adv-x="1333" d="M172 0v1423h317l273 -569q53 -115 93 -220.5t63 -182.5q-4 41 -8.5 93t-7.5 106.5t-5 104.5t-2 87l-6 581h272v-1423h-299l-244 545q-31 68 -60.5 136.5t-56 130.5t-46 114.5t-29.5 85.5q4 -43 6 -95.5t4 -105.5t3 -105.5t1 -97.5l9 -608h-277z" />
<glyph unicode="O" horiz-adv-x="1368" d="M78 707q0 231 84 405t237 260q63 35 139 52.5t156 17.5q141 0 255 -50.5t194 -144.5t122 -227t42 -301q0 -242 -81 -416t-237 -260q-66 -35 -130 -50.5t-154 -15.5q-162 0 -271.5 47.5t-191.5 153.5q-164 211 -164 529zM397 707q0 -371 127 -461q68 -49 170 -49 q150 0 216.5 120.5t66.5 393.5q0 111 -9.5 190.5t-27.5 138.5q-8 27 -26.5 58.5t-49 58.5t-74 45.5t-100.5 18.5q-72 0 -131 -34t-90 -91q-72 -135 -72 -389z" />
<glyph unicode="P" horiz-adv-x="1181" d="M172 0v1423h375q90 0 152.5 -4t106.5 -13t74.5 -22.5t61.5 -29.5q100 -55 152.5 -150.5t52.5 -218.5q0 -141 -64.5 -249.5t-181.5 -164.5q-25 -12 -50.5 -20t-57 -14.5t-74.5 -9.5t-103 -3h-157v-524h-287zM459 758h149q43 0 73 3t51.5 11t36.5 22.5t30 36.5 q18 29 26.5 63t8.5 85q0 100 -50.5 156.5t-142.5 56.5h-182v-434z" />
<glyph unicode="Q" horiz-adv-x="1363" d="M76 707q0 231 84 406t237 259q63 35 139 52.5t156 17.5q141 0 255 -50.5t194 -144.5t122 -227t42 -301q0 -233 -76 -400t-205 -253q29 -10 65.5 -33t61.5 -39q39 -23 84 -41.5t92 -18.5q23 0 45.5 1.5t40.5 3.5q23 2 41 6l-76 -187q-12 -6 -30 -12q-16 -4 -40 -8t-57 -4 q-41 0 -79.5 11t-72.5 26.5t-61.5 33t-48.5 29.5q-51 35 -128 76t-161 67q-160 0 -269 47.5t-191 153.5q-164 211 -164 529zM395 707q0 -371 127 -461q68 -49 170 -49q150 0 216.5 120.5t66.5 393.5q0 111 -9.5 190.5t-27.5 138.5q-8 27 -26.5 58.5t-49.5 58.5t-74 45.5 t-100 18.5q-72 0 -131 -34t-90 -91q-72 -135 -72 -389z" />
<glyph unicode="R" horiz-adv-x="1243" d="M172 0v1423h530q94 0 171 -29.5t132.5 -85t85 -132t29.5 -170.5q0 -80 -24.5 -151t-67.5 -124t-101.5 -85t-123.5 -34q23 -16 34 -28.5t25 -30.5t38 -53t50.5 -77t55 -90t57.5 -95q68 -111 141 -238h-338q-20 35 -35.5 61.5t-31 52t-30.5 54.5t-36 65q-53 96 -89 160 t-62.5 103t-46 58t-37.5 28q-23 10 -45 12v-594h-281zM453 809h96q92 0 139 10t76 37q55 51 55 143q0 137 -102 175q-25 10 -67 15t-95 5h-102v-385z" />
<glyph unicode="S" horiz-adv-x="1196" d="M37 98l106 224q100 -53 191.5 -84t200.5 -31q249 0 249 192q0 135 -186 187l-158 43q-106 29 -173.5 71.5t-106.5 108.5q-59 96 -60 217q0 98 37 179t104.5 139.5t162 90t206.5 31.5q131 0 256 -37.5t219 -105.5l-135 -205q-98 59 -175 84t-157 25q-88 0 -143 -46 t-55 -118q0 -55 33.5 -87t124.5 -56l172 -48q176 -47 268 -155.5t92 -267.5q0 -109 -42 -197t-119 -151.5t-185.5 -97.5t-241.5 -34q-123 0 -250 34t-235 95z" />
<glyph unicode="T" horiz-adv-x="1060" d="M33 1186v237h1026l-47 -237h-340v-1186h-291v1186h-348z" />
<glyph unicode="U" horiz-adv-x="1351" d="M164 432v991h293v-936q0 -66 6 -106.5t18 -63.5q51 -98 195 -98q94 0 150.5 44t66.5 122q4 23 4 46.5v80.5v911h291v-958q0 -51 -1 -84t-3 -55.5t-6 -42t-13 -41.5q-14 -43 -48 -90.5t-92 -87t-143 -65.5t-200 -26q-164 0 -280.5 48.5t-176.5 142.5q-18 27 -29.5 53.5 t-18.5 57t-10 68.5t-3 89z" />
<glyph unicode="V" horiz-adv-x="1208" d="M-18 1423h313l235 -741q14 -47 32 -108.5t34 -139.5q6 33 16.5 71t21.5 75.5t22.5 73.5t21.5 65l242 704h301l-496 -1433h-260z" />
<glyph unicode="W" horiz-adv-x="1753" d="M23 1423h303l123 -561q23 -100 36 -185t23 -149q10 -74 16 -135q2 20 8.5 66.5t15.5 108t21.5 134t28.5 146.5l127 575h313l131 -637q10 -51 20.5 -114.5t20.5 -122.5q10 -68 21 -139q2 16 10 72.5t19.5 128t24.5 145t24 127.5l116 540h301l-344 -1435h-313l-127 579 q-16 72 -28.5 139.5t-20.5 124t-12 96.5t-7 54q-8 -59 -18 -127q-10 -57 -21.5 -131t-27.5 -152l-119 -583h-326z" />
<glyph unicode="X" horiz-adv-x="1185" d="M-10 0l446 762l-385 661h350l193 -383l194 383h342l-370 -643l442 -780h-346l-256 502l-254 -502h-356z" />
<glyph unicode="Y" horiz-adv-x="1130" d="M-33 1423h344l183 -389q29 -59 44 -100t27 -82q12 31 32.5 79t43.5 99l184 393h338l-454 -837v-586h-299v586z" />
<glyph unicode="Z" horiz-adv-x="1075" d="M70 0v201l524 866q14 25 30.5 47.5t28.5 40.5q14 23 29 41q-18 -4 -41 -6q-20 -2 -46 -3t-58 -1h-439l64 237h852v-206l-529 -891q-12 -20 -25.5 -38t-23.5 -32q-12 -16 -24 -31q25 2 49 4q23 2 46 3t46 1h479l-74 -233h-888z" />
<glyph unicode="[" horiz-adv-x="581" d="M35 -319v1818h430v-184h-184v-1450h184v-184h-430z" />
<glyph unicode="\" horiz-adv-x="833" d="M-18 1487l233 72l612 -1596l-231 -72z" />
<glyph unicode="]" horiz-adv-x="606" d="M115 -135h184v1450h-184v184h430v-1818h-430v184z" />
<glyph unicode="^" horiz-adv-x="1363" d="M166 702l369 748h299l368 -748h-291l-227 488l-229 -488h-289z" />
<glyph unicode="_" horiz-adv-x="1024" d="M0 -154h1024v-102h-1024v102z" />
<glyph unicode="`" horiz-adv-x="692" d="M61 1346l119 213l424 -267l-84 -151z" />
<glyph unicode="a" horiz-adv-x="1056" d="M76 289q0 186 126 273t378 87h30.5t30.5 -2v43q0 88 -23.5 122t-99.5 34q-66 0 -141.5 -31t-161.5 -88l-117 197q41 27 78 45t92 41q78 33 146.5 47t140.5 14q133 0 220 -47t118 -135q6 -16 9 -31.5t6 -36t3 -49.5v-72l-6 -352v-18q0 -43 4 -73t15.5 -54.5t30 -45 t49.5 -42.5l-146 -168q-47 20 -87 53t-60 74q-16 -16 -31.5 -30.5t-32.5 -25.5q-80 -57 -211 -57q-176 0 -268 85t-92 243zM369 299q0 -61 33.5 -99t86.5 -38q39 0 76 18.5t68 52.5l4 226h-12q-143 0 -199.5 -33t-56.5 -127z" />
<glyph unicode="b" horiz-adv-x="1120" d="M121 0q8 18 13 34.5t8 40t4 58.5t1 90v971q0 98 -4 155.5t-14 102.5l281 66q6 -53 8 -93.5t2 -93.5v-248q0 -23 -1 -51t-5 -41q78 84 223 84q96 0 173 -37t131 -106.5t83 -167.5t29 -221q0 -160 -48.5 -282t-146.5 -200q-53 -43 -108.5 -62t-120.5 -19q-78 0 -133.5 23.5 t-100.5 72.5q-6 -29 -10 -41t-18 -35h-246zM424 281q29 -25 63.5 -46.5t90.5 -21.5q100 0 133 82q18 43 24 94t6 148q0 72 -2 107.5t-10 70.5q-16 68 -56 100.5t-93 32.5t-91 -27.5t-65 -56.5v-483z" />
<glyph unicode="c" horiz-adv-x="901" d="M74 516q0 182 61.5 302t153.5 183q53 35 123.5 56.5t136.5 21.5q53 0 106.5 -12t96.5 -35q29 -16 48 -30.5t54 -43.5l-133 -180q-41 39 -84 60.5t-82 21.5q-92 0 -135 -83t-43 -269q0 -104 13 -166.5t40 -97.5q47 -59 123 -60q90 0 188 86l17 15l125 -166 q-31 -31 -49.5 -46.5t-47.5 -31.5q-55 -33 -117.5 -49.5t-138.5 -16.5q-217 0 -336.5 142.5t-119.5 398.5z" />
<glyph unicode="d" horiz-adv-x="1130" d="M72 506q0 123 32.5 224t92 175t141.5 114t182 40q113 0 187 -60q-4 16 -6.5 62.5t-2.5 93.5v361l273 -43v-1090q0 -96 3 -162.5t9 -110.5t13.5 -70t13.5 -40h-246q-10 20 -16 61q-100 -88 -242 -88q-100 0 -180 38t-136.5 106.5t-87 167t-30.5 221.5zM377 504 q0 -84 9 -141.5t31.5 -92t59.5 -50t90 -15.5q39 0 77 21.5t58 45.5v500q-78 68 -149 68q-92 0 -134 -80t-42 -256z" />
<glyph unicode="e" horiz-adv-x="1044" d="M72 514q0 141 30.5 239.5t100.5 176.5q66 72 145.5 106.5t183.5 34.5q92 0 172 -28.5t132 -81.5q72 -74 105.5 -183.5t33.5 -275.5v-64h-606v-8q0 -123 57 -188.5t164 -65.5q139 0 266 105l107 -164q-178 -145 -396 -146q-113 0 -205 39t-156.5 109.5t-99 171 t-34.5 223.5zM373 639h317v12q0 59 -7 94t-26 64q-41 61 -120 61q-78 0 -121 -58t-43 -169v-4z" />
<glyph unicode="f" horiz-adv-x="634" d="M63 860v189h101q-4 33 -7 70.5t-3 72.5q0 156 88 241t250 85q68 0 126 -15.5t121 -50.5l-88 -170q-45 23 -66.5 29t-45.5 6q-53 0 -84 -31t-31 -88v-149h266l-69 -189h-195v-860h-268v860h-95z" />
<glyph unicode="g" horiz-adv-x="1130" d="M59 -102q0 43 8.5 66.5t16.5 39.5h254q-8 -18 -10 -31.5t-2 -35.5q0 -63 50 -96.5t146 -33.5q53 0 96.5 7.5t75.5 27.5q31 18 49.5 46t18.5 61q0 72 -55.5 97.5t-137.5 27.5l-116 2q-180 2 -252 33q-37 14 -58.5 49t-21.5 88q0 25 6 49t25.5 47t57.5 43.5t103 36.5 q-225 57 -225 291q0 80 32 145.5t89 111.5t139 71.5t182 25.5q45 0 88.5 -6t100.5 -21q43 -10 72.5 -16t56.5 -6q57 0 113.5 23.5t103.5 66.5l115 -174q-45 -41 -90.5 -59.5t-102.5 -18.5q-20 0 -39.5 2t-32.5 4q31 -37 46.5 -78t15.5 -94q0 -68 -28.5 -125t-81 -98 t-123 -64.5t-154.5 -23.5h-17.5t-23.5 2q-53 -25 -81 -44.5t-28 -41.5q0 -25 45 -25l148 -2q119 -2 190.5 -22.5t126.5 -71.5q90 -84 90 -223q0 -127 -84 -217q-70 -74 -180 -104.5t-233 -30.5q-113 0 -219.5 23.5t-178.5 88.5q-86 80 -86 187zM365 711q0 -80 45 -115 t116 -35q168 0 168 150q0 74 -44 114.5t-122 40.5t-120.5 -41t-42.5 -114z" />
<glyph unicode="h" horiz-adv-x="1142" d="M121 1452l280 66q10 -43 14.5 -112t4.5 -144v-209q0 -25 -2 -51.5t-2 -36.5q53 51 135 81.5t162 30.5q100 0 174 -40t98 -109q8 -23 13.5 -42.5t8.5 -41t4 -48t1 -63.5v-733h-269v705q0 78 -23.5 110.5t-82.5 32.5q-51 0 -110.5 -27.5t-106.5 -68.5v-752h-279v1212 q0 74 -5 140.5t-15 99.5z" />
<glyph unicode="i" horiz-adv-x="561" d="M113 1337q0 72 50 121t122 49q70 0 118 -49t48 -121t-49.5 -121t-120.5 -49q-70 0 -119 49.5t-49 120.5zM143 0v1030l275 43v-1073h-275z" />
<glyph unicode="j" horiz-adv-x="571" d="M18 -299q33 27 58.5 58.5t42.5 60.5q18 35 25.5 81t7.5 119v986l272 65v-1042q0 -74 -7 -128.5t-18.5 -92t-25 -62.5t-27.5 -43q-74 -96 -213 -154zM121 1337q0 72 49 122t121 50q70 0 120 -49t50 -119q0 -72 -50.5 -122t-121.5 -50q-72 0 -120 49.5t-48 118.5z" />
<glyph unicode="k" horiz-adv-x="1052" d="M127 1454l276 68q10 -59 13.5 -147.5t3.5 -192.5v-1182h-275v1182q0 70 -3 130t-15 142zM426 594l268 455h330l-334 -439l412 -610h-324z" />
<glyph unicode="l" horiz-adv-x="620" d="M113 1452l280 64q8 -43 11.5 -102.5t3.5 -170.5v-817q0 -68 1 -109t2 -65.5t5 -36.5t10 -22q16 -29 55 -29h14.5t16.5 4l47 -164q-74 -29 -164 -29q-88 0 -153.5 39t-89.5 105q-8 20 -12.5 38.5t-7.5 43t-4 61.5t-1 92v783q0 104 -3 173.5t-11 141.5z" />
<glyph unicode="m" horiz-adv-x="1622" d="M106 999l248 68q14 -23 21.5 -44.5t15.5 -61.5q111 106 256 106q129 0 213 -86q20 -20 41 -51q72 74 141.5 105.5t155.5 31.5q61 0 116.5 -17.5t90.5 -48.5q23 -18 37 -40.5t23.5 -52t13.5 -69.5t4 -94v-745h-266v692q0 47 -3.5 76t-12.5 45t-26.5 22.5t-44.5 6.5 q-39 0 -88 -23.5t-94 -64.5v-754h-260v682q0 98 -18.5 130t-75.5 32q-39 0 -87 -19.5t-93 -60.5v-764h-269v731q0 115 -8 172.5t-31 95.5z" />
<glyph unicode="n" horiz-adv-x="1110" d="M106 1006l244 69q39 -68 39 -131q31 23 58.5 41.5t62.5 36.5q41 23 91 34t97 11q88 0 158 -42t94 -110q20 -55 21 -149v-766h-271v682q0 90 -19 122t-73 32q-41 0 -92 -26t-98 -69v-741h-275v760q0 68 -9 130t-28 116z" />
<glyph unicode="o" horiz-adv-x="1079" d="M66 520q0 123 33.5 224.5t95 174t149 111.5t193.5 39q223 0 356 -158q63 -74 92 -164t29 -219q0 -135 -32 -231t-99 -174q-59 -68 -141.5 -107t-204.5 -39q-106 0 -193.5 39t-149 110t-95 171t-33.5 223zM371 526q0 -182 35 -264q18 -43 58 -64.5t81 -21.5q90 0 130 84 t40 270q0 209 -56 281q-42 55 -118 55q-49 0 -87 -28.5t-55 -77.5q-14 -41 -21 -98.5t-7 -135.5z" />
<glyph unicode="p" horiz-adv-x="1114" d="M129 1026l244 43q8 -29 12 -51.5t6 -46.5q35 43 106.5 70.5t151.5 27.5q55 0 109.5 -17.5t97.5 -45.5q43 -29 78 -69t61.5 -95.5t41 -127t14.5 -161.5q0 -84 -7.5 -149.5t-25 -120t-45 -99.5t-68.5 -88q-53 -57 -123.5 -88t-156.5 -31q-61 0 -117.5 14.5t-101.5 41.5 q4 -18 4 -41v-45v-328l-265 -70v1213q0 51 -1 87t-2 63.5t-4 54t-9 59.5zM412 256q29 -23 69.5 -42t81.5 -19q102 0 145.5 75.5t43.5 255.5q0 76 -6.5 134.5t-20.5 97.5q-31 88 -131 88q-106 0 -182 -80v-510z" />
<glyph unicode="q" horiz-adv-x="1126" d="M63 508q0 141 25 234.5t82 166.5q23 29 48.5 53.5t53.5 43.5q51 33 110.5 51t115.5 18q41 0 80.5 -8t73.5 -23.5t58.5 -35t32.5 -39.5q2 29 6.5 44t14.5 38h227q-14 -59 -19 -137t-5 -173v-1126l-260 -70v398q0 31 1 60.5t5 45.5q-84 -74 -209 -74q-90 0 -184.5 38 t-159.5 132q-27 39 -45.5 77t-29.5 81t-16.5 93t-5.5 112zM365 543q0 -133 15 -197.5t42 -91.5q23 -25 57.5 -39t69.5 -14q47 0 90 25.5t68 54.5v493q-29 31 -70 51.5t-88 20.5q-35 0 -66.5 -13.5t-52.5 -33.5q-45 -45 -55 -116t-10 -140z" />
<glyph unicode="r" horiz-adv-x="720" d="M102 1008l246 65q37 -66 43 -149q29 41 73 78.5t83 54.5q16 8 41.5 12t48.5 4q31 0 50.5 -4t51.5 -18l-75 -242q-39 20 -80 20q-92 0 -168 -88v-741h-275v700q0 106 -11 184.5t-28 123.5z" />
<glyph unicode="s" horiz-adv-x="966" d="M29 88l98 201q31 -18 73 -40t88 -39t94 -28.5t93 -11.5q59 0 99 34t40 85q0 53 -38.5 82.5t-122.5 46.5l-123 22q-53 10 -108.5 41t-84.5 66t-44 86t-15 102q0 76 28.5 139.5t82 108.5t128 69.5t166.5 24.5q127 0 215 -31.5t160 -66.5l-90 -184q-78 41 -138.5 58 t-119.5 17t-96 -27.5t-37 -74.5q0 -41 29.5 -64.5t101.5 -41.5l127 -33q49 -12 82 -25.5t56.5 -29t39.5 -31t31 -33.5q57 -72 57 -178q0 -82 -32.5 -148.5t-91 -115t-141.5 -75t-183 -26.5q-193 0 -424 121z" />
<glyph unicode="t" horiz-adv-x="684" d="M23 860v189h104q0 78 1 133t9 114l279 70q-8 -72 -12.5 -155t-4.5 -162h246l-70 -189h-176v-526q0 -100 23.5 -134t95.5 -34q18 0 40 5t58 15l35 -163q-115 -47 -223 -48q-104 0 -181 42t-102 112q-6 16 -10 30.5t-5 31t-2 40t-1 60.5v569h-104z" />
<glyph unicode="u" horiz-adv-x="1089" d="M121 352v672l270 51v-674q0 -72 6 -110.5t17 -61.5q10 -23 37.5 -36t58.5 -13q51 0 102.5 31t67.5 70v737l262 55v-801q0 -53 16.5 -103t47.5 -87l-195 -111q-55 39 -82 103q-51 -49 -121.5 -75t-154.5 -26q-111 0 -197 47.5t-113 122.5q-12 35 -17 82t-5 127z" />
<glyph unicode="v" horiz-adv-x="958" d="M-25 1032l281 35l152 -473q8 -27 17 -59.5t18.5 -67.5t17.5 -67.5t14 -57.5q6 47 22.5 117.5t41.5 148.5l141 441h287l-383 -1049h-228z" />
<glyph unicode="w" horiz-adv-x="1458" d="M18 1030l273 31l86 -404q10 -47 19.5 -103t19.5 -105q10 -57 20 -117q8 53 19 114q10 53 24.5 118t32.5 132l98 353h258l84 -347q16 -74 31.5 -140t26.5 -118q12 -59 20 -112q2 16 7 53t13.5 85t17.5 101.5t19 102.5l80 375h283l-299 -1049h-252l-94 360 q-16 63 -32.5 132t-27.5 122l-9 55.5t-7 49.5q-2 -16 -4 -29.5l-4 -27t-6 -32t-10 -46.5q-8 -35 -19.5 -82t-24 -99.5t-25.5 -101.5t-22 -86l-53 -215h-256z" />
<glyph unicode="x" horiz-adv-x="1026" d="M-49 0l387 559l-291 440l285 80q29 -49 49 -82.5t35.5 -62.5t29 -54.5t27.5 -56.5q8 -16 17.5 -35.5t15.5 -33.5q4 12 27.5 65t64.5 139q12 27 27.5 53.5t21.5 37.5h324l-312 -484l377 -565h-348l-110 193q-6 12 -19.5 35.5t-26 48t-23.5 45t-13 26.5q-6 -18 -35 -76.5 t-70 -126.5l-88 -145h-352z" />
<glyph unicode="y" horiz-adv-x="1017" d="M-12 1032l280 33l183 -612q6 -25 15 -62t19 -72q10 -41 21 -83q6 35 12 65q10 57 21 102q6 27 17 68t24 78l157 500h289l-381 -1065q-27 -76 -51.5 -132.5t-48 -96.5t-48 -68.5t-53.5 -48.5q-53 -39 -117.5 -63t-136.5 -34l-94 180q45 12 92.5 30t77.5 40q43 31 78 86 q10 16 17.5 28.5t13.5 26t12 29.5t16 39h-69q-12 37 -27.5 83t-30 89t-25.5 77t-15 46z" />
<glyph unicode="z" horiz-adv-x="933" d="M49 0v170l494 686h-453v193h778v-189l-462 -670h481l-66 -190h-772z" />
<glyph unicode="{" horiz-adv-x="798" d="M53 473v234q18 0 55 4t74 18t64.5 43t27.5 76v354q0 80 19.5 136.5t55.5 92t84 52t106 16.5h215v-233h-101q-47 0 -73.5 -12.5t-40 -32t-16.5 -43t-3 -43.5v-330q0 -72 -19.5 -113t-50 -62.5t-66.5 -28.5t-69 -9v-4q33 -2 69 -8.5t66.5 -28t50 -62t19.5 -112.5v-332 q0 -20 3 -44t16.5 -43t40 -31.5t73.5 -12.5h101v-233h-215q-55 0 -103.5 16t-84.5 53t-56.5 93.5t-20.5 136.5v352q0 47 -27.5 75.5t-64.5 43t-73.5 18.5t-55.5 4z" />
<glyph unicode="|" horiz-adv-x="454" d="M98 -37v1585h258v-1585h-258z" />
<glyph unicode="}" horiz-adv-x="802" d="M59 -86h101q47 0 73.5 12.5t40 31.5t16.5 43t3 44v330q0 72 19.5 112.5t50 62t66.5 28t69 10.5v4q-33 2 -69 8t-66.5 27.5t-50 62.5t-19.5 113v332q0 20 -3 43.5t-16.5 43t-40 32t-73.5 12.5h-101v233h222q51 0 98 -16.5t83 -53t56.5 -93t20.5 -136.5v-352 q0 -47 26.5 -76t62.5 -43t72.5 -18t59.5 -4v-234q-23 0 -59.5 -4t-72.5 -18.5t-62.5 -43t-26.5 -75.5v-355q0 -80 -20.5 -136t-55.5 -92t-83 -52t-106 -16h-215v233z" />
<glyph unicode="~" horiz-adv-x="1363" d="M209 643q16 33 39.5 64.5t54.5 56t71 40t91 15.5q53 0 110.5 -19.5t116.5 -45.5q57 -25 112.5 -49.5t96.5 -24.5q31 0 56.5 13.5t47 32.5t40 44t36.5 49l74 -221q-16 -33 -39.5 -64.5t-54.5 -56t-71 -40t-91 -15.5q-53 0 -110.5 19.5t-116.5 45.5q-57 25 -112.5 49.5 t-96.5 24.5q-31 0 -56.5 -13t-47 -32.5t-40 -44.5t-36.5 -49z" />
<glyph unicode="&#xa1;" horiz-adv-x="561" d="M106 1276q0 72 50.5 121t122.5 49q70 0 117.5 -49t47.5 -121t-49 -121t-121 -49q-70 0 -119 49t-49 121zM115 -35l57 1002h209l61 -955z" />
<glyph unicode="&#xa2;" horiz-adv-x="925" d="M88 516q0 182 61.5 302t153.5 183q63 43 148 64v199h192v-197q33 0 63.5 -10t59.5 -25q29 -16 48.5 -30.5t53.5 -43.5l-133 -180q-41 39 -84 60.5t-82 21.5q-92 0 -135 -83t-43 -269q0 -104 13.5 -166.5t39.5 -97.5q47 -59 123 -60q90 0 189 86l16 15l125 -166 q-31 -31 -49.5 -46.5t-46.5 -31.5q-72 -43 -158 -57v-211h-192v211q-174 29 -268.5 167t-94.5 365z" />
<glyph unicode="&#xa3;" horiz-adv-x="1245" d="M117 0v233h196v406h-196v209h196v145q0 92 33 178t97.5 154t158.5 109t219 41q117 0 229.5 -31t198.5 -109l-205 -219q-41 41 -93 64.5t-93 23.5q-68 0 -114 -22.5t-73.5 -58.5t-38.5 -82t-11 -93v-100h319v-209h-319v-406h518v-233h-1022z" />
<glyph unicode="&#xa4;" horiz-adv-x="915" d="M63 905l242 142q18 -31 30.5 -50.5t21 -35t15.5 -28.5t15 -30q12 2 28.5 3t33.5 1q20 0 41.5 -1t35.5 -5q6 12 12.5 25.5t14.5 29.5q6 12 14 27.5t17 30.5q8 16 18 33l234 -142l-91 -139q29 -41 42.5 -93t13.5 -118q0 -59 -15.5 -111.5t-44.5 -93.5l97 -145l-242 -142 q-18 31 -30.5 50.5t-20.5 35t-15.5 28.5t-15.5 30q-14 -4 -29.5 -4h-31.5q-41 0 -78 6q-6 -12 -12.5 -25.5t-14.5 -29.5q-6 -14 -14 -28.5t-17 -29.5q-8 -16 -18 -33l-233 142l90 139q-29 41 -41.5 95.5t-12.5 111.5q0 123 58 209zM326 557q0 -53 6 -95t16 -59 q14 -23 41 -37t62 -14q66 0 94 48.5t28 158.5q0 123 -41 164q-33 33 -86 33q-76 0 -102 -62q-10 -27 -14 -58.5t-4 -78.5z" />
<glyph unicode="&#xa5;" horiz-adv-x="1159" d="M-27 1423h344l183 -389q29 -59 44 -100t27 -82q12 31 33 79t43 99l184 393h338l-313 -573h211v-211h-324l-28 -53v-103h352v-211h-352v-272h-299v272h-346v211h346v103l-29 53h-317v211h206z" />
<glyph unicode="&#xa7;" horiz-adv-x="1257" d="M82 -51l262 129q8 -37 31.5 -63.5t54.5 -44t66.5 -25.5t70.5 -8q25 0 53.5 5t53 17t41 32.5t16.5 51.5q0 47 -46 80t-113.5 62.5t-148.5 60t-148.5 77t-113.5 113t-46 164.5q0 104 46 177t132 126q-59 41 -94 101.5t-35 134.5q0 90 40 155.5t103.5 108.5t141 63.5 t155.5 20.5q66 0 133.5 -10.5t130 -37t113.5 -69.5t82 -106l-258 -148q-23 59 -75 92t-114 33q-49 0 -91 -26.5t-42 -81.5q0 -51 47.5 -86t119 -66t153.5 -62.5t153.5 -76.5t118.5 -109.5t47 -157.5q0 -86 -49 -157.5t-123 -108.5q53 -43 83 -107.5t30 -135.5 q0 -100 -48 -172t-122 -117t-163 -65.5t-171 -20.5q-76 0 -147.5 12t-133 43t-111.5 80t-85 123zM397 657q0 -37 15.5 -62.5t39 -45t52 -33.5t57.5 -27l209 -96q70 41 70 125q0 29 -12.5 51.5t-32 41t-43 31.5t-45.5 24l-238 112q-72 -41 -72 -121z" />
<glyph unicode="&#xa8;" horiz-adv-x="1021" d="M143 1300q0 66 47 112t113 46q63 0 108.5 -46t45.5 -112t-46 -111.5t-112 -45.5q-63 0 -109.5 46t-46.5 111zM575 1300q0 33 12.5 62t34 50.5t51 33.5t62.5 12q63 0 108.5 -46t45.5 -112t-46 -111.5t-112 -45.5t-111 46t-45 111z" />
<glyph unicode="&#xa9;" horiz-adv-x="1638" d="M57 725q0 158 60.5 296t164 241.5t241.5 164t296 60.5t296 -60.5t241.5 -164t164 -241.5t60.5 -296t-60.5 -296t-164 -241.5t-241.5 -164t-296 -60.5t-296 60.5t-241.5 164t-164 241.5t-60.5 296zM266 725q0 -119 43 -224.5t119 -183t176 -124t215 -46.5t215.5 46.5 t176 124t118.5 183t43 224.5t-43 224.5t-118.5 183t-176 124t-215.5 46.5t-215 -46.5t-176 -124t-119 -183t-43 -224.5zM459 709q0 92 26.5 169.5t74.5 134t118 88.5t156 32q63 0 122.5 -19.5t106.5 -58.5l-94 -135q-41 29 -72 40t-61 11q-154 0 -154 -234q0 -141 38 -201.5 t124 -60.5q41 0 74.5 14.5t62.5 42.5l100 -126q-63 -47 -120.5 -68t-129.5 -21q-84 0 -152.5 28t-117.5 79t-75.5 122.5t-26.5 162.5z" />
<glyph unicode="&#xaa;" horiz-adv-x="827" d="M45 473v160h748v-160h-748zM70 993q0 139 94 205t285 66h45v30q0 66 -17.5 91.5t-75.5 25.5q-98 0 -227 -88l-88 147q31 20 59.5 34t69.5 30q109 47 215 47q98 0 163.5 -36t88.5 -101q10 -25 13 -51.5t1 -89.5l-4 -265v-14q0 -63 14.5 -95t59.5 -65l-98 -127 q-37 16 -72 41t-49 56q-23 -23 -30 -28t-19 -15q-59 -43 -158 -43q-131 0 -200.5 64.5t-69.5 180.5zM289 1001q0 -47 25.5 -74.5t66.5 -27.5q57 0 106 53l5 170h-11q-109 0 -150.5 -24.5t-41.5 -96.5z" />
<glyph unicode="&#xab;" horiz-adv-x="1101" d="M92 510l326 479l186 -125l-237 -354l237 -354l-186 -125zM588 510l325 479l187 -125l-238 -354l238 -354l-187 -125z" />
<glyph unicode="&#xac;" horiz-adv-x="1196" d="M115 406v223h903v-510h-252v287h-651z" />
<glyph unicode="&#xad;" horiz-adv-x="692" d="M102 442v238h492v-238h-492z" />
<glyph unicode="&#xae;" horiz-adv-x="1638" d="M57 725q0 158 60.5 296t164 241.5t241.5 164t296 60.5t296 -60.5t241.5 -164t164 -241.5t60.5 -296t-60.5 -296t-164 -241.5t-241.5 -164t-296 -60.5t-296 60.5t-241.5 164t-164 241.5t-60.5 296zM266 725q0 -119 43 -224.5t119 -183t176 -124t215 -46.5t215.5 46.5 t176 124t118.5 183t43 224.5t-43 224.5t-118.5 183t-176 124t-215.5 46.5t-215 -46.5t-176 -124t-119 -183t-43 -224.5zM537 350v783h313q117 0 184.5 -66t67.5 -174q0 -88 -51.5 -146.5t-128.5 -66.5q35 -14 58.5 -45t45.5 -62q20 -33 45 -70.5t45 -72.5q23 -39 47 -80 h-235q-14 23 -23.5 39.5t-18.5 30.5t-18.5 29.5t-21.5 33.5q-53 94 -75.5 130t-35.5 46v-309h-198zM735 813h53q59 0 81 18.5t22 59.5q0 43 -24.5 61.5t-75.5 18.5h-56v-158z" />
<glyph unicode="&#xaf;" horiz-adv-x="808" d="M82 1364v160h643v-160h-643z" />
<glyph unicode="&#xb0;" horiz-adv-x="808" d="M49 1087q0 80 24.5 145.5t69.5 113t109.5 73t142.5 25.5q84 0 147.5 -25.5t114.5 -77.5q47 -47 69 -106t22 -143q0 -88 -23 -150.5t-74 -112.5q-47 -45 -106.5 -69.5t-149.5 -24.5q-160 0 -253 95.5t-93 256.5zM272 1094q0 -53 4.5 -92t18.5 -62t40.5 -37t61.5 -14 q66 0 94.5 48t28.5 159q0 125 -41 164q-33 32 -86 32q-76 0 -102 -61q-10 -27 -14.5 -58.5t-4.5 -78.5z" />
<glyph unicode="&#xb1;" horiz-adv-x="972" d="M49 580v231h307v281h252v-281h307v-231h-307v-293h-252v293h-307zM53 0v231h858v-231h-858z" />
<glyph unicode="&#xb4;" horiz-adv-x="692" d="M80 1292l424 267l119 -213l-459 -205z" />
<glyph unicode="&#xb6;" horiz-adv-x="1261" d="M129 1065q0 102 35 176t97.5 120t150.5 67.5t194 21.5h551v-1708h-184v1561h-219v-1561h-185v950q-100 0 -181 28t-138 78t-89 118.5t-32 148.5z" />
<glyph unicode="&#xb7;" horiz-adv-x="622" d="M117 561q0 76 53 130t131 54q76 0 128 -54t52 -132q0 -37 -14 -69.5t-39 -57t-58.5 -39t-72.5 -14.5q-76 0 -128 53t-52 129z" />
<glyph unicode="&#xb8;" horiz-adv-x="878" d="M279 -358l61 129q25 -10 48.5 -20.5t57.5 -10.5q23 0 37.5 12t14.5 25q0 16 -11.5 28.5t-40.5 12.5q-16 0 -28 -4l-27 -9l-26 41l49 179l147 -13l-29 -78q78 -8 113 -55t35 -106q0 -76 -57.5 -128.5t-165.5 -52.5q-47 0 -97.5 16.5t-80.5 33.5z" />
<glyph unicode="&#xba;" horiz-adv-x="851" d="M53 473v160h748v-160h-748zM68 1153q0 92 25.5 169t71.5 130t110.5 83t144.5 30q170 0 268 -117q47 -55 68.5 -123t21.5 -166q0 -102 -24.5 -173t-73.5 -128q-45 -51 -106.5 -80.5t-153.5 -29.5q-80 0 -145.5 28.5t-111.5 81.5t-70.5 128t-24.5 167zM301 1159 q0 -66 8 -113t19 -73q12 -31 40.5 -48.5t57.5 -17.5q66 0 93.5 60.5t27.5 193.5q0 158 -39 203q-33 37 -84 37q-35 0 -60.5 -20.5t-39.5 -55.5q-23 -57 -23 -166z" />
<glyph unicode="&#xbb;" horiz-adv-x="1101" d="M88 156l238 354l-238 354l186 125l326 -479l-326 -479zM584 156l237 354l-237 354l186 125l326 -479l-326 -479z" />
<glyph unicode="&#xbf;" horiz-adv-x="917" d="M66 317q0 70 19 121t47 88t60.5 60.5t61.5 42.5q94 59 125 129.5t33 136.5q0 18 -1 36.5t-3 35.5h235l10 -54q23 -125 -21 -218t-159 -175q-23 -16 -46.5 -31.5t-42.5 -35t-32.5 -44t-13.5 -55.5q0 -76 50 -108.5t118 -32.5q43 0 77.5 10t62.5 25.5t47.5 32t33.5 26.5 l125 -176q-18 -20 -53 -47t-85 -51.5t-114.5 -41t-144.5 -16.5q-78 0 -148.5 24t-124 68t-85 107.5t-31.5 142.5zM328 1276q0 72 50 121t122 49q70 0 118 -49t48 -121t-49.5 -121t-120.5 -49q-70 0 -119 49t-49 121z" />
<glyph unicode="&#xc0;" d="M-20 0l466 1427h310l448 -1427h-307l-100 338h-418l-100 -338h-299zM235 1674l119 213l424 -267l-84 -151zM449 575h278q-12 43 -27 93q-12 41 -26.5 91t-24.5 103q-6 25 -15 67t-20 83q-10 49 -22 102q-12 -49 -25 -98q-10 -41 -21 -88t-22 -88q-20 -78 -36.5 -135.5 t-38.5 -129.5z" />
<glyph unicode="&#xc1;" d="M-10 0l467 1427h309l448 -1427h-307l-100 338h-418l-100 -338h-299zM393 1620l424 266l119 -213l-459 -205zM459 575h278q-12 43 -26 93q-12 41 -26.5 91t-25.5 103q-6 25 -15 67t-19 83q-10 49 -23 102l-24 -98q-10 -41 -21.5 -88t-21.5 -88q-20 -78 -37 -135.5 t-39 -129.5z" />
<glyph unicode="&#xc2;" d="M-20 0l466 1427h310l448 -1427h-307l-100 338h-418l-100 -338h-299zM213 1608l369 276l376 -276l-92 -150l-284 156l-277 -156zM449 575h278q-12 43 -27 93q-12 41 -26.5 91t-24.5 103q-6 25 -15 67t-20 83q-10 49 -22 102q-12 -49 -25 -98q-10 -41 -21 -88t-22 -88 q-20 -78 -36.5 -135.5t-38.5 -129.5z" />
<glyph unicode="&#xc3;" d="M-20 0l466 1427h310l448 -1427h-307l-100 338h-418l-100 -338h-299zM236 1682q43 53 105.5 86t148.5 33q45 0 75.5 -11.5t58 -24t58.5 -23.5t76 -11q84 0 139 61l84 -155q-47 -59 -104.5 -89t-149.5 -30q-47 0 -77.5 11t-58.5 23.5t-57.5 24t-74.5 11.5q-84 0 -139 -60z M449 575h278q-12 43 -27 93q-12 41 -26.5 91t-24.5 103q-6 25 -15 67t-20 83q-10 49 -22 102q-12 -49 -25 -98q-10 -41 -21 -88t-22 -88q-20 -78 -36.5 -135.5t-38.5 -129.5z" />
<glyph unicode="&#xc4;" d="M-20 0l466 1427h310l448 -1427h-307l-100 338h-418l-100 -338h-299zM229 1628q0 66 47 112t113 46q63 0 108.5 -46t45.5 -112t-46 -111.5t-112 -45.5q-63 0 -109.5 46t-46.5 111zM449 575h278q-12 43 -27 93q-12 41 -26.5 91t-24.5 103q-6 25 -15 67t-20 83 q-10 49 -22 102q-12 -49 -25 -98q-10 -41 -21 -88t-22 -88q-20 -78 -36.5 -135.5t-38.5 -129.5zM661 1628q0 33 12.5 62t34 50.5t51 33.5t62.5 12q63 0 108.5 -46t45.5 -112t-46 -111.5t-112 -45.5t-111 46t-45 111z" />
<glyph unicode="&#xc5;" d="M-20 0l466 1427h310l448 -1427h-307l-100 338h-418l-100 -338h-299zM385 1678q0 45 17.5 84t47.5 68.5t70 47t83 17.5t81.5 -17.5t68.5 -47t46.5 -68.5t16.5 -84t-17.5 -84t-47.5 -69t-69 -47t-84 -17q-43 0 -81.5 17t-68.5 47t-46.5 69t-16.5 84zM449 575h278 q-12 43 -27 93q-12 41 -26.5 91t-24.5 103q-6 25 -15 67t-20 83q-10 49 -22 102q-12 -49 -25 -98q-10 -41 -21 -88t-22 -88q-20 -78 -36.5 -135.5t-38.5 -129.5zM496 1678q0 -43 30.5 -74t71.5 -31q43 0 74 31t31 74t-30 73.5t-70 30.5q-45 0 -76 -30.5t-31 -73.5z" />
<glyph unicode="&#xc6;" horiz-adv-x="1765" d="M-61 0l847 1423h865l-37 -233h-488v-330h408v-233h-404v-381h547v-246h-837v338h-391l-191 -338h-319zM582 575h258v330q0 33 1 63.5t3 53.5q2 27 6 51q-59 -115 -113 -213l-46 -86t-43.5 -81t-38 -68.5t-27.5 -49.5z" />
<glyph unicode="&#xc7;" horiz-adv-x="1122" d="M76 682q0 262 96 442q84 156 227.5 243t317.5 87q106 0 203.5 -30.5t156.5 -82.5l-129 -194q-109 80 -227 80q-72 0 -137.5 -33t-104.5 -90q-80 -119 -80 -367q0 -147 13.5 -234t46.5 -147q88 -160 274 -159q51 0 113.5 18t130.5 74l131 -180q-86 -70 -179 -102t-216 -32 h-35l-14 -41q78 -8 112.5 -55t34.5 -106q0 -76 -57.5 -128.5t-165.5 -52.5q-47 0 -97.5 16.5t-80.5 33.5l61 129q25 -10 48.5 -20.5t58.5 -10.5q23 0 37 12t14 25q0 16 -11.5 28.5t-39.5 12.5q-16 0 -28.5 -6.5t-27.5 -6.5l-26 41l41 150q-172 43 -289 176 q-172 193 -172 510z" />
<glyph unicode="&#xc8;" horiz-adv-x="1097" d="M172 0v1423h811l-37 -233h-487v-330h407v-233h-403v-381h538v-246h-829zM256 1674l119 213l424 -267l-84 -151z" />
<glyph unicode="&#xc9;" horiz-adv-x="1097" d="M172 0v1423h811l-37 -233h-487v-330h407v-233h-403v-381h538v-246h-829zM285 1620l424 267l119 -213l-459 -205z" />
<glyph unicode="&#xca;" horiz-adv-x="1097" d="M172 0v1423h811l-37 -233h-487v-330h407v-233h-403v-381h538v-246h-829zM195 1608l369 276l376 -276l-92 -150l-284 156l-277 -156z" />
<glyph unicode="&#xcb;" horiz-adv-x="1097" d="M172 0v1423h811l-37 -233h-487v-330h407v-233h-403v-381h538v-246h-829zM204 1628q0 66 47 112t113 46q63 0 108.5 -46t45.5 -112t-46 -111.5t-112 -45.5q-63 0 -109.5 46t-46.5 111zM636 1628q0 33 12.5 62t34 50.5t51 33.5t62.5 12q63 0 108.5 -46t45.5 -112 t-46 -111.5t-112 -45.5t-111 46t-45 111z" />
<glyph unicode="&#xcc;" horiz-adv-x="643" d="M30 1674l119 213l424 -267l-84 -151zM172 0v1423h299v-1423h-299z" />
<glyph unicode="&#xcd;" horiz-adv-x="643" d="M98 1620l424 267l119 -213l-459 -205zM172 0v1423h299v-1423h-299z" />
<glyph unicode="&#xce;" horiz-adv-x="643" d="M-41 1608l369 276l376 -276l-92 -150l-284 156l-277 -156zM172 0v1423h299v-1423h-299z" />
<glyph unicode="&#xcf;" horiz-adv-x="643" d="M-43 1628q0 66 47 112t113 46q63 0 108.5 -46t45.5 -112t-46 -111.5t-112 -45.5q-63 0 -109.5 46t-46.5 111zM172 0v1423h299v-1423h-299zM389 1628q0 33 12.5 62t34 50.5t51 33.5t62.5 12q63 0 108.5 -46t45.5 -112t-46 -111.5t-112 -45.5t-111 46t-45 111z" />
<glyph unicode="&#xd1;" horiz-adv-x="1333" d="M172 0v1423h317l273 -569q53 -115 93 -220.5t63 -182.5q-4 41 -8.5 93t-7.5 106.5t-5 104.5t-2 87l-6 581h272v-1423h-299l-244 545q-31 68 -60.5 136.5t-56 130.5t-46 114.5t-29.5 85.5q4 -43 6 -95.5t4 -105.5t3 -105.5t1 -97.5l9 -608h-277zM301 1682q43 53 105.5 86 t148.5 33q45 0 75.5 -11.5t58 -24t58.5 -23.5t76 -11q84 0 139 61l84 -155q-47 -59 -104.5 -89t-149.5 -30q-47 0 -77.5 11t-58.5 23.5t-57.5 24t-74.5 11.5q-84 0 -139 -60z" />
<glyph unicode="&#xd2;" horiz-adv-x="1368" d="M78 707q0 231 84 405t237 260q63 35 139 52.5t156 17.5q141 0 255 -50.5t194 -144.5t122 -227t42 -301q0 -242 -81 -416t-237 -260q-66 -35 -130 -50.5t-154 -15.5q-162 0 -271.5 47.5t-191.5 153.5q-164 211 -164 529zM368 1674l119 213l424 -267l-84 -151zM397 707 q0 -371 127 -461q68 -49 170 -49q150 0 216.5 120.5t66.5 393.5q0 111 -9.5 190.5t-27.5 138.5q-8 27 -26.5 58.5t-49 58.5t-74 45.5t-100.5 18.5q-72 0 -131 -34t-90 -91q-72 -135 -72 -389z" />
<glyph unicode="&#xd3;" horiz-adv-x="1368" d="M78 707q0 231 84 405t237 260q63 35 139 52.5t156 17.5q141 0 255 -50.5t194 -144.5t122 -227t42 -301q0 -242 -81 -416t-237 -260q-66 -35 -130 -50.5t-154 -15.5q-162 0 -271.5 47.5t-191.5 153.5q-164 211 -164 529zM397 707q0 -371 127 -461q68 -49 170 -49 q150 0 216.5 120.5t66.5 393.5q0 111 -9.5 190.5t-27.5 138.5q-8 27 -26.5 58.5t-49 58.5t-74 45.5t-100.5 18.5q-72 0 -131 -34t-90 -91q-72 -135 -72 -389zM479 1620l424 267l119 -213l-459 -205z" />
<glyph unicode="&#xd4;" horiz-adv-x="1368" d="M78 707q0 231 84 405t237 260q63 35 139 52.5t156 17.5q141 0 255 -50.5t194 -144.5t122 -227t42 -301q0 -242 -81 -416t-237 -260q-66 -35 -130 -50.5t-154 -15.5q-162 0 -271.5 47.5t-191.5 153.5q-164 211 -164 529zM295 1608l369 276l376 -276l-92 -150l-284 156 l-277 -156zM397 707q0 -371 127 -461q68 -49 170 -49q150 0 216.5 120.5t66.5 393.5q0 111 -9.5 190.5t-27.5 138.5q-8 27 -26.5 58.5t-49 58.5t-74 45.5t-100.5 18.5q-72 0 -131 -34t-90 -91q-72 -135 -72 -389z" />
<glyph unicode="&#xd5;" horiz-adv-x="1368" d="M78 707q0 231 84 405t237 260q63 35 139 52.5t156 17.5q141 0 255 -50.5t194 -144.5t122 -227t42 -301q0 -242 -81 -416t-237 -260q-66 -35 -130 -50.5t-154 -15.5q-162 0 -271.5 47.5t-191.5 153.5q-164 211 -164 529zM299 1682q43 53 105.5 86t148.5 33 q45 0 75.5 -11.5t58 -24t58.5 -23.5t76 -11q84 0 139 61l84 -155q-47 -59 -104.5 -89t-149.5 -30q-47 0 -77.5 11t-58.5 23.5t-57.5 24t-74.5 11.5q-84 0 -139 -60zM397 707q0 -371 127 -461q68 -49 170 -49q150 0 216.5 120.5t66.5 393.5q0 111 -9.5 190.5t-27.5 138.5 q-8 27 -26.5 58.5t-49 58.5t-74 45.5t-100.5 18.5q-72 0 -131 -34t-90 -91q-72 -135 -72 -389z" />
<glyph unicode="&#xd6;" horiz-adv-x="1368" d="M78 707q0 231 84 405t237 260q63 35 139 52.5t156 17.5q141 0 255 -50.5t194 -144.5t122 -227t42 -301q0 -242 -81 -416t-237 -260q-66 -35 -130 -50.5t-154 -15.5q-162 0 -271.5 47.5t-191.5 153.5q-164 211 -164 529zM327 1628q0 66 47 112t113 46q63 0 108.5 -46 t45.5 -112t-46 -111.5t-112 -45.5q-63 0 -109.5 46t-46.5 111zM397 707q0 -371 127 -461q68 -49 170 -49q150 0 216.5 120.5t66.5 393.5q0 111 -9.5 190.5t-27.5 138.5q-8 27 -26.5 58.5t-49 58.5t-74 45.5t-100.5 18.5q-72 0 -131 -34t-90 -91q-72 -135 -72 -389zM759 1628 q0 33 12.5 62t34 50.5t51 33.5t62.5 12q63 0 108.5 -46t45.5 -112t-46 -111.5t-112 -45.5t-111 46t-45 111z" />
<glyph unicode="&#xd8;" horiz-adv-x="1404" d="M84 707q0 231 84 406t238 259q63 35 139 52.5t155 17.5q170 0 297 -72l125 203l150 -84l-139 -225q88 -94 134 -231.5t46 -313.5q0 -242 -81 -416t-237 -260q-66 -35 -130 -50.5t-154 -15.5q-190 0 -318 70l-137 -227l-150 84l156 256q-92 113 -135 251t-43 296zM403 707 q0 -164 25 -275l440 725q-31 29 -72.5 46.5t-99.5 17.5q-72 0 -132 -34t-89 -91q-72 -135 -72 -389zM518 252q80 -55 182 -55q150 0 216.5 120.5t66.5 393.5q0 84 -6 149.5t-16 118.5z" />
<glyph unicode="&#xd9;" horiz-adv-x="1351" d="M164 432v991h293v-936q0 -66 6 -106.5t18 -63.5q51 -98 195 -98q94 0 150.5 44t66.5 122q4 23 4 46.5v80.5v911h291v-958q0 -51 -1 -84t-3 -55.5t-6 -42t-13 -41.5q-14 -43 -48 -90.5t-92 -87t-143 -65.5t-200 -26q-164 0 -280.5 48.5t-176.5 142.5q-18 27 -29.5 53.5 t-18.5 57t-10 68.5t-3 89zM307 1674l119 213l424 -267l-84 -151z" />
<glyph unicode="&#xda;" horiz-adv-x="1351" d="M164 432v991h293v-936q0 -66 6 -106.5t18 -63.5q51 -98 195 -98q94 0 150.5 44t66.5 122q4 23 4 46.5v80.5v911h291v-958q0 -51 -1 -84t-3 -55.5t-6 -42t-13 -41.5q-14 -43 -48 -90.5t-92 -87t-143 -65.5t-200 -26q-164 0 -280.5 48.5t-176.5 142.5q-18 27 -29.5 53.5 t-18.5 57t-10 68.5t-3 89zM367 1620l424 267l119 -213l-459 -205z" />
<glyph unicode="&#xdb;" horiz-adv-x="1351" d="M164 432v991h293v-936q0 -66 6 -106.5t18 -63.5q51 -98 195 -98q94 0 150.5 44t66.5 122q4 23 4 46.5v80.5v911h291v-958q0 -51 -1 -84t-3 -55.5t-6 -42t-13 -41.5q-14 -43 -48 -90.5t-92 -87t-143 -65.5t-200 -26q-164 0 -280.5 48.5t-176.5 142.5q-18 27 -29.5 53.5 t-18.5 57t-10 68.5t-3 89zM254 1608l369 276l376 -276l-92 -150l-284 156l-277 -156z" />
<glyph unicode="&#xdc;" horiz-adv-x="1351" d="M164 432v991h293v-936q0 -66 6 -106.5t18 -63.5q51 -98 195 -98q94 0 150.5 44t66.5 122q4 23 4 46.5v80.5v911h291v-958q0 -51 -1 -84t-3 -55.5t-6 -42t-13 -41.5q-14 -43 -48 -90.5t-92 -87t-143 -65.5t-200 -26q-164 0 -280.5 48.5t-176.5 142.5q-18 27 -29.5 53.5 t-18.5 57t-10 68.5t-3 89zM284 1628q0 66 47 112t113 46q63 0 108.5 -46t45.5 -112t-46 -111.5t-112 -45.5q-63 0 -109.5 46t-46.5 111zM716 1628q0 33 12.5 62t34 50.5t51 33.5t62.5 12q63 0 108.5 -46t45.5 -112t-46 -111.5t-112 -45.5t-111 46t-45 111z" />
<glyph unicode="&#xdf;" horiz-adv-x="1269" d="M16 836v213h168v32q0 45 3 84t13.5 74t31 66.5t55.5 64.5q86 80 213 105q27 4 54.5 7t57.5 3q205 0 325 -91t120 -247q0 -166 -152 -256l-65 -39q-27 -16 -27 -37q0 -29 49 -51q49 -23 82 -38t57.5 -30.5t44 -32t39.5 -36.5q86 -94 86 -232q0 -94 -33.5 -172t-95 -133 t-147.5 -86t-190 -31q-53 0 -89 5.5t-65 19.5l61 188q27 -10 62 -10q94 0 145 54.5t51 154.5q0 43 -8 68.5t-35 54.5q-37 41 -75 65l-93 60q-90 57 -90 166q0 55 19.5 88t48.5 55l47 37q66 51 66 131q0 45 -9.5 72.5t-27.5 50.5q-16 18 -45 29.5t-58 11.5q-53 0 -92 -34 t-49 -87q-4 -23 -5 -54.5t-1 -88.5v-799q0 -78 -15.5 -134.5t-25.5 -76.5h-279q4 12 11.5 41t13.5 64.5t11 76.5t5 78v576h-168z" />
<glyph unicode="&#xe0;" horiz-adv-x="1056" d="M76 289q0 186 126 273t378 87h27t34 -2v43q0 88 -23.5 122t-99.5 34q-66 0 -141.5 -31t-161.5 -88l-117 197q37 23 76 43t94 43q78 33 146.5 47t140.5 14q133 0 220 -47t118 -135q6 -16 9 -31.5t6 -36t3 -49.5v-72l-6 -352v-18q0 -43 4 -73t15.5 -54.5t30 -45t49.5 -42.5 l-146 -168q-47 20 -87 53t-60 74q-14 -16 -30.5 -30.5t-33.5 -25.5q-80 -57 -211 -57q-176 0 -268 85t-92 243zM231 1346l119 213l424 -267l-84 -151zM369 299q0 -61 33.5 -99t86.5 -38q39 0 76 18.5t68 52.5l4 226h-12q-143 0 -199.5 -33t-56.5 -127z" />
<glyph unicode="&#xe1;" horiz-adv-x="1056" d="M76 289q0 186 126 273t378 87h30.5t30.5 -2v43q0 88 -23.5 122t-99.5 34q-66 0 -141.5 -31t-161.5 -88l-117 197q41 27 78 45t92 41q78 33 146.5 47t140.5 14q133 0 220 -47t118 -135q6 -16 9 -31.5t6 -36t3 -49.5v-72l-6 -352v-18q0 -43 4 -73t15.5 -54.5t30 -45 t49.5 -42.5l-146 -168q-47 20 -87 53t-60 74q-16 -16 -31.5 -30.5t-32.5 -25.5q-80 -57 -211 -57q-176 0 -268 85t-92 243zM295 1292l424 267l119 -213l-459 -205zM369 299q0 -61 33.5 -99t86.5 -38q39 0 76 18.5t68 52.5l4 226h-12q-143 0 -199.5 -33t-56.5 -127z" />
<glyph unicode="&#xe2;" horiz-adv-x="1056" d="M76 289q0 186 126 273t378 87h30.5t30.5 -2v43q0 88 -23.5 122t-99.5 34q-66 0 -141.5 -31t-161.5 -88l-117 197q41 27 78 45t92 41q78 33 146.5 47t140.5 14q133 0 220 -47t118 -135q6 -16 9 -31.5t6 -36t3 -49.5v-72l-6 -352v-18q0 -43 4 -73t15.5 -54.5t30 -45 t49.5 -42.5l-146 -168q-47 20 -87 53t-60 74q-16 -16 -31.5 -30.5t-32.5 -25.5q-80 -57 -211 -57q-176 0 -268 85t-92 243zM137 1280l369 276l376 -276l-92 -150l-284 156l-277 -156zM369 299q0 -61 33.5 -99t86.5 -38q39 0 76 18.5t68 52.5l4 226h-12q-143 0 -199.5 -33 t-56.5 -127z" />
<glyph unicode="&#xe3;" horiz-adv-x="1056" d="M76 289q0 186 126 273t378 87h30.5t30.5 -2v43q0 88 -23.5 122t-99.5 34q-66 0 -141.5 -31t-161.5 -88l-117 197q41 27 78 45t92 41q78 33 146.5 47t140.5 14q133 0 220 -47t118 -135q6 -16 9 -31.5t6 -36t3 -49.5v-72l-6 -352v-18q0 -43 4 -73t15.5 -54.5t30 -45 t49.5 -42.5l-146 -168q-47 20 -87 53t-60 74q-16 -16 -31.5 -30.5t-32.5 -25.5q-80 -57 -211 -57q-176 0 -268 85t-92 243zM152 1354q43 53 105.5 86t148.5 33q45 0 75.5 -11.5t58 -24t58.5 -23.5t76 -11q84 0 139 61l84 -155q-47 -59 -104.5 -89t-149.5 -30q-47 0 -77.5 11 t-58.5 23.5t-57.5 24t-74.5 11.5q-84 0 -139 -60zM369 299q0 -61 33.5 -99t86.5 -38q39 0 76 18.5t68 52.5l4 226h-12q-143 0 -199.5 -33t-56.5 -127z" />
<glyph unicode="&#xe4;" horiz-adv-x="1056" d="M76 289q0 186 126 273t378 87h27t34 -2v43q0 88 -23.5 122t-99.5 34q-66 0 -141.5 -31t-161.5 -88l-117 197q25 16 44.5 27.5t38 20.5t39 18t48.5 20q78 33 146.5 47t140.5 14q133 0 220 -47t118 -135q6 -16 9 -31.5t5 -36t3 -49.5t1 -72l-6 -352v-18q0 -43 4 -73 t15.5 -54.5t30 -45t49.5 -42.5l-146 -168q-47 20 -87 53t-60 74q-29 -29 -38 -37t-26 -19q-80 -57 -211 -57q-176 0 -268 85t-92 243zM135 1300q0 68 49 116t117 48q66 0 113 -48t47 -116t-48 -115.5t-116 -47.5q-66 0 -114 48t-48 115zM369 299q0 -61 33.5 -99t86.5 -38 q39 0 76 18.5t68 52.5l4 226h-12q-143 0 -199.5 -33t-56.5 -127zM567 1300q0 68 48.5 116t117.5 48q66 0 113 -48t47 -116t-48 -115.5t-116 -47.5t-115 48t-47 115z" />
<glyph unicode="&#xe5;" horiz-adv-x="1056" d="M76 289q0 186 126 273t378 87h30.5t30.5 -2v43q0 88 -23.5 122t-99.5 34q-66 0 -141.5 -31t-161.5 -88l-117 197q41 27 78 45t92 41q78 33 146.5 47t140.5 14q133 0 220 -47t118 -135q6 -16 9 -31.5t6 -36t3 -49.5v-72l-6 -352v-18q0 -43 4 -73t15.5 -54.5t30 -45 t49.5 -42.5l-146 -168q-47 20 -87 53t-60 74q-16 -16 -31.5 -30.5t-32.5 -25.5q-80 -57 -211 -57q-176 0 -268 85t-92 243zM313 1350q0 45 17.5 84t47.5 68.5t70 47t83 17.5t81.5 -17.5t68.5 -47t46.5 -68.5t16.5 -84t-17.5 -84t-47.5 -69t-69 -47t-84 -17q-43 0 -81.5 17 t-68.5 47t-46.5 69t-16.5 84zM369 299q0 -61 33.5 -99t86.5 -38q39 0 76 18.5t68 52.5l4 226h-12q-143 0 -199.5 -33t-56.5 -127zM424 1350q0 -43 30.5 -74t71.5 -31q43 0 74 31t31 74t-30 73.5t-70 30.5q-45 0 -76 -30.5t-31 -73.5z" />
<glyph unicode="&#xe6;" horiz-adv-x="1593" d="M66 289q0 186 125.5 273t377.5 87q16 0 27.5 -1t34.5 -1v43q0 88 -23.5 122t-99.5 34q-66 0 -141.5 -31t-161.5 -88l-117 197q35 23 75 43t95 43q78 33 146.5 47t140.5 14q86 0 152.5 -29.5t113.5 -66.5q43 41 108.5 67.5t141.5 26.5q92 0 172 -28.5t131 -82.5 q72 -74 105.5 -183t33.5 -275v-64h-606v-8q0 -123 57.5 -188.5t163.5 -65.5q139 0 266 105l107 -164q-178 -145 -395 -146q-55 0 -96.5 5.5t-77 17.5t-69.5 31.5t-71 48.5q-10 6 -18 16t-19 21q-25 -35 -58.5 -58.5t-49.5 -34.5q-41 -23 -93 -39t-118 -16q-176 0 -268 85 t-92 243zM358 299q0 -61 34 -99t87 -38q39 0 77 19.5t69 54.5l2 223h-13q-143 0 -199.5 -33t-56.5 -127zM901 637h318v12q0 59 -7.5 94t-25.5 64q-41 61 -121 61q-78 0 -121 -58t-43 -169v-4z" />
<glyph unicode="&#xe7;" horiz-adv-x="901" d="M74 516q0 182 61.5 302t153.5 183q53 35 123.5 56.5t136.5 21.5q53 0 105.5 -12t97.5 -35q29 -16 48 -30.5t54 -43.5l-133 -180q-41 39 -84 60.5t-82 21.5q-92 0 -135 -83t-43 -269q0 -104 12 -166.5t41 -97.5q47 -59 123 -60q90 0 188 86l17 15l125 -166 q-31 -31 -49.5 -46.5t-47.5 -31.5q-53 -31 -111.5 -48.5t-127.5 -17.5l-15 -41q78 -8 113 -55t35 -106q0 -76 -57.5 -128.5t-165.5 -52.5q-47 0 -97.5 16.5t-80.5 33.5l61 129q25 -10 48.5 -20.5t57.5 -10.5q23 0 37.5 12t14.5 25q0 16 -11.5 28.5t-40.5 12.5 q-16 0 -28 -6.5t-27 -6.5l-26 41l38 144q-160 39 -244.5 174t-84.5 352z" />
<glyph unicode="&#xe8;" horiz-adv-x="1044" d="M72 514q0 141 30.5 239.5t100.5 176.5q66 72 145.5 106.5t183.5 34.5q92 0 172 -28.5t132 -81.5q72 -74 105.5 -183.5t33.5 -275.5v-64h-606v-8q0 -123 57 -188.5t164 -65.5q139 0 266 105l107 -164q-178 -145 -396 -146q-113 0 -205 39t-156.5 109.5t-99 171 t-34.5 223.5zM184 1346l119 213l424 -267l-84 -151zM373 639h317v12q0 59 -7 94t-26 64q-41 61 -120 61q-78 0 -121 -58t-43 -169v-4z" />
<glyph unicode="&#xe9;" horiz-adv-x="1044" d="M72 514q0 141 30.5 239.5t100.5 176.5q66 72 145.5 106.5t183.5 34.5q92 0 172 -28.5t132 -81.5q72 -74 105.5 -183.5t33.5 -275.5v-64h-606v-8q0 -123 57 -188.5t164 -65.5q139 0 266 105l107 -164q-178 -145 -396 -146q-113 0 -205 39t-156.5 109.5t-99 171 t-34.5 223.5zM289 1292l424 267l119 -213l-459 -205zM373 639h317v12q0 59 -7 94t-26 64q-41 61 -120 61q-78 0 -121 -58t-43 -169v-4z" />
<glyph unicode="&#xea;" horiz-adv-x="1044" d="M72 514q0 141 30.5 239.5t100.5 176.5q66 72 145.5 106.5t183.5 34.5q92 0 172 -28.5t132 -81.5q72 -74 105.5 -183.5t33.5 -275.5v-64h-606v-8q0 -123 57 -188.5t164 -65.5q139 0 266 105l107 -164q-178 -145 -396 -146q-113 0 -205 39t-156.5 109.5t-99 171 t-34.5 223.5zM162 1280l369 276l376 -276l-92 -150l-284 156l-277 -156zM373 639h317v12q0 59 -7 94t-26 64q-41 61 -120 61q-78 0 -121 -58t-43 -169v-4z" />
<glyph unicode="&#xeb;" horiz-adv-x="1044" d="M72 514q0 141 30.5 239.5t100.5 176.5q66 72 145.5 106.5t183.5 34.5q92 0 172 -28.5t132 -81.5q72 -74 105.5 -183.5t33.5 -275.5v-64h-606v-8q0 -123 57 -188.5t164 -65.5q139 0 266 105l107 -164q-178 -145 -396 -146q-113 0 -205 39t-156.5 109.5t-99 171 t-34.5 223.5zM161 1300q0 66 47 112t113 46q63 0 108.5 -46t45.5 -112t-46 -111.5t-112 -45.5q-63 0 -109.5 46t-46.5 111zM373 639h317v12q0 59 -7 94t-26 64q-41 61 -120 61q-78 0 -121 -58t-43 -169v-4zM593 1300q0 33 12.5 62t34 50.5t51 33.5t62.5 12q63 0 108.5 -46 t45.5 -112t-46 -111.5t-112 -45.5t-111 46t-45 111z" />
<glyph unicode="&#xec;" horiz-adv-x="561" d="M-39 1346l119 213l424 -267l-84 -151zM143 0v1030l275 43v-1073h-275z" />
<glyph unicode="&#xed;" horiz-adv-x="561" d="M78 1292l424 267l119 -213l-459 -205zM143 0v1030l275 43v-1073h-275z" />
<glyph unicode="&#xee;" horiz-adv-x="561" d="M-76 1280l369 276l376 -276l-92 -150l-284 156l-277 -156zM143 0v1030l275 43v-1073h-275z" />
<glyph unicode="&#xef;" horiz-adv-x="561" d="M-68 1300q0 66 47 112t113 46q63 0 108.5 -46t45.5 -112t-46 -111.5t-112 -45.5q-63 0 -109.5 46t-46.5 111zM143 0v1030l275 43v-1073h-275zM364 1300q0 33 12.5 62t34 50.5t51 33.5t62.5 12q63 0 108.5 -46t45.5 -112t-46 -111.5t-112 -45.5t-111 46t-45 111z" />
<glyph unicode="&#xf1;" horiz-adv-x="1110" d="M106 1006l244 69q39 -68 39 -131q31 23 58.5 41.5t62.5 36.5q41 23 91 34t97 11q88 0 158 -42t94 -110q20 -55 21 -149v-766h-271v682q0 90 -19 122t-73 32q-41 0 -92 -26t-98 -69v-741h-275v760q0 68 -9 130t-28 116zM181 1354q43 53 105.5 86t148.5 33q45 0 75.5 -11.5 t58 -24t58.5 -23.5t76 -11q84 0 139 61l84 -155q-47 -59 -104.5 -89t-149.5 -30q-47 0 -77.5 11t-58.5 23.5t-57.5 24t-74.5 11.5q-84 0 -139 -60z" />
<glyph unicode="&#xf2;" horiz-adv-x="1079" d="M66 520q0 123 33.5 224.5t95 174t149 111.5t193.5 39q223 0 356 -158q63 -74 92 -164t29 -219q0 -135 -32 -231t-99 -174q-59 -68 -141.5 -107t-204.5 -39q-106 0 -193.5 39t-149 110t-95 171t-33.5 223zM184 1346l119 213l424 -267l-84 -151zM371 526q0 -182 35 -264 q18 -43 58 -64.5t81 -21.5q90 0 130 84t40 270q0 209 -56 281q-42 55 -118 55q-49 0 -87 -28.5t-55 -77.5q-14 -41 -21 -98.5t-7 -135.5z" />
<glyph unicode="&#xf3;" horiz-adv-x="1079" d="M66 520q0 123 33.5 224.5t95 174t149 111.5t193.5 39q223 0 356 -158q63 -74 92 -164t29 -219q0 -135 -32 -231t-99 -174q-59 -68 -141.5 -107t-204.5 -39q-106 0 -193.5 39t-149 110t-95 171t-33.5 223zM295 1292l424 267l119 -213l-459 -205zM371 526q0 -182 35 -264 q18 -43 58 -64.5t81 -21.5q90 0 130 84t40 270q0 209 -56 281q-42 55 -118 55q-49 0 -87 -28.5t-55 -77.5q-14 -41 -21 -98.5t-7 -135.5z" />
<glyph unicode="&#xf4;" horiz-adv-x="1079" d="M66 520q0 123 33.5 224.5t95 174t149 111.5t193.5 39q223 0 356 -158q63 -74 92 -164t29 -219q0 -135 -32 -231t-99 -174q-59 -68 -141.5 -107t-204.5 -39q-106 0 -193.5 39t-149 110t-95 171t-33.5 223zM168 1280l369 276l376 -276l-92 -150l-284 156l-277 -156z M371 526q0 -182 35 -264q18 -43 58 -64.5t81 -21.5q90 0 130 84t40 270q0 209 -56 281q-42 55 -118 55q-49 0 -87 -28.5t-55 -77.5q-14 -41 -21 -98.5t-7 -135.5z" />
<glyph unicode="&#xf5;" horiz-adv-x="1079" d="M66 520q0 123 33.5 224.5t95 174t149 111.5t193.5 39q223 0 356 -158q63 -74 92 -164t29 -219q0 -135 -32 -231t-99 -174q-59 -68 -141.5 -107t-204.5 -39q-106 0 -193.5 39t-149 110t-95 171t-33.5 223zM164 1354q43 53 105.5 86t148.5 33q45 0 75.5 -11.5t58 -24 t58.5 -23.5t76 -11q84 0 139 61l84 -155q-47 -59 -104.5 -89t-149.5 -30q-47 0 -77.5 11t-58.5 23.5t-57.5 24t-74.5 11.5q-84 0 -139 -60zM371 526q0 -182 35 -264q18 -43 58 -64.5t81 -21.5q90 0 130 84t40 270q0 209 -56 281q-42 55 -118 55q-49 0 -87 -28.5t-55 -77.5 q-14 -41 -21 -98.5t-7 -135.5z" />
<glyph unicode="&#xf6;" horiz-adv-x="1079" d="M66 520q0 123 33.5 224.5t95 174t149 111.5t193.5 39q223 0 356 -158q63 -74 92 -164t29 -219q0 -135 -32 -231t-99 -174q-59 -68 -141.5 -107t-204.5 -39q-106 0 -193.5 39t-149 110t-95 171t-33.5 223zM161 1300q0 66 47 112t113 46q63 0 108.5 -46t45.5 -112 t-46 -111.5t-112 -45.5q-63 0 -109.5 46t-46.5 111zM371 526q0 -182 35 -264q18 -43 58 -64.5t81 -21.5q90 0 130 84t40 270q0 209 -56 281q-42 55 -118 55q-49 0 -87 -28.5t-55 -77.5q-14 -41 -21 -98.5t-7 -135.5zM593 1300q0 33 12.5 62t34 50.5t51 33.5t62.5 12 q63 0 108.5 -46t45.5 -112t-46 -111.5t-112 -45.5t-111 46t-45 111z" />
<glyph unicode="&#xf7;" horiz-adv-x="1802" d="M70 856v193h100q0 35 -5 71.5t-5 71.5q0 156 88 241t250 85q68 0 126 -15.5t121 -50.5l-88 -170q-45 23 -66.5 29t-45.5 6q-53 0 -84 -31t-31 -88v-149h358q0 35 -5 73.5t-5 69.5q0 156 88 241t250 85q68 0 130.5 -14.5t96.5 -35.5l-88 -170q-20 10 -47.5 14.5t-44.5 4.5 q-53 0 -83.5 -31t-30.5 -88v-149h626v-1049h-274v856h-350v-856h-269v856h-350v-856h-268v856h-94zM1370 1337q0 72 50 121t122 49q70 0 118 -49t48 -121t-49 -121t-121 -49q-70 0 -119 49.5t-49 120.5z" />
<glyph unicode="&#xf8;" horiz-adv-x="1138" d="M94 520q0 123 34 224.5t95.5 174t148.5 111.5t193 39q125 0 223 -49l121 197l127 -72l-133 -215q76 -74 107.5 -173.5t31.5 -228.5q0 -135 -31.5 -231t-99.5 -174q-59 -68 -141 -107t-205 -39q-117 0 -211 48l-118 -197l-127 72l127 211q-68 72 -105 175t-37 234z M399 526q0 -39 2 -73.5t5 -63.5l266 438q-43 39 -103 39q-49 0 -87 -28.5t-54 -77.5q-14 -41 -21.5 -98.5t-7.5 -135.5zM469 213q23 -18 50.5 -27.5t53.5 -9.5q90 0 130 84t40 270q0 35 -1 70t-5 53z" />
<glyph unicode="&#xf9;" horiz-adv-x="1089" d="M121 352v672l270 51v-674q0 -72 6 -110.5t17 -61.5q10 -23 37.5 -36t58.5 -13q51 0 102.5 31t67.5 70v737l262 55v-801q0 -53 16.5 -103t47.5 -87l-195 -111q-55 39 -82 103q-51 -49 -121.5 -75t-154.5 -26q-111 0 -197 47.5t-113 122.5q-12 35 -17 82t-5 127zM264 1346 l119 213l424 -267l-84 -151z" />
<glyph unicode="&#xfa;" horiz-adv-x="1089" d="M121 352v672l270 51v-674q0 -72 6 -110.5t17 -61.5q10 -23 37.5 -36t58.5 -13q51 0 102.5 31t67.5 70v737l262 55v-801q0 -53 16.5 -103t47.5 -87l-195 -111q-55 39 -82 103q-51 -49 -121.5 -75t-154.5 -26q-111 0 -197 47.5t-113 122.5q-12 35 -17 82t-5 127zM295 1292 l424 267l119 -213l-459 -205z" />
<glyph unicode="&#xfb;" horiz-adv-x="1089" d="M121 352v672l270 51v-674q0 -72 6 -110.5t17 -61.5q10 -23 37.5 -36t58.5 -13q51 0 102.5 31t67.5 70v737l262 55v-801q0 -53 16.5 -103t47.5 -87l-195 -111q-55 39 -82 103q-51 -49 -121.5 -75t-154.5 -26q-111 0 -197 47.5t-113 122.5q-12 35 -17 82t-5 127zM180 1280 l369 276l376 -276l-92 -150l-284 156l-277 -156z" />
<glyph unicode="&#xfc;" horiz-adv-x="1089" d="M121 352v672l270 51v-674q0 -72 6 -110.5t17 -61.5q10 -23 37.5 -36t58.5 -13q51 0 102.5 31t67.5 70v737l262 55v-801q0 -53 16.5 -103t47.5 -87l-195 -111q-55 39 -82 103q-51 -49 -121.5 -75t-154.5 -26q-111 0 -197 47.5t-113 122.5q-12 35 -17 82t-5 127zM180 1300 q0 66 47 112t113 46q63 0 108.5 -46t45.5 -112t-46 -111.5t-112 -45.5q-63 0 -109.5 46t-46.5 111zM612 1300q0 33 12.5 62t34 50.5t51 33.5t62.5 12q63 0 108.5 -46t45.5 -112t-46 -111.5t-112 -45.5t-111 46t-45 111z" />
<glyph unicode="&#xff;" horiz-adv-x="1017" d="M-12 1032l280 33l183 -612q6 -25 15 -62t19 -72q10 -41 21 -83q6 35 12 65q10 57 21 102q6 27 17 68t24 78l157 500h289l-381 -1065q-27 -76 -51.5 -132.5t-48 -96.5t-48 -68.5t-53.5 -48.5q-53 -39 -117.5 -63t-136.5 -34l-94 180q45 12 92.5 30t77.5 40q43 31 78 86 q10 16 17.5 28.5t13.5 26t12 29.5t16 39h-69q-12 37 -27.5 83t-30 89t-25.5 77t-15 46zM180 1300q0 66 47 112t113 46q63 0 108.5 -46t45.5 -112t-46 -111.5t-112 -45.5q-63 0 -109.5 46t-46.5 111zM612 1300q0 33 12.5 62t34 50.5t51 33.5t62.5 12q63 0 108.5 -46 t45.5 -112t-46 -111.5t-112 -45.5t-111 46t-45 111z" />
<glyph unicode="&#x152;" horiz-adv-x="1751" d="M72 715q0 293 143 485q66 88 156 136t190 69q41 8 101.5 13t158.5 5h813l-37 -233h-485v-330h406v-233h-406v-381h549v-246h-836q-113 0 -194.5 4t-145 19.5t-116 44t-103.5 79.5q-195 188 -194 568zM414 741q0 -125 14 -226t57 -173q35 -59 88.5 -89t137.5 -30 q49 0 90 10q23 4 41 11v915q-25 4 -49 10q-23 4 -49.5 7.5t-55.5 3.5q-141 0 -207.5 -105.5t-66.5 -333.5z" />
<glyph unicode="&#x153;" horiz-adv-x="1638" d="M92 520q0 123 34 224.5t95.5 174t148.5 111.5t193 39q186 0 307 -108q117 109 299 108q92 0 172 -28.5t132 -82.5q72 -74 105.5 -183t33.5 -275v-64h-606v-8q0 -123 57 -188.5t164 -65.5q139 0 266 105l106 -164q-178 -145 -395 -146q-201 0 -330 117q-57 -51 -131.5 -80 t-179.5 -29q-106 0 -193 39t-148.5 110t-95.5 171t-34 223zM397 526q0 -182 35 -264q18 -43 58 -64.5t81 -21.5q90 0 130 84t40 270q0 209 -55 281q-43 55 -119 55q-49 0 -87 -28.5t-54 -77.5q-14 -41 -21.5 -98.5t-7.5 -135.5zM1010 637h317q0 68 -7 104.5t-26 65.5 q-41 61 -120 61q-78 0 -121 -59t-43 -172z" />
<glyph unicode="&#x178;" horiz-adv-x="1138" d="M-29 1423h344l183 -389q29 -59 44 -100t27 -82q12 31 33 79t43 99l184 393h338l-454 -837v-586h-299v586zM207 1628q0 66 47 112t113 46q63 0 108 -46t45 -112t-46 -112t-112 -46q-63 0 -109 46.5t-46 111.5zM639 1628q0 33 12.5 61.5t34 50t51 34t62.5 12.5 q63 0 108 -46t45 -112t-46 -112t-111 -46q-66 0 -111 46.5t-45 111.5z" />
<glyph unicode="&#x2c6;" horiz-adv-x="823" d="M39 1280l369 276l376 -276l-92 -150l-284 156l-277 -156z" />
<glyph unicode="&#x2dc;" horiz-adv-x="804" d="M29 1354q43 53 105.5 86t148.5 33q45 0 75.5 -11.5t58 -24t58.5 -23.5t76 -11q84 0 139 61l84 -155q-47 -59 -104.5 -89t-149.5 -30q-47 0 -77.5 11t-58.5 23.5t-57.5 24t-74.5 11.5q-84 0 -139 -60z" />
<glyph unicode="&#x2000;" horiz-adv-x="947" />
<glyph unicode="&#x2001;" horiz-adv-x="1895" />
<glyph unicode="&#x2002;" horiz-adv-x="947" />
<glyph unicode="&#x2003;" horiz-adv-x="1895" />
<glyph unicode="&#x2004;" horiz-adv-x="631" />
<glyph unicode="&#x2005;" horiz-adv-x="473" />
<glyph unicode="&#x2006;" horiz-adv-x="315" />
<glyph unicode="&#x2007;" horiz-adv-x="315" />
<glyph unicode="&#x2008;" horiz-adv-x="236" />
<glyph unicode="&#x2009;" horiz-adv-x="379" />
<glyph unicode="&#x200a;" horiz-adv-x="105" />
<glyph unicode="&#x2010;" horiz-adv-x="692" d="M102 442v238h492v-238h-492z" />
<glyph unicode="&#x2011;" horiz-adv-x="692" d="M102 442v238h492v-238h-492z" />
<glyph unicode="&#x2012;" horiz-adv-x="692" d="M102 442v238h492v-238h-492z" />
<glyph unicode="&#x2013;" horiz-adv-x="985" d="M-6 457v211h997v-211h-997z" />
<glyph unicode="&#x2014;" horiz-adv-x="1970" d="M254 457v211h1460v-211h-1460z" />
<glyph unicode="&#x2018;" horiz-adv-x="557" d="M80 1098q0 68 20.5 127t59.5 108t91 84t118 51l108 -114q-68 -16 -107.5 -47t-39.5 -70q0 -20 11 -34.5t42 -31.5q80 -45 80 -143q0 -74 -52.5 -125t-125.5 -51q-90 0 -147.5 69.5t-57.5 176.5z" />
<glyph unicode="&#x2019;" horiz-adv-x="546" d="M66 954q66 16 106.5 48t40.5 69q0 20 -11.5 33.5t-41.5 32.5q-80 47 -80 143q0 74 51 125t127 51q90 0 147.5 -68.5t57.5 -177.5q0 -66 -20.5 -126t-59.5 -108t-92 -83t-117 -51z" />
<glyph unicode="&#x201a;" horiz-adv-x="546" d="M78 -182q68 16 107.5 48t39.5 68q0 20 -11 34t-42 32q-80 47 -80 143q0 74 52.5 125t125.5 51q90 0 147.5 -68.5t57.5 -176.5q0 -68 -20.5 -127.5t-59.5 -108.5t-92 -84t-117 -51z" />
<glyph unicode="&#x201c;" horiz-adv-x="1001" d="M80 1100q0 68 20.5 127t59.5 108t91 84t118 51l108 -114q-68 -16 -107.5 -47t-39.5 -70q0 -20 11 -33.5t42 -31.5q80 -47 80 -144q0 -74 -52.5 -125t-127.5 -51q-88 0 -145.5 68.5t-57.5 177.5zM543 1100q0 135 78.5 236.5t207.5 133.5l109 -114q-66 -16 -105.5 -47 t-39.5 -70q0 -20 10 -32.5t43 -32.5q80 -49 80 -144q0 -74 -52.5 -125t-128.5 -51q-90 0 -146 68.5t-56 177.5z" />
<glyph unicode="&#x201d;" horiz-adv-x="1001" d="M72 954q66 16 106.5 48t40.5 69q0 20 -11 33.5t-42 32.5q-80 47 -80 143q0 74 51 125t127 51q90 0 147.5 -68.5t57.5 -177.5q0 -66 -20.5 -126t-59.5 -108t-92 -83t-117 -51zM535 954q66 16 105.5 48t39.5 69q0 20 -10.5 33.5t-40.5 32.5q-80 47 -80 143q0 74 51 125 t127 51q90 0 146.5 -68.5t56.5 -177.5q0 -66 -20.5 -126t-58.5 -108t-91 -83t-117 -51z" />
<glyph unicode="&#x201e;" horiz-adv-x="1007" d="M74 -182q68 16 107.5 48t39.5 68q0 20 -11 34t-42 32q-80 47 -80 143q0 74 52.5 125t125.5 51q90 0 147.5 -68.5t57.5 -176.5q0 -68 -20.5 -127.5t-59.5 -108.5t-92 -84t-117 -51zM537 -182q66 16 105.5 48t39.5 68q0 20 -10 34t-41 32q-80 47 -80 143q0 74 51 125 t127 51q90 0 147.5 -68.5t57.5 -176.5q0 -68 -20.5 -127.5t-59.5 -108.5t-92 -84t-117 -51z" />
<glyph unicode="&#x2022;" horiz-adv-x="1024" d="M150 725q0 76 28.5 141.5t77.5 114.5t114.5 77.5t141.5 28.5t141.5 -28.5t114.5 -77.5t77.5 -114.5t28.5 -141.5t-28.5 -141.5t-77.5 -114.5t-114.5 -78t-141.5 -29t-141.5 29t-114.5 78t-77.5 114.5t-28.5 141.5z" />
<glyph unicode="&#x2026;" horiz-adv-x="1531" d="M74 150q0 74 52 126t126 52q76 0 129 -52.5t53 -125.5q0 -37 -14 -71t-39 -58.5t-57.5 -39t-69.5 -14.5q-76 0 -128 53.5t-52 129.5zM586 150q0 74 52 126t126 52q76 0 129 -52.5t53 -125.5q0 -37 -14 -71t-39 -58.5t-57.5 -39t-69.5 -14.5q-76 0 -128 53.5t-52 129.5z M1098 150q0 74 52 126t126 52q76 0 129 -52.5t53 -125.5q0 -37 -14 -71t-39 -58.5t-57.5 -39t-69.5 -14.5q-76 0 -128 53.5t-52 129.5z" />
<glyph unicode="&#x202f;" horiz-adv-x="379" />
<glyph unicode="&#x2039;" horiz-adv-x="651" d="M78 510l325 479l187 -125l-238 -354l238 -354l-187 -125z" />
<glyph unicode="&#x203a;" horiz-adv-x="651" d="M76 156l237 354l-237 354l186 125l326 -479l-326 -479z" />
<glyph unicode="&#x205f;" horiz-adv-x="473" />
<glyph unicode="&#x2122;" horiz-adv-x="2113" d="M104 1253v197h709v-197h-244v-647h-221v647h-244zM993 606v844h297l201 -549l201 549h297v-844h-222v549h-4l-200 -549h-144l-200 549h-5v-549h-221z" />
<glyph unicode="&#x25fc;" horiz-adv-x="1075" d="M0 0v1075h1075v-1075h-1075z" />
</font>
</defs>
</svg>
